{"glyphs":{"0":{"ha":951,"x_min":0,"x_max":0,"o":"m 476 -19 b 904 486 724 -19 904 165 b 476 992 904 807 724 992 b 47 486 228 992 47 807 b 476 -19 47 165 228 -19 z m 476 206 b 324 486 388 206 324 282 b 476 767 324 690 388 767 b 628 486 564 767 628 690 b 476 206 628 282 564 206 z "},"1":{"ha":563,"x_min":0,"x_max":0,"o":"m 8 972 l 8 760 l 189 760 l 189 0 l 464 0 l 464 972 z "},"2":{"ha":832,"x_min":0,"x_max":0,"o":"m 424 218 l 607 388 b 772 696 746 515 772 601 b 394 992 772 876 618 992 b -8 789 203 992 65 911 l 196 675 b 369 769 235 738 299 769 b 494 669 453 769 494 732 b 406 513 494 629 483 585 l 42 172 l 42 0 l 799 0 l 799 218 z "},"3":{"ha":838,"x_min":0,"x_max":0,"o":"m 546 583 l 747 800 l 747 972 l 44 972 l 44 760 l 428 760 l 254 572 l 254 399 l 369 399 b 518 304 475 399 518 363 b 364 203 518 239 457 203 b 94 283 272 203 172 231 l -6 76 b 372 -19 94 14 238 -19 b 796 304 665 -19 796 139 b 546 583 796 443 710 549 z "},"4":{"ha":972,"x_min":0,"x_max":0,"o":"m 964 404 l 819 404 l 819 569 l 560 569 l 560 404 l 363 404 l 758 972 l 474 972 l 38 365 l 38 186 l 551 186 l 551 0 l 819 0 l 819 186 l 964 186 z "},"5":{"ha":843,"x_min":0,"x_max":0,"o":"m 411 618 l 346 618 l 358 760 l 750 760 l 750 972 l 131 972 l 82 404 l 346 404 b 535 306 494 404 535 365 b 379 203 535 240 472 203 b 110 283 286 203 189 231 l 11 76 b 388 -19 110 14 253 -19 b 811 313 681 -19 811 139 b 411 618 811 485 699 618 z "},"6":{"ha":901,"x_min":0,"x_max":0,"o":"m 544 619 b 325 547 453 619 379 594 b 571 774 339 696 432 774 b 750 724 633 774 694 763 l 850 921 b 564 992 779 967 674 992 b 47 460 257 992 47 799 b 497 -19 47 144 225 -19 b 879 313 710 -19 879 110 b 544 619 879 499 728 619 z m 481 176 b 344 299 397 176 344 226 b 479 422 344 372 400 422 b 613 300 558 422 613 375 b 481 176 613 224 558 176 z "},"7":{"ha":878,"x_min":0,"x_max":0,"o":"m 32 972 l 32 604 l 267 604 l 267 754 l 522 754 l 194 0 l 494 0 l 838 800 l 838 972 z "},"8":{"ha":929,"x_min":0,"x_max":0,"o":"m 747 513 b 851 708 813 558 851 625 b 464 992 851 881 693 992 b 76 708 235 992 76 881 b 181 513 76 625 115 558 b 42 286 93 463 42 386 b 464 -19 42 100 213 -19 b 886 286 715 -19 886 100 b 747 513 886 386 835 463 z m 464 799 b 581 696 532 799 581 761 b 464 594 581 632 533 594 b 349 696 394 594 349 632 b 464 799 349 761 396 799 z m 464 174 b 318 294 376 174 318 219 b 464 415 318 369 376 415 b 610 294 551 415 610 369 b 464 174 610 219 551 174 z "},"9":{"ha":901,"x_min":0,"x_max":0,"o":"m 403 992 b 22 660 192 992 22 863 b 357 353 22 474 174 353 b 575 424 449 353 521 378 b 331 199 560 276 468 199 b 151 249 268 199 207 210 l 51 51 b 336 -19 122 6 228 -19 b 854 513 644 -19 854 174 b 403 992 854 828 676 992 z m 422 550 b 289 672 343 550 289 597 b 421 796 289 749 343 796 b 557 674 504 796 557 746 b 422 550 557 600 501 550 z "},"A":{"ha":1092,"x_min":0,"x_max":0,"o":"m 825 0 l 1111 0 l 681 972 l 410 972 l -19 0 l 261 0 l 338 189 l 749 189 z m 418 392 l 543 703 l 668 392 z "},"Á":{"ha":1092,"x_min":0,"x_max":0,"o":"m 860 1263 l 596 1263 l 410 1051 l 599 1051 z m 825 0 l 1111 0 l 681 972 l 410 972 l -19 0 l 261 0 l 338 189 l 749 189 z m 418 392 l 543 703 l 668 392 z "},"Ă":{"ha":1092,"x_min":0,"x_max":0,"o":"m 546 1039 b 818 1263 701 1039 813 1125 l 657 1263 b 546 1171 654 1207 607 1171 b 435 1263 485 1171 438 1207 l 274 1263 b 546 1039 279 1125 390 1039 z m 825 0 l 1111 0 l 681 972 l 410 972 l -19 0 l 261 0 l 338 189 l 749 189 z m 418 392 l 543 703 l 668 392 z "},"Ắ":{"ha":1092,"x_min":0,"x_max":0,"o":"m 819 1442 l 561 1442 l 414 1268 l 596 1268 z m 546 1039 b 818 1221 700 1039 810 1108 l 665 1221 b 546 1158 660 1183 613 1158 b 426 1221 479 1158 432 1183 l 274 1221 b 546 1039 282 1108 392 1039 z m 825 0 l 1111 0 l 681 972 l 410 972 l -19 0 l 261 0 l 338 189 l 749 189 z m 418 392 l 543 703 l 668 392 z "},"Ặ":{"ha":1092,"x_min":0,"x_max":0,"o":"m 546 1039 b 818 1263 701 1039 813 1125 l 657 1263 b 546 1171 654 1207 607 1171 b 435 1263 485 1171 438 1207 l 274 1263 b 546 1039 279 1125 390 1039 z m 1111 0 l 681 972 l 410 972 l -19 0 l 261 0 l 338 189 l 749 189 l 825 0 z m 418 392 l 543 703 l 668 392 z m 546 -86 b 436 -196 483 -86 436 -131 b 546 -303 436 -261 483 -303 b 656 -196 608 -303 656 -261 b 546 -86 656 -131 608 -86 z "},"Ằ":{"ha":1092,"x_min":0,"x_max":0,"o":"m 678 1268 l 531 1442 l 272 1442 l 497 1268 z m 546 1158 b 426 1221 479 1158 432 1183 l 274 1221 b 546 1039 282 1108 392 1039 b 818 1221 700 1039 810 1108 l 665 1221 b 546 1158 660 1183 613 1158 z m 825 0 l 1111 0 l 681 972 l 410 972 l -19 0 l 261 0 l 338 189 l 749 189 z m 418 392 l 543 703 l 668 392 z "},"Ẳ":{"ha":1092,"x_min":0,"x_max":0,"o":"m 531 1376 b 575 1339 556 1376 575 1361 b 525 1283 575 1322 563 1303 l 588 1226 b 690 1353 643 1249 690 1293 b 553 1468 690 1424 636 1468 b 426 1435 507 1468 461 1457 l 468 1360 b 531 1376 490 1371 508 1376 z m 546 1039 b 818 1221 700 1039 810 1108 l 665 1221 b 546 1158 660 1183 613 1158 b 426 1221 479 1158 432 1183 l 274 1221 b 546 1039 282 1108 392 1039 z m 825 0 l 1111 0 l 681 972 l 410 972 l -19 0 l 261 0 l 338 189 l 749 189 z m 418 392 l 543 703 l 668 392 z "},"Ẵ":{"ha":1092,"x_min":0,"x_max":0,"o":"m 458 1331 b 650 1260 501 1331 551 1260 b 825 1449 761 1260 824 1332 l 697 1449 b 636 1389 694 1415 672 1389 b 443 1460 592 1389 539 1460 b 267 1271 335 1460 268 1392 l 399 1271 b 458 1331 401 1307 424 1331 z m 546 1158 b 426 1221 479 1158 432 1183 l 274 1221 b 546 1039 282 1108 392 1039 b 818 1221 700 1039 810 1108 l 665 1221 b 546 1158 660 1183 613 1158 z m 825 0 l 1111 0 l 681 972 l 410 972 l -19 0 l 261 0 l 338 189 l 749 189 z m 418 392 l 543 703 l 668 392 z "},"Ǎ":{"ha":1092,"x_min":0,"x_max":0,"o":"m 660 1051 l 840 1263 l 665 1263 l 546 1157 l 426 1263 l 251 1263 l 432 1051 z m 825 0 l 1111 0 l 681 972 l 410 972 l -19 0 l 261 0 l 338 189 l 749 189 z m 418 392 l 543 703 l 668 392 z "},"Â":{"ha":1092,"x_min":0,"x_max":0,"o":"m 546 1157 l 665 1051 l 840 1051 l 660 1263 l 432 1263 l 251 1051 l 426 1051 z m 825 0 l 1111 0 l 681 972 l 410 972 l -19 0 l 261 0 l 338 189 l 749 189 z m 418 392 l 543 703 l 668 392 z "},"Ấ":{"ha":1092,"x_min":0,"x_max":0,"o":"m 1135 1364 l 876 1364 l 729 1190 l 911 1190 z m 546 1133 l 664 1051 l 840 1051 l 658 1221 l 433 1221 l 251 1051 l 428 1051 z m 410 972 l -19 0 l 261 0 l 338 189 l 749 189 l 825 0 l 1111 0 l 681 972 z m 418 392 l 543 703 l 668 392 z "},"Ậ":{"ha":1092,"x_min":0,"x_max":0,"o":"m 546 1157 l 665 1051 l 840 1051 l 660 1263 l 432 1263 l 251 1051 l 426 1051 z m 1111 0 l 681 972 l 410 972 l -19 0 l 261 0 l 338 189 l 749 189 l 825 0 z m 418 392 l 543 703 l 668 392 z m 546 -86 b 436 -196 483 -86 436 -131 b 546 -303 436 -261 483 -303 b 656 -196 608 -303 656 -261 b 546 -86 656 -131 608 -86 z "},"Ầ":{"ha":1092,"x_min":0,"x_max":0,"o":"m 993 1190 l 846 1364 l 588 1364 l 813 1190 z m 546 1133 l 664 1051 l 840 1051 l 658 1221 l 433 1221 l 251 1051 l 428 1051 z m 825 0 l 1111 0 l 681 972 l 410 972 l -19 0 l 261 0 l 338 189 l 749 189 z m 418 392 l 543 703 l 668 392 z "},"Ẩ":{"ha":1092,"x_min":0,"x_max":0,"o":"m 761 1313 b 806 1275 786 1313 806 1297 b 756 1219 806 1258 793 1239 l 818 1163 b 921 1289 874 1185 921 1229 b 783 1404 921 1360 867 1404 b 657 1371 738 1404 692 1393 l 699 1296 b 761 1313 721 1307 739 1313 z m 546 1133 l 664 1051 l 840 1051 l 658 1221 l 433 1221 l 251 1051 l 428 1051 z m 825 0 l 1111 0 l 681 972 l 410 972 l -19 0 l 261 0 l 338 189 l 749 189 z m 418 392 l 543 703 l 668 392 z "},"Ẫ":{"ha":1092,"x_min":0,"x_max":0,"o":"m 458 1340 b 650 1269 501 1340 551 1269 b 825 1458 761 1269 824 1342 l 697 1458 b 636 1399 694 1425 672 1399 b 443 1469 592 1399 539 1469 b 267 1281 335 1469 268 1401 l 399 1281 b 458 1340 401 1317 424 1340 z m 546 1133 l 664 1051 l 840 1051 l 658 1221 l 433 1221 l 251 1051 l 428 1051 z m 825 0 l 1111 0 l 681 972 l 410 972 l -19 0 l 261 0 l 338 189 l 749 189 z m 418 392 l 543 703 l 668 392 z "},"Ȁ":{"ha":1092,"x_min":0,"x_max":0,"o":"m 486 1051 l 400 1263 l 164 1263 l 303 1051 z m 789 1051 l 701 1263 l 465 1263 l 606 1051 z m 825 0 l 1111 0 l 681 972 l 410 972 l -19 0 l 261 0 l 338 189 l 749 189 z m 418 392 l 543 703 l 668 392 z "},"Ä":{"ha":1092,"x_min":0,"x_max":0,"o":"m 399 1050 b 508 1158 461 1050 508 1093 b 399 1268 508 1224 461 1268 b 289 1158 336 1268 289 1224 b 399 1050 289 1093 336 1050 z m 693 1050 b 803 1158 756 1050 803 1093 b 693 1268 803 1224 756 1268 b 583 1158 631 1268 583 1224 b 693 1050 583 1093 631 1050 z m 825 0 l 1111 0 l 681 972 l 410 972 l -19 0 l 261 0 l 338 189 l 749 189 z m 418 392 l 543 703 l 668 392 z "},"Ạ":{"ha":1092,"x_min":0,"x_max":0,"o":"m 1111 0 l 681 972 l 410 972 l -19 0 l 261 0 l 338 189 l 749 189 l 825 0 z m 418 392 l 543 703 l 668 392 z m 546 -86 b 436 -196 483 -86 436 -131 b 546 -303 436 -261 483 -303 b 656 -196 608 -303 656 -261 b 546 -86 656 -131 608 -86 z "},"À":{"ha":1092,"x_min":0,"x_max":0,"o":"m 682 1051 l 496 1263 l 232 1263 l 493 1051 z m 825 0 l 1111 0 l 681 972 l 410 972 l -19 0 l 261 0 l 338 189 l 749 189 z m 418 392 l 543 703 l 668 392 z "},"Ả":{"ha":1092,"x_min":0,"x_max":0,"o":"m 521 1254 b 583 1199 558 1254 583 1233 b 515 1118 583 1169 568 1143 l 596 1038 b 732 1221 685 1078 732 1136 b 550 1381 732 1315 658 1381 b 386 1329 490 1381 431 1364 l 440 1226 b 521 1254 468 1246 493 1254 z m 825 0 l 1111 0 l 681 972 l 410 972 l -19 0 l 261 0 l 338 189 l 749 189 z m 418 392 l 543 703 l 668 392 z "},"Ȃ":{"ha":1092,"x_min":0,"x_max":0,"o":"m 546 1143 b 657 1051 607 1143 654 1107 l 818 1051 b 546 1275 813 1189 701 1275 b 274 1051 390 1275 279 1189 l 435 1051 b 546 1143 438 1107 485 1143 z m 825 0 l 1111 0 l 681 972 l 410 972 l -19 0 l 261 0 l 338 189 l 749 189 z m 418 392 l 543 703 l 668 392 z "},"Ā":{"ha":1092,"x_min":0,"x_max":0,"o":"m 819 1228 l 272 1228 l 272 1086 l 819 1086 z m 825 0 l 1111 0 l 681 972 l 410 972 l -19 0 l 261 0 l 338 189 l 749 189 z m 418 392 l 543 703 l 668 392 z "},"Ą":{"ha":1092,"x_min":0,"x_max":0,"o":"m 1111 -182 b 1028 -203 1090 -193 1058 -203 b 951 -142 978 -203 951 -178 b 1111 0 951 -94 992 -53 l 681 972 l 410 972 l -19 0 l 261 0 l 338 189 l 749 189 l 825 0 l 888 0 b 792 -165 824 -46 792 -103 b 997 -328 792 -262 867 -328 b 1146 -296 1053 -328 1111 -314 z m 418 392 l 543 703 l 668 392 z "},"Å":{"ha":1092,"x_min":0,"x_max":0,"o":"m 546 1040 b 729 1217 649 1040 729 1118 b 546 1394 729 1315 649 1394 b 363 1217 442 1394 363 1315 b 546 1040 363 1118 442 1040 z m 546 1297 b 625 1217 590 1297 625 1264 b 546 1138 625 1171 590 1138 b 467 1217 501 1138 467 1171 b 546 1297 467 1264 501 1297 z m 825 0 l 1111 0 l 681 972 l 410 972 l -19 0 l 261 0 l 338 189 l 749 189 z m 418 392 l 543 703 l 668 392 z "},"Ǻ":{"ha":1092,"x_min":0,"x_max":0,"o":"m 546 1040 b 729 1217 649 1040 729 1118 b 706 1304 729 1249 721 1278 l 867 1414 l 738 1511 l 614 1382 b 546 1394 593 1390 569 1394 b 363 1217 442 1394 363 1315 b 546 1040 363 1118 442 1040 z m 546 1297 b 625 1217 590 1297 625 1264 b 546 1138 625 1171 590 1138 b 467 1217 501 1138 467 1171 b 546 1297 467 1264 501 1297 z m 825 0 l 1111 0 l 681 972 l 410 972 l -19 0 l 261 0 l 338 189 l 749 189 z m 418 392 l 543 703 l 668 392 z "},"Ã":{"ha":1092,"x_min":0,"x_max":0,"o":"m 454 1128 b 654 1042 504 1128 556 1042 b 831 1260 761 1042 828 1129 l 701 1260 b 638 1190 699 1217 675 1190 b 438 1275 588 1190 536 1275 b 261 1054 331 1275 264 1189 l 390 1054 b 454 1128 393 1100 417 1128 z m 825 0 l 1111 0 l 681 972 l 410 972 l -19 0 l 261 0 l 338 189 l 749 189 z m 418 392 l 543 703 l 668 392 z "},"Æ":{"ha":1526,"x_min":0,"x_max":0,"o":"m 963 213 l 963 390 l 1394 390 l 1394 596 l 963 596 l 963 760 l 1453 760 l 1453 972 l 511 972 l -19 0 l 261 0 l 360 189 l 690 189 l 690 0 l 1471 0 l 1471 213 z m 467 392 l 658 760 l 690 760 l 690 392 z "},"Ǽ":{"ha":1526,"x_min":0,"x_max":0,"o":"m 1140 1263 l 876 1263 l 690 1051 l 879 1051 z m 963 213 l 963 390 l 1394 390 l 1394 596 l 963 596 l 963 760 l 1453 760 l 1453 972 l 511 972 l -19 0 l 261 0 l 360 189 l 690 189 l 690 0 l 1471 0 l 1471 213 z m 467 392 l 658 760 l 690 760 l 690 392 z "},"B":{"ha":1068,"x_min":0,"x_max":0,"o":"m 844 507 b 975 718 928 550 975 625 b 594 972 975 868 850 972 l 97 972 l 97 0 l 622 0 b 1022 267 883 0 1022 99 b 844 507 1022 385 954 468 z m 558 774 b 697 681 650 774 697 742 b 558 586 697 618 650 586 l 369 586 l 369 774 z m 600 199 l 369 199 l 369 396 l 600 396 b 744 297 694 396 744 364 b 600 199 744 231 694 199 z "},"C":{"ha":1025,"x_min":0,"x_max":0,"o":"m 582 -19 b 1000 164 761 -19 906 46 l 825 322 b 596 208 764 249 689 208 b 325 486 436 208 325 319 b 596 764 325 653 436 764 b 825 650 689 764 764 724 l 1000 808 b 582 992 906 926 761 992 b 47 486 274 992 47 782 b 582 -19 47 190 274 -19 z "},"Ć":{"ha":1025,"x_min":0,"x_max":0,"o":"m 442 1053 l 631 1053 l 892 1264 l 628 1264 z m 582 -19 b 1000 164 761 -19 906 46 l 825 322 b 596 208 764 249 689 208 b 325 486 436 208 325 319 b 596 764 325 653 436 764 b 825 650 689 764 764 724 l 1000 808 b 582 992 906 926 761 992 b 47 486 274 992 47 782 b 582 -19 47 190 274 -19 z "},"Č":{"ha":1025,"x_min":0,"x_max":0,"o":"m 692 1053 l 872 1264 l 697 1264 l 578 1158 l 458 1264 l 283 1264 l 464 1053 z m 596 208 b 325 486 436 208 325 319 b 596 764 325 653 436 764 b 825 650 689 764 764 724 l 1000 808 b 582 992 906 926 761 992 b 47 486 274 992 47 782 b 582 -19 47 190 274 -19 b 1000 164 761 -19 906 46 l 825 322 b 596 208 764 249 689 208 z "},"Ç":{"ha":1025,"x_min":0,"x_max":0,"o":"m 596 208 b 325 486 436 208 325 319 b 596 764 325 653 436 764 b 825 650 689 764 764 724 l 1000 808 b 582 992 906 926 761 992 b 47 486 274 992 47 782 b 474 -11 47 226 222 32 l 443 -140 l 494 -140 b 557 -175 539 -140 557 -154 b 488 -214 557 -197 538 -214 b 401 -194 454 -214 425 -206 l 365 -299 b 497 -328 396 -315 450 -328 b 717 -183 629 -328 717 -272 b 597 -71 717 -132 683 -81 l 610 -19 b 1000 164 776 -12 911 51 l 825 322 b 596 208 764 249 689 208 z "},"Ḉ":{"ha":1025,"x_min":0,"x_max":0,"o":"m 892 1264 l 628 1264 l 442 1053 l 631 1053 z m 596 208 b 325 486 436 208 325 319 b 596 764 325 653 436 764 b 825 650 689 764 764 724 l 1000 808 b 582 992 906 926 761 992 b 47 486 274 992 47 782 b 474 -11 47 226 222 32 l 443 -140 l 494 -140 b 557 -175 539 -140 557 -154 b 488 -214 557 -197 538 -214 b 401 -194 454 -214 425 -206 l 365 -299 b 497 -328 396 -315 450 -328 b 717 -183 629 -328 717 -272 b 597 -71 717 -132 683 -81 l 610 -19 b 1000 164 776 -12 911 51 l 825 322 b 596 208 764 249 689 208 z "},"Ĉ":{"ha":1025,"x_min":0,"x_max":0,"o":"m 578 1158 l 697 1053 l 872 1053 l 692 1264 l 464 1264 l 283 1053 l 458 1053 z m 596 208 b 325 486 436 208 325 319 b 596 764 325 653 436 764 b 825 650 689 764 764 724 l 1000 808 b 582 992 906 926 761 992 b 47 486 274 992 47 782 b 582 -19 47 190 274 -19 b 1000 164 761 -19 906 46 l 825 322 b 596 208 764 249 689 208 z "},"Ċ":{"ha":1025,"x_min":0,"x_max":0,"o":"m 578 1050 b 715 1188 658 1050 715 1107 b 578 1324 715 1267 658 1324 b 440 1188 497 1324 440 1267 b 578 1050 440 1107 497 1050 z m 582 -19 b 1000 164 761 -19 906 46 l 825 322 b 596 208 764 249 689 208 b 325 486 436 208 325 319 b 596 764 325 653 436 764 b 825 650 689 764 764 724 l 1000 808 b 582 992 906 926 761 992 b 47 486 274 992 47 782 b 582 -19 47 190 274 -19 z "},"D":{"ha":1147,"x_min":0,"x_max":0,"o":"m 97 0 l 557 0 b 1100 486 879 0 1100 188 b 557 972 1100 785 879 972 l 97 972 z m 372 219 l 372 753 l 546 753 b 822 486 711 753 822 654 b 546 219 822 318 711 219 z "},"Ǆ":{"ha":2007,"x_min":0,"x_max":0,"o":"m 1665 1051 l 1846 1263 l 1671 1263 l 1551 1157 l 1432 1263 l 1257 1263 l 1438 1051 z m 557 972 l 97 972 l 97 0 l 557 0 b 1100 486 879 0 1100 188 b 557 972 1100 785 879 972 z m 1475 218 l 1965 800 l 1965 972 l 1128 972 l 1128 754 l 1606 754 l 1115 172 l 1115 0 l 1986 0 l 1986 218 z m 546 219 l 372 219 l 372 753 l 546 753 b 822 486 711 753 822 654 b 546 219 822 318 711 219 z "},"Ð":{"ha":1171,"x_min":0,"x_max":0,"o":"m 581 972 l 121 972 l 121 578 l -4 578 l -4 408 l 121 408 l 121 0 l 581 0 b 1124 486 903 0 1124 188 b 581 972 1124 785 903 972 z m 569 219 l 396 219 l 396 408 l 621 408 l 621 578 l 396 578 l 396 753 l 569 753 b 846 486 735 753 846 654 b 569 219 846 318 735 219 z "},"Ď":{"ha":1147,"x_min":0,"x_max":0,"o":"m 621 1051 l 801 1263 l 626 1263 l 507 1157 l 388 1263 l 213 1263 l 393 1051 z m 557 972 l 97 972 l 97 0 l 557 0 b 1100 486 879 0 1100 188 b 557 972 1100 785 879 972 z m 546 219 l 372 219 l 372 753 l 546 753 b 822 486 711 753 822 654 b 546 219 822 318 711 219 z "},"Đ":{"ha":1171,"x_min":0,"x_max":0,"o":"m 581 972 l 121 972 l 121 578 l -4 578 l -4 408 l 121 408 l 121 0 l 581 0 b 1124 486 903 0 1124 188 b 581 972 1124 785 903 972 z m 569 219 l 396 219 l 396 408 l 621 408 l 621 578 l 396 578 l 396 753 l 569 753 b 846 486 735 753 846 654 b 569 219 846 318 735 219 z "},"Ḍ":{"ha":1147,"x_min":0,"x_max":0,"o":"m 97 0 l 557 0 b 1100 486 879 0 1100 188 b 557 972 1100 785 879 972 l 97 972 z m 372 219 l 372 753 l 546 753 b 822 486 711 753 822 654 b 546 219 822 318 711 219 z m 510 -303 b 619 -196 572 -303 619 -261 b 510 -86 619 -131 572 -86 b 400 -196 447 -86 400 -131 b 510 -303 400 -261 447 -303 z "},"Ḏ":{"ha":1147,"x_min":0,"x_max":0,"o":"m 97 0 l 557 0 b 1100 486 879 0 1100 188 b 557 972 1100 785 879 972 l 97 972 z m 372 219 l 372 753 l 546 753 b 822 486 711 753 822 654 b 546 219 822 318 711 219 z m 236 -260 l 783 -260 l 783 -118 l 236 -118 z "},"ǅ":{"ha":1919,"x_min":0,"x_max":0,"o":"m 1653 843 l 1833 1054 l 1658 1054 l 1539 949 l 1419 1054 l 1244 1054 l 1425 843 z m 557 972 l 97 972 l 97 0 l 557 0 b 1100 486 879 0 1100 188 b 557 972 1100 785 879 972 z m 546 219 l 372 219 l 372 753 l 546 753 b 822 486 711 753 822 654 b 546 219 822 318 711 219 z m 1525 197 l 1874 599 l 1874 753 l 1203 753 l 1203 557 l 1542 557 l 1193 156 l 1193 0 l 1888 0 l 1888 197 z "},"E":{"ha":933,"x_min":0,"x_max":0,"o":"m 369 213 l 369 390 l 801 390 l 801 596 l 369 596 l 369 760 l 860 760 l 860 972 l 97 972 l 97 0 l 878 0 l 878 213 z "},"É":{"ha":933,"x_min":0,"x_max":0,"o":"m 793 1263 l 529 1263 l 343 1051 l 532 1051 z m 369 213 l 369 390 l 801 390 l 801 596 l 369 596 l 369 760 l 860 760 l 860 972 l 97 972 l 97 0 l 878 0 l 878 213 z "},"Ĕ":{"ha":933,"x_min":0,"x_max":0,"o":"m 479 1039 b 751 1263 635 1039 746 1125 l 590 1263 b 479 1171 588 1207 540 1171 b 368 1263 418 1171 371 1207 l 207 1263 b 479 1039 213 1125 324 1039 z m 369 213 l 369 390 l 801 390 l 801 596 l 369 596 l 369 760 l 860 760 l 860 972 l 97 972 l 97 0 l 878 0 l 878 213 z "},"Ě":{"ha":933,"x_min":0,"x_max":0,"o":"m 593 1051 l 774 1263 l 599 1263 l 479 1157 l 360 1263 l 185 1263 l 365 1051 z m 369 213 l 369 390 l 801 390 l 801 596 l 369 596 l 369 760 l 860 760 l 860 972 l 97 972 l 97 0 l 878 0 l 878 213 z "},"Ḝ":{"ha":933,"x_min":0,"x_max":0,"o":"m 479 1039 b 751 1263 635 1039 746 1125 l 590 1263 b 479 1171 588 1207 540 1171 b 368 1263 418 1171 371 1207 l 207 1263 b 479 1039 213 1125 324 1039 z m 878 0 l 878 213 l 369 213 l 369 390 l 801 390 l 801 596 l 369 596 l 369 760 l 860 760 l 860 972 l 97 972 l 97 0 l 411 0 l 378 -140 l 429 -140 b 492 -175 474 -140 492 -154 b 422 -214 492 -197 472 -214 b 336 -194 389 -214 360 -206 l 300 -299 b 432 -328 331 -315 385 -328 b 651 -183 564 -328 651 -272 b 532 -71 651 -132 618 -81 l 549 0 z "},"Ê":{"ha":933,"x_min":0,"x_max":0,"o":"m 479 1157 l 599 1051 l 774 1051 l 593 1263 l 365 1263 l 185 1051 l 360 1051 z m 369 213 l 369 390 l 801 390 l 801 596 l 369 596 l 369 760 l 860 760 l 860 972 l 97 972 l 97 0 l 878 0 l 878 213 z "},"Ế":{"ha":933,"x_min":0,"x_max":0,"o":"m 1068 1364 l 810 1364 l 663 1190 l 844 1190 z m 479 1133 l 597 1051 l 774 1051 l 592 1221 l 367 1221 l 185 1051 l 361 1051 z m 369 390 l 801 390 l 801 596 l 369 596 l 369 760 l 860 760 l 860 972 l 97 972 l 97 0 l 878 0 l 878 213 l 369 213 z "},"Ệ":{"ha":933,"x_min":0,"x_max":0,"o":"m 479 1157 l 599 1051 l 774 1051 l 593 1263 l 365 1263 l 185 1051 l 360 1051 z m 369 213 l 369 390 l 801 390 l 801 596 l 369 596 l 369 760 l 860 760 l 860 972 l 97 972 l 97 0 l 878 0 l 878 213 z m 483 -86 b 374 -196 421 -86 374 -131 b 483 -303 374 -261 421 -303 b 593 -196 546 -303 593 -261 b 483 -86 593 -131 546 -86 z "},"Ề":{"ha":933,"x_min":0,"x_max":0,"o":"m 926 1190 l 779 1364 l 521 1364 l 746 1190 z m 479 1133 l 597 1051 l 774 1051 l 592 1221 l 367 1221 l 185 1051 l 361 1051 z m 369 390 l 801 390 l 801 596 l 369 596 l 369 760 l 860 760 l 860 972 l 97 972 l 97 0 l 878 0 l 878 213 l 369 213 z "},"Ể":{"ha":933,"x_min":0,"x_max":0,"o":"m 694 1313 b 739 1275 719 1313 739 1297 b 689 1219 739 1258 726 1239 l 751 1163 b 854 1289 807 1185 854 1229 b 717 1404 854 1360 800 1404 b 590 1371 671 1404 625 1393 l 632 1296 b 694 1313 654 1307 672 1313 z m 479 1133 l 597 1051 l 774 1051 l 592 1221 l 367 1221 l 185 1051 l 361 1051 z m 369 213 l 369 390 l 801 390 l 801 596 l 369 596 l 369 760 l 860 760 l 860 972 l 97 972 l 97 0 l 878 0 l 878 213 z "},"Ễ":{"ha":933,"x_min":0,"x_max":0,"o":"m 392 1340 b 583 1269 435 1340 485 1269 b 758 1458 694 1269 757 1342 l 631 1458 b 569 1399 628 1425 606 1399 b 376 1469 525 1399 472 1469 b 200 1281 268 1469 201 1401 l 332 1281 b 392 1340 335 1317 357 1340 z m 479 1133 l 597 1051 l 774 1051 l 592 1221 l 367 1221 l 185 1051 l 361 1051 z m 369 213 l 369 390 l 801 390 l 801 596 l 369 596 l 369 760 l 860 760 l 860 972 l 97 972 l 97 0 l 878 0 l 878 213 z "},"Ȅ":{"ha":933,"x_min":0,"x_max":0,"o":"m 419 1051 l 333 1263 l 97 1263 l 236 1051 z m 722 1051 l 635 1263 l 399 1263 l 539 1051 z m 369 213 l 369 390 l 801 390 l 801 596 l 369 596 l 369 760 l 860 760 l 860 972 l 97 972 l 97 0 l 878 0 l 878 213 z "},"Ë":{"ha":933,"x_min":0,"x_max":0,"o":"m 332 1050 b 442 1158 394 1050 442 1093 b 332 1268 442 1224 394 1268 b 222 1158 269 1268 222 1224 b 332 1050 222 1093 269 1050 z m 626 1050 b 736 1158 689 1050 736 1093 b 626 1268 736 1224 689 1268 b 517 1158 564 1268 517 1224 b 626 1050 517 1093 564 1050 z m 369 213 l 369 390 l 801 390 l 801 596 l 369 596 l 369 760 l 860 760 l 860 972 l 97 972 l 97 0 l 878 0 l 878 213 z "},"Ė":{"ha":933,"x_min":0,"x_max":0,"o":"m 479 1049 b 617 1186 560 1049 617 1106 b 479 1322 617 1265 560 1322 b 342 1186 399 1322 342 1265 b 479 1049 342 1106 399 1049 z m 369 213 l 369 390 l 801 390 l 801 596 l 369 596 l 369 760 l 860 760 l 860 972 l 97 972 l 97 0 l 878 0 l 878 213 z "},"Ẹ":{"ha":933,"x_min":0,"x_max":0,"o":"m 369 213 l 369 390 l 801 390 l 801 596 l 369 596 l 369 760 l 860 760 l 860 972 l 97 972 l 97 0 l 878 0 l 878 213 z m 483 -86 b 374 -196 421 -86 374 -131 b 483 -303 374 -261 421 -303 b 593 -196 546 -303 593 -261 b 483 -86 593 -131 546 -86 z "},"È":{"ha":933,"x_min":0,"x_max":0,"o":"m 615 1051 l 429 1263 l 165 1263 l 426 1051 z m 369 213 l 369 390 l 801 390 l 801 596 l 369 596 l 369 760 l 860 760 l 860 972 l 97 972 l 97 0 l 878 0 l 878 213 z "},"Ẻ":{"ha":933,"x_min":0,"x_max":0,"o":"m 454 1254 b 517 1199 492 1254 517 1233 b 449 1118 517 1169 501 1143 l 529 1038 b 665 1221 618 1078 665 1136 b 483 1381 665 1315 592 1381 b 319 1329 424 1381 364 1364 l 374 1226 b 454 1254 401 1246 426 1254 z m 369 213 l 369 390 l 801 390 l 801 596 l 369 596 l 369 760 l 860 760 l 860 972 l 97 972 l 97 0 l 878 0 l 878 213 z "},"Ȇ":{"ha":933,"x_min":0,"x_max":0,"o":"m 479 1143 b 590 1051 540 1143 588 1107 l 751 1051 b 479 1275 746 1189 635 1275 b 207 1051 324 1275 213 1189 l 368 1051 b 479 1143 371 1107 418 1143 z m 369 213 l 369 390 l 801 390 l 801 596 l 369 596 l 369 760 l 860 760 l 860 972 l 97 972 l 97 0 l 878 0 l 878 213 z "},"Ē":{"ha":933,"x_min":0,"x_max":0,"o":"m 753 1228 l 206 1228 l 206 1086 l 753 1086 z m 369 213 l 369 390 l 801 390 l 801 596 l 369 596 l 369 760 l 860 760 l 860 972 l 97 972 l 97 0 l 878 0 l 878 213 z "},"Ḗ":{"ha":933,"x_min":0,"x_max":0,"o":"m 753 1464 l 494 1464 l 347 1290 l 529 1290 z m 753 1204 l 206 1204 l 206 1068 l 753 1068 z m 369 213 l 369 390 l 801 390 l 801 596 l 369 596 l 369 760 l 860 760 l 860 972 l 97 972 l 97 0 l 878 0 l 878 213 z "},"Ḕ":{"ha":933,"x_min":0,"x_max":0,"o":"m 611 1290 l 464 1464 l 206 1464 l 431 1290 z m 753 1204 l 206 1204 l 206 1068 l 753 1068 z m 369 213 l 369 390 l 801 390 l 801 596 l 369 596 l 369 760 l 860 760 l 860 972 l 97 972 l 97 0 l 878 0 l 878 213 z "},"Ę":{"ha":933,"x_min":0,"x_max":0,"o":"m 878 -182 b 794 -203 857 -193 825 -203 b 718 -142 744 -203 718 -178 b 878 0 718 -94 758 -53 l 878 213 l 369 213 l 369 390 l 801 390 l 801 596 l 369 596 l 369 760 l 860 760 l 860 972 l 97 972 l 97 0 l 654 0 b 558 -165 590 -46 558 -103 b 764 -328 558 -262 633 -328 b 913 -296 819 -328 878 -314 z "},"Ẽ":{"ha":933,"x_min":0,"x_max":0,"o":"m 388 1128 b 588 1042 438 1128 489 1042 b 764 1260 694 1042 761 1129 l 635 1260 b 571 1190 632 1217 608 1190 b 371 1275 521 1190 469 1275 b 194 1054 264 1275 197 1189 l 324 1054 b 388 1128 326 1100 350 1128 z m 369 213 l 369 390 l 801 390 l 801 596 l 369 596 l 369 760 l 860 760 l 860 972 l 97 972 l 97 0 l 878 0 l 878 213 z "},"Ʒ":{"ha":897,"x_min":0,"x_max":0,"o":"m 589 583 l 803 800 l 803 972 l 72 972 l 72 760 l 482 760 l 297 572 l 297 399 l 414 399 b 578 304 528 399 578 363 b 407 201 578 239 511 201 b 119 282 310 201 201 231 l 29 76 b 417 -19 126 14 276 -19 b 856 306 722 -19 856 138 b 589 583 856 444 765 551 z "},"Ǯ":{"ha":897,"x_min":0,"x_max":0,"o":"m 549 1051 l 729 1263 l 554 1263 l 435 1157 l 315 1263 l 140 1263 l 321 1051 z m 589 583 l 803 800 l 803 972 l 72 972 l 72 760 l 482 760 l 297 572 l 297 399 l 414 399 b 578 304 528 399 578 363 b 407 201 578 239 511 201 b 119 282 310 201 201 231 l 29 76 b 417 -19 126 14 276 -19 b 856 306 722 -19 856 138 b 589 583 856 444 765 551 z "},"F":{"ha":892,"x_min":0,"x_max":0,"o":"m 860 760 l 860 972 l 97 972 l 97 0 l 372 0 l 372 333 l 801 333 l 801 546 l 372 546 l 372 760 z "},"G":{"ha":1069,"x_min":0,"x_max":0,"o":"m 749 240 b 600 208 700 218 651 208 b 325 486 436 208 325 322 b 603 764 325 654 436 764 b 839 656 696 764 772 729 l 1014 814 b 589 992 918 929 771 992 b 47 486 274 992 47 782 b 583 -19 47 190 274 -19 b 992 104 725 -19 879 24 l 992 507 l 749 507 z "},"Ğ":{"ha":1069,"x_min":0,"x_max":0,"o":"m 583 1040 b 856 1264 739 1040 850 1126 l 694 1264 b 583 1172 692 1208 644 1172 b 472 1264 522 1172 475 1208 l 311 1264 b 583 1040 317 1126 428 1040 z m 749 240 b 600 208 700 218 651 208 b 325 486 436 208 325 322 b 603 764 325 654 436 764 b 839 656 696 764 772 729 l 1014 814 b 589 992 918 929 771 992 b 47 486 274 992 47 782 b 583 -19 47 190 274 -19 b 992 104 725 -19 879 24 l 992 507 l 749 507 z "},"Ǧ":{"ha":1069,"x_min":0,"x_max":0,"o":"m 697 1053 l 878 1264 l 703 1264 l 583 1158 l 464 1264 l 289 1264 l 469 1053 z m 749 240 b 600 208 700 218 651 208 b 325 486 436 208 325 322 b 603 764 325 654 436 764 b 839 656 696 764 772 729 l 1014 814 b 589 992 918 929 771 992 b 47 486 274 992 47 782 b 583 -19 47 190 274 -19 b 992 104 725 -19 879 24 l 992 507 l 749 507 z "},"Ĝ":{"ha":1069,"x_min":0,"x_max":0,"o":"m 583 1158 l 703 1053 l 878 1053 l 697 1264 l 469 1264 l 289 1053 l 464 1053 z m 749 240 b 600 208 700 218 651 208 b 325 486 436 208 325 322 b 603 764 325 654 436 764 b 839 656 696 764 772 729 l 1014 814 b 589 992 918 929 771 992 b 47 486 274 992 47 782 b 583 -19 47 190 274 -19 b 992 104 725 -19 879 24 l 992 507 l 749 507 z "},"Ģ":{"ha":1069,"x_min":0,"x_max":0,"o":"m 749 240 b 600 208 700 218 651 208 b 325 486 436 208 325 322 b 603 764 325 654 436 764 b 839 656 696 764 772 729 l 1014 814 b 589 992 918 929 771 992 b 47 486 274 992 47 782 b 583 -19 47 190 274 -19 b 992 104 725 -19 879 24 l 992 507 l 749 507 z m 567 -86 b 457 -179 499 -86 457 -124 b 513 -262 457 -219 475 -249 l 476 -372 l 596 -372 l 647 -279 b 676 -179 672 -235 676 -204 b 567 -86 676 -124 635 -86 z "},"Ġ":{"ha":1069,"x_min":0,"x_max":0,"o":"m 583 1050 b 721 1188 664 1050 721 1107 b 583 1324 721 1267 664 1324 b 446 1188 503 1324 446 1267 b 583 1050 446 1107 503 1050 z m 749 240 b 600 208 700 218 651 208 b 325 486 436 208 325 322 b 603 764 325 654 436 764 b 839 656 696 764 772 729 l 1014 814 b 589 992 918 929 771 992 b 47 486 274 992 47 782 b 583 -19 47 190 274 -19 b 992 104 725 -19 879 24 l 992 507 l 749 507 z "},"Ḡ":{"ha":1069,"x_min":0,"x_max":0,"o":"m 857 1229 l 310 1229 l 310 1088 l 857 1088 z m 749 240 b 600 208 700 218 651 208 b 325 486 436 208 325 322 b 603 764 325 654 436 764 b 839 656 696 764 772 729 l 1014 814 b 589 992 918 929 771 992 b 47 486 274 992 47 782 b 583 -19 47 190 274 -19 b 992 104 725 -19 879 24 l 992 507 l 749 507 z "},"Ǥ":{"ha":1131,"x_min":0,"x_max":0,"o":"m 1106 446 l 992 446 l 992 507 l 749 507 l 749 446 l 543 446 l 543 279 l 749 279 l 749 240 b 600 208 700 218 651 208 b 325 486 436 208 325 322 b 603 764 325 654 436 764 b 839 656 696 764 772 729 l 1014 814 b 589 992 918 929 771 992 b 47 486 274 992 47 782 b 583 -19 47 190 274 -19 b 992 104 725 -19 879 24 l 992 279 l 1106 279 z "},"H":{"ha":1119,"x_min":0,"x_max":0,"o":"m 747 972 l 747 607 l 372 607 l 372 972 l 97 972 l 97 0 l 372 0 l 372 379 l 747 379 l 747 0 l 1022 0 l 1022 972 z "},"Ħ":{"ha":1167,"x_min":0,"x_max":0,"o":"m 1171 875 l 1046 875 l 1046 972 l 771 972 l 771 875 l 396 875 l 396 972 l 121 972 l 121 875 l -6 875 l -6 707 l 121 707 l 121 0 l 396 0 l 396 379 l 771 379 l 771 0 l 1046 0 l 1046 707 l 1171 707 z m 771 607 l 396 607 l 396 707 l 771 707 z "},"Ḫ":{"ha":1119,"x_min":0,"x_max":0,"o":"m 747 972 l 747 607 l 372 607 l 372 972 l 97 972 l 97 0 l 372 0 l 372 379 l 747 379 l 747 0 l 1022 0 l 1022 972 z m 560 -185 b 439 -99 492 -185 443 -150 l 288 -99 b 560 -307 294 -224 404 -307 b 832 -99 715 -307 825 -224 l 681 -99 b 560 -185 676 -150 628 -185 z "},"Ȟ":{"ha":1119,"x_min":0,"x_max":0,"o":"m 674 1051 l 854 1263 l 679 1263 l 560 1157 l 440 1263 l 265 1263 l 446 1051 z m 747 972 l 747 607 l 372 607 l 372 972 l 97 972 l 97 0 l 372 0 l 372 379 l 747 379 l 747 0 l 1022 0 l 1022 972 z "},"Ĥ":{"ha":1119,"x_min":0,"x_max":0,"o":"m 560 1157 l 679 1051 l 854 1051 l 674 1263 l 446 1263 l 265 1051 l 440 1051 z m 747 972 l 747 607 l 372 607 l 372 972 l 97 972 l 97 0 l 372 0 l 372 379 l 747 379 l 747 0 l 1022 0 l 1022 972 z "},"Ḥ":{"ha":1119,"x_min":0,"x_max":0,"o":"m 747 972 l 747 607 l 372 607 l 372 972 l 97 972 l 97 0 l 372 0 l 372 379 l 747 379 l 747 0 l 1022 0 l 1022 972 z m 560 -86 b 450 -196 497 -86 450 -131 b 560 -303 450 -261 497 -303 b 669 -196 622 -303 669 -261 b 560 -86 669 -131 622 -86 z "},"I":{"ha":471,"x_min":0,"x_max":0,"o":"m 97 0 l 372 0 l 372 972 l 97 972 z "},"Ĳ":{"ha":1010,"x_min":0,"x_max":0,"o":"m 456 -19 b 919 444 735 -19 919 143 l 919 972 l 644 972 l 644 429 b 446 204 644 275 579 204 b 165 293 357 204 254 235 l 65 93 b 456 -19 161 25 299 -19 z m 89 457 l 364 457 l 364 972 l 89 972 z "},"Í":{"ha":471,"x_min":0,"x_max":0,"o":"m 99 1051 l 288 1051 l 549 1263 l 285 1263 z m 97 0 l 372 0 l 372 972 l 97 972 z "},"Ĭ":{"ha":471,"x_min":0,"x_max":0,"o":"m 235 1039 b 507 1263 390 1039 501 1125 l 346 1263 b 235 1171 343 1207 296 1171 b 124 1263 174 1171 126 1207 l -37 1263 b 235 1039 -32 1125 79 1039 z m 97 0 l 372 0 l 372 972 l 97 972 z "},"Î":{"ha":471,"x_min":0,"x_max":0,"o":"m 235 1157 l 354 1051 l 529 1051 l 349 1263 l 121 1263 l -60 1051 l 115 1051 z m 97 0 l 372 0 l 372 972 l 97 972 z "},"Ȉ":{"ha":471,"x_min":0,"x_max":0,"o":"m -8 1051 l 175 1051 l 89 1263 l -147 1263 z m 294 1051 l 478 1051 l 390 1263 l 154 1263 z m 97 0 l 372 0 l 372 972 l 97 972 z "},"Ï":{"ha":471,"x_min":0,"x_max":0,"o":"m 88 1050 b 197 1158 150 1050 197 1093 b 88 1268 197 1224 150 1268 b -22 1158 25 1268 -22 1224 b 88 1050 -22 1093 25 1050 z m 382 1050 b 492 1158 444 1050 492 1093 b 382 1268 492 1224 444 1268 b 272 1158 319 1268 272 1224 b 382 1050 272 1093 319 1050 z m 97 0 l 372 0 l 372 972 l 97 972 z "},"Ḯ":{"ha":471,"x_min":0,"x_max":0,"o":"m 103 1289 l 285 1289 l 508 1463 l 250 1463 z m 93 1049 b 199 1151 153 1049 199 1090 b 93 1256 199 1213 153 1256 b -11 1151 35 1256 -11 1213 b 93 1049 -11 1090 35 1049 z m 376 1049 b 481 1151 435 1049 481 1090 b 376 1256 481 1213 435 1256 b 272 1151 318 1256 272 1213 b 376 1049 272 1090 318 1049 z m 97 0 l 372 0 l 372 972 l 97 972 z "},"İ":{"ha":471,"x_min":0,"x_max":0,"o":"m 235 1049 b 372 1186 315 1049 372 1106 b 235 1322 372 1265 315 1322 b 97 1186 154 1322 97 1265 b 235 1049 97 1106 154 1049 z m 97 0 l 372 0 l 372 972 l 97 972 z "},"Ị":{"ha":471,"x_min":0,"x_max":0,"o":"m 97 0 l 372 0 l 372 972 l 97 972 z m 235 -303 b 344 -196 297 -303 344 -261 b 235 -86 344 -131 297 -86 b 125 -196 172 -86 125 -131 b 235 -303 125 -261 172 -303 z "},"Ì":{"ha":471,"x_min":0,"x_max":0,"o":"m 182 1051 l 371 1051 l 185 1263 l -79 1263 z m 97 0 l 372 0 l 372 972 l 97 972 z "},"Ỉ":{"ha":471,"x_min":0,"x_max":0,"o":"m 285 1038 b 421 1221 374 1078 421 1136 b 239 1381 421 1315 347 1381 b 75 1329 179 1381 119 1364 l 129 1226 b 210 1254 157 1246 182 1254 b 272 1199 247 1254 272 1233 b 204 1118 272 1169 257 1143 z m 97 0 l 372 0 l 372 972 l 97 972 z "},"Ȋ":{"ha":471,"x_min":0,"x_max":0,"o":"m -37 1051 l 124 1051 b 235 1143 126 1107 174 1143 b 346 1051 296 1143 343 1107 l 507 1051 b 235 1275 501 1189 390 1275 b -37 1051 79 1275 -32 1189 z m 97 0 l 372 0 l 372 972 l 97 972 z "},"Ī":{"ha":471,"x_min":0,"x_max":0,"o":"m 13 1085 l 457 1085 l 457 1226 l 13 1226 z m 97 0 l 372 0 l 372 972 l 97 972 z "},"Į":{"ha":471,"x_min":0,"x_max":0,"o":"m 379 -187 b 335 -203 365 -197 350 -203 b 279 -140 304 -203 279 -178 b 372 0 279 -94 301 -51 l 372 972 l 97 972 l 97 0 l 197 0 b 118 -164 146 -46 118 -103 b 301 -328 118 -262 192 -328 b 411 -297 344 -328 385 -315 z "},"Ĩ":{"ha":471,"x_min":0,"x_max":0,"o":"m 343 1042 b 519 1260 450 1042 517 1129 l 390 1260 b 326 1190 388 1217 364 1190 b 126 1275 276 1190 225 1275 b -50 1054 19 1275 -47 1189 l 79 1054 b 143 1128 82 1100 106 1128 b 343 1042 193 1128 244 1042 z m 97 0 l 372 0 l 372 972 l 97 972 z "},"J":{"ha":774,"x_min":0,"x_max":0,"o":"m 310 -19 b 685 358 554 -19 685 106 l 685 972 l 76 972 l 76 760 l 413 760 l 413 342 b 290 200 413 249 369 200 b 122 301 228 200 174 235 l -28 124 b 310 -19 47 31 168 -19 z "},"Ĵ":{"ha":774,"x_min":0,"x_max":0,"o":"m 381 1157 l 500 1051 l 675 1051 l 494 1263 l 267 1263 l 86 1051 l 261 1051 z m 76 972 l 76 760 l 413 760 l 413 342 b 290 200 413 249 369 200 b 122 301 228 200 174 235 l -28 124 b 310 -19 47 31 168 -19 b 685 358 554 -19 685 106 l 685 972 z "},"K":{"ha":1044,"x_min":0,"x_max":0,"o":"m 750 0 l 1069 0 l 651 542 l 1049 972 l 746 972 l 369 568 l 369 972 l 97 972 l 97 0 l 369 0 l 369 243 l 472 353 z "},"Ǩ":{"ha":1044,"x_min":0,"x_max":0,"o":"m 644 1051 l 825 1263 l 650 1263 l 531 1157 l 411 1263 l 236 1263 l 417 1051 z m 750 0 l 1069 0 l 651 542 l 1049 972 l 746 972 l 369 568 l 369 972 l 97 972 l 97 0 l 369 0 l 369 243 l 472 353 z "},"Ķ":{"ha":1044,"x_min":0,"x_max":0,"o":"m 651 542 l 1049 972 l 746 972 l 369 568 l 369 972 l 97 972 l 97 0 l 369 0 l 369 243 l 472 353 l 750 0 l 1069 0 z m 531 -86 b 421 -179 463 -86 421 -124 b 476 -262 421 -219 439 -249 l 440 -372 l 560 -372 l 611 -279 b 640 -179 636 -235 640 -204 b 531 -86 640 -124 599 -86 z "},"L":{"ha":847,"x_min":0,"x_max":0,"o":"m 97 0 l 836 0 l 836 218 l 372 218 l 372 972 l 97 972 z "},"Ǉ":{"ha":1621,"x_min":0,"x_max":0,"o":"m 924 972 l 924 760 l 1260 760 l 1260 342 b 1138 200 1260 249 1217 200 b 969 301 1075 200 1021 235 l 836 143 l 836 218 l 372 218 l 372 972 l 97 972 l 97 0 l 836 0 l 836 104 b 1157 -19 911 24 1025 -19 b 1532 358 1401 -19 1532 106 l 1532 972 z "},"Ĺ":{"ha":847,"x_min":0,"x_max":0,"o":"m 99 1051 l 288 1051 l 549 1263 l 285 1263 z m 97 0 l 836 0 l 836 218 l 372 218 l 372 972 l 97 972 z "},"Ľ":{"ha":847,"x_min":0,"x_max":0,"o":"m 593 750 l 749 750 l 783 1035 l 593 1035 z m 97 0 l 836 0 l 836 218 l 372 218 l 372 972 l 97 972 z "},"Ļ":{"ha":847,"x_min":0,"x_max":0,"o":"m 372 218 l 372 972 l 97 972 l 97 0 l 836 0 l 836 218 z m 483 -86 b 374 -179 415 -86 374 -124 b 429 -262 374 -219 392 -249 l 393 -372 l 513 -372 l 564 -279 b 593 -179 589 -235 593 -204 b 483 -86 593 -124 551 -86 z "},"Ŀ":{"ha":847,"x_min":0,"x_max":0,"o":"m 97 0 l 836 0 l 836 218 l 372 218 l 372 972 l 97 972 z m 660 456 b 797 594 740 456 797 513 b 660 733 797 675 740 733 b 522 594 579 733 522 675 b 660 456 522 513 579 456 z "},"Ḷ":{"ha":847,"x_min":0,"x_max":0,"o":"m 97 0 l 836 0 l 836 218 l 372 218 l 372 972 l 97 972 z m 483 -303 b 593 -196 546 -303 593 -261 b 483 -86 593 -131 546 -86 b 374 -196 421 -86 374 -131 b 483 -303 374 -261 421 -303 z "},"ǈ":{"ha":1292,"x_min":0,"x_max":0,"o":"m 1075 836 b 1236 981 1172 836 1236 897 b 1075 1117 1236 1060 1172 1117 b 914 976 978 1117 914 1056 b 1075 836 914 897 978 836 z m 97 0 l 836 0 l 836 218 l 372 218 l 372 972 l 97 972 z m 900 -282 b 1207 19 1094 -282 1207 -164 l 1207 753 l 943 753 l 943 21 b 865 -78 943 -47 911 -78 b 783 -56 835 -78 806 -69 l 717 -243 b 900 -282 763 -269 831 -282 z "},"Ḻ":{"ha":847,"x_min":0,"x_max":0,"o":"m 97 0 l 836 0 l 836 218 l 372 218 l 372 972 l 97 972 z m 210 -260 l 757 -260 l 757 -118 l 210 -118 z "},"Ł":{"ha":871,"x_min":0,"x_max":0,"o":"m 396 218 l 396 553 l 624 722 l 535 846 l 396 742 l 396 972 l 121 972 l 121 536 l -33 421 l 56 299 l 121 347 l 121 0 l 860 0 l 860 218 z "},"M":{"ha":1325,"x_min":0,"x_max":0,"o":"m 1228 0 l 1225 972 l 999 972 l 665 411 l 324 972 l 97 972 l 97 0 l 351 0 l 351 501 l 600 96 l 722 96 l 972 515 l 975 0 z "},"Ṃ":{"ha":1325,"x_min":0,"x_max":0,"o":"m 1228 0 l 1225 972 l 999 972 l 665 411 l 324 972 l 97 972 l 97 0 l 351 0 l 351 501 l 600 96 l 722 96 l 972 515 l 975 0 z m 661 -86 b 551 -196 599 -86 551 -131 b 661 -303 551 -261 599 -303 b 771 -196 724 -303 771 -261 b 661 -86 771 -131 724 -86 z "},"N":{"ha":1119,"x_min":0,"x_max":0,"o":"m 753 972 l 753 454 l 324 972 l 97 972 l 97 0 l 367 0 l 367 518 l 796 0 l 1022 0 l 1022 972 z "},"Ǌ":{"ha":1893,"x_min":0,"x_max":0,"o":"m 753 454 l 324 972 l 97 972 l 97 0 l 367 0 l 367 518 l 796 0 l 1022 0 l 1022 972 l 753 972 z m 1196 972 l 1196 760 l 1532 760 l 1532 342 b 1410 200 1532 249 1489 200 b 1242 301 1347 200 1293 235 l 1092 124 b 1429 -19 1167 31 1288 -19 b 1804 358 1674 -19 1804 106 l 1804 972 z "},"Ń":{"ha":1119,"x_min":0,"x_max":0,"o":"m 874 1263 l 610 1263 l 424 1051 l 613 1051 z m 753 972 l 753 454 l 324 972 l 97 972 l 97 0 l 367 0 l 367 518 l 796 0 l 1022 0 l 1022 972 z "},"Ň":{"ha":1119,"x_min":0,"x_max":0,"o":"m 674 1051 l 854 1263 l 679 1263 l 560 1157 l 440 1263 l 265 1263 l 446 1051 z m 753 972 l 753 454 l 324 972 l 97 972 l 97 0 l 367 0 l 367 518 l 796 0 l 1022 0 l 1022 972 z "},"Ņ":{"ha":1119,"x_min":0,"x_max":0,"o":"m 753 972 l 753 454 l 324 972 l 97 972 l 97 0 l 367 0 l 367 518 l 796 0 l 1022 0 l 1022 972 z m 560 -86 b 450 -179 492 -86 450 -124 b 506 -262 450 -219 468 -249 l 469 -372 l 589 -372 l 640 -279 b 669 -179 665 -235 669 -204 b 560 -86 669 -124 628 -86 z "},"Ṅ":{"ha":1119,"x_min":0,"x_max":0,"o":"m 560 1049 b 697 1186 640 1049 697 1106 b 560 1322 697 1265 640 1322 b 422 1186 479 1322 422 1265 b 560 1049 422 1106 479 1049 z m 753 972 l 753 454 l 324 972 l 97 972 l 97 0 l 367 0 l 367 518 l 796 0 l 1022 0 l 1022 972 z "},"Ṇ":{"ha":1119,"x_min":0,"x_max":0,"o":"m 753 972 l 753 454 l 324 972 l 97 972 l 97 0 l 367 0 l 367 518 l 796 0 l 1022 0 l 1022 972 z m 560 -86 b 450 -196 497 -86 450 -131 b 560 -303 450 -261 497 -303 b 669 -196 622 -303 669 -261 b 560 -86 669 -131 622 -86 z "},"Ŋ":{"ha":1119,"x_min":0,"x_max":0,"o":"m 753 972 l 753 454 l 324 972 l 97 972 l 97 0 l 367 0 l 367 518 l 751 53 b 632 -62 744 -24 704 -62 b 511 -14 586 -62 547 -44 l 385 -200 b 651 -282 456 -256 547 -282 b 1022 119 894 -282 1022 -157 l 1022 972 z "},"ǋ":{"ha":1564,"x_min":0,"x_max":0,"o":"m 1347 836 b 1508 981 1444 836 1508 897 b 1347 1117 1508 1060 1444 1117 b 1186 976 1250 1117 1186 1056 b 1347 836 1186 897 1250 836 z m 1022 0 l 1022 972 l 753 972 l 753 454 l 324 972 l 97 972 l 97 0 l 367 0 l 367 518 l 796 0 z m 1215 21 b 1138 -78 1215 -47 1183 -78 b 1056 -56 1107 -78 1078 -69 l 989 -243 b 1172 -282 1035 -269 1103 -282 b 1479 19 1367 -282 1479 -164 l 1479 753 l 1215 753 z "},"Ṉ":{"ha":1119,"x_min":0,"x_max":0,"o":"m 753 972 l 753 454 l 324 972 l 97 972 l 97 0 l 367 0 l 367 518 l 796 0 l 1022 0 l 1022 972 z m 286 -260 l 833 -260 l 833 -118 l 286 -118 z "},"Ñ":{"ha":1119,"x_min":0,"x_max":0,"o":"m 468 1128 b 668 1042 518 1128 569 1042 b 844 1260 775 1042 842 1129 l 715 1260 b 651 1190 713 1217 689 1190 b 451 1275 601 1190 550 1275 b 275 1054 344 1275 278 1189 l 404 1054 b 468 1128 407 1100 431 1128 z m 753 972 l 753 454 l 324 972 l 97 972 l 97 0 l 367 0 l 367 518 l 796 0 l 1022 0 l 1022 972 z "},"O":{"ha":1175,"x_min":0,"x_max":0,"o":"m 588 -19 b 1128 486 899 -19 1128 194 b 588 992 1128 778 899 992 b 47 486 276 992 47 778 b 588 -19 47 194 276 -19 z m 588 208 b 325 486 440 208 325 318 b 588 764 325 654 440 764 b 850 486 735 764 850 654 b 588 208 850 318 735 208 z "},"Ó":{"ha":1175,"x_min":0,"x_max":0,"o":"m 451 1051 l 640 1051 l 901 1263 l 638 1263 z m 588 -19 b 1128 486 899 -19 1128 194 b 588 992 1128 778 899 992 b 47 486 276 992 47 778 b 588 -19 47 194 276 -19 z m 588 208 b 325 486 440 208 325 318 b 588 764 325 654 440 764 b 850 486 735 764 850 654 b 588 208 850 318 735 208 z "},"Ŏ":{"ha":1175,"x_min":0,"x_max":0,"o":"m 588 1039 b 860 1263 743 1039 854 1125 l 699 1263 b 588 1171 696 1207 649 1171 b 476 1263 526 1171 479 1207 l 315 1263 b 588 1039 321 1125 432 1039 z m 588 -19 b 1128 486 899 -19 1128 194 b 588 992 1128 778 899 992 b 47 486 276 992 47 778 b 588 -19 47 194 276 -19 z m 588 208 b 325 486 440 208 325 318 b 588 764 325 654 440 764 b 850 486 735 764 850 654 b 588 208 850 318 735 208 z "},"Ô":{"ha":1175,"x_min":0,"x_max":0,"o":"m 588 1157 l 707 1051 l 882 1051 l 701 1263 l 474 1263 l 293 1051 l 468 1051 z m 588 992 b 47 486 276 992 47 778 b 588 -19 47 194 276 -19 b 1128 486 899 -19 1128 194 b 588 992 1128 778 899 992 z m 588 208 b 325 486 440 208 325 318 b 588 764 325 654 440 764 b 850 486 735 764 850 654 b 588 208 850 318 735 208 z "},"Ố":{"ha":1175,"x_min":0,"x_max":0,"o":"m 1176 1364 l 918 1364 l 771 1190 l 953 1190 z m 588 1133 l 706 1051 l 882 1051 l 700 1221 l 475 1221 l 293 1051 l 469 1051 z m 588 992 b 47 486 276 992 47 778 b 588 -19 47 194 276 -19 b 1128 486 899 -19 1128 194 b 588 992 1128 778 899 992 z m 588 208 b 325 486 440 208 325 318 b 588 764 325 654 440 764 b 850 486 735 764 850 654 b 588 208 850 318 735 208 z "},"Ộ":{"ha":1175,"x_min":0,"x_max":0,"o":"m 588 1157 l 707 1051 l 882 1051 l 701 1263 l 474 1263 l 293 1051 l 468 1051 z m 588 992 b 47 486 276 992 47 778 b 588 -19 47 194 276 -19 b 1128 486 899 -19 1128 194 b 588 992 1128 778 899 992 z m 588 208 b 325 486 440 208 325 318 b 588 764 325 654 440 764 b 850 486 735 764 850 654 b 588 208 850 318 735 208 z m 588 -86 b 478 -196 525 -86 478 -131 b 588 -303 478 -261 525 -303 b 697 -196 650 -303 697 -261 b 588 -86 697 -131 650 -86 z "},"Ồ":{"ha":1175,"x_min":0,"x_max":0,"o":"m 1035 1190 l 888 1364 l 629 1364 l 854 1190 z m 588 1133 l 706 1051 l 882 1051 l 700 1221 l 475 1221 l 293 1051 l 469 1051 z m 588 992 b 47 486 276 992 47 778 b 588 -19 47 194 276 -19 b 1128 486 899 -19 1128 194 b 588 992 1128 778 899 992 z m 588 208 b 325 486 440 208 325 318 b 588 764 325 654 440 764 b 850 486 735 764 850 654 b 588 208 850 318 735 208 z "},"Ổ":{"ha":1175,"x_min":0,"x_max":0,"o":"m 803 1313 b 847 1275 828 1313 847 1297 b 797 1219 847 1258 835 1239 l 860 1163 b 963 1289 915 1185 963 1229 b 825 1404 963 1360 908 1404 b 699 1371 779 1404 733 1393 l 740 1296 b 803 1313 763 1307 781 1313 z m 588 1133 l 706 1051 l 882 1051 l 700 1221 l 475 1221 l 293 1051 l 469 1051 z m 588 992 b 47 486 276 992 47 778 b 588 -19 47 194 276 -19 b 1128 486 899 -19 1128 194 b 588 992 1128 778 899 992 z m 588 208 b 325 486 440 208 325 318 b 588 764 325 654 440 764 b 850 486 735 764 850 654 b 588 208 850 318 735 208 z "},"Ỗ":{"ha":1175,"x_min":0,"x_max":0,"o":"m 500 1340 b 692 1269 543 1340 593 1269 b 867 1458 803 1269 865 1342 l 739 1458 b 678 1399 736 1425 714 1399 b 485 1469 633 1399 581 1469 b 308 1281 376 1469 310 1401 l 440 1281 b 500 1340 443 1317 465 1340 z m 588 1133 l 706 1051 l 882 1051 l 700 1221 l 475 1221 l 293 1051 l 469 1051 z m 588 992 b 47 486 276 992 47 778 b 588 -19 47 194 276 -19 b 1128 486 899 -19 1128 194 b 588 992 1128 778 899 992 z m 588 208 b 325 486 440 208 325 318 b 588 764 325 654 440 764 b 850 486 735 764 850 654 b 588 208 850 318 735 208 z "},"Ȍ":{"ha":1175,"x_min":0,"x_max":0,"o":"m 344 1051 l 528 1051 l 442 1263 l 206 1263 z m 647 1051 l 831 1051 l 743 1263 l 507 1263 z m 588 -19 b 1128 486 899 -19 1128 194 b 588 992 1128 778 899 992 b 47 486 276 992 47 778 b 588 -19 47 194 276 -19 z m 588 208 b 325 486 440 208 325 318 b 588 764 325 654 440 764 b 850 486 735 764 850 654 b 588 208 850 318 735 208 z "},"Ö":{"ha":1175,"x_min":0,"x_max":0,"o":"m 440 1050 b 550 1158 503 1050 550 1093 b 440 1268 550 1224 503 1268 b 331 1158 378 1268 331 1224 b 440 1050 331 1093 378 1050 z m 735 1050 b 844 1158 797 1050 844 1093 b 735 1268 844 1224 797 1268 b 625 1158 672 1268 625 1224 b 735 1050 625 1093 672 1050 z m 588 -19 b 1128 486 899 -19 1128 194 b 588 992 1128 778 899 992 b 47 486 276 992 47 778 b 588 -19 47 194 276 -19 z m 588 208 b 325 486 440 208 325 318 b 588 764 325 654 440 764 b 850 486 735 764 850 654 b 588 208 850 318 735 208 z "},"Ȫ":{"ha":1175,"x_min":0,"x_max":0,"o":"m 314 1307 l 861 1307 l 861 1443 l 314 1443 z m 446 1050 b 551 1153 506 1050 551 1092 b 446 1257 551 1214 506 1257 b 342 1153 388 1257 342 1214 b 446 1050 342 1092 388 1050 z m 729 1050 b 833 1153 788 1050 833 1092 b 729 1257 833 1214 788 1257 b 625 1153 671 1257 625 1214 b 729 1050 625 1092 671 1050 z m 588 -19 b 1128 486 899 -19 1128 194 b 588 992 1128 778 899 992 b 47 486 276 992 47 778 b 588 -19 47 194 276 -19 z m 588 208 b 325 486 440 208 325 318 b 588 764 325 654 440 764 b 850 486 735 764 850 654 b 588 208 850 318 735 208 z "},"Ȱ":{"ha":1175,"x_min":0,"x_max":0,"o":"m 314 1318 l 861 1318 l 861 1454 l 314 1454 z m 588 1047 b 697 1156 650 1047 697 1090 b 588 1264 697 1219 650 1264 b 478 1156 525 1264 478 1219 b 588 1047 478 1090 525 1047 z m 588 -19 b 1128 486 899 -19 1128 194 b 588 992 1128 778 899 992 b 47 486 276 992 47 778 b 588 -19 47 194 276 -19 z m 588 208 b 325 486 440 208 325 318 b 588 764 325 654 440 764 b 850 486 735 764 850 654 b 588 208 850 318 735 208 z "},"Ọ":{"ha":1175,"x_min":0,"x_max":0,"o":"m 588 -19 b 1128 486 899 -19 1128 194 b 588 992 1128 778 899 992 b 47 486 276 992 47 778 b 588 -19 47 194 276 -19 z m 588 208 b 325 486 440 208 325 318 b 588 764 325 654 440 764 b 850 486 735 764 850 654 b 588 208 850 318 735 208 z m 588 -303 b 697 -196 650 -303 697 -261 b 588 -86 697 -131 650 -86 b 478 -196 525 -86 478 -131 b 588 -303 478 -261 525 -303 z "},"Ò":{"ha":1175,"x_min":0,"x_max":0,"o":"m 535 1051 l 724 1051 l 538 1263 l 274 1263 z m 588 -19 b 1128 486 899 -19 1128 194 b 588 992 1128 778 899 992 b 47 486 276 992 47 778 b 588 -19 47 194 276 -19 z m 588 208 b 325 486 440 208 325 318 b 588 764 325 654 440 764 b 850 486 735 764 850 654 b 588 208 850 318 735 208 z "},"Ỏ":{"ha":1175,"x_min":0,"x_max":0,"o":"m 638 1038 b 774 1221 726 1078 774 1136 b 592 1381 774 1315 700 1381 b 428 1329 532 1381 472 1364 l 482 1226 b 563 1254 510 1246 535 1254 b 625 1199 600 1254 625 1233 b 557 1118 625 1169 610 1143 z m 588 -19 b 1128 486 899 -19 1128 194 b 588 992 1128 778 899 992 b 47 486 276 992 47 778 b 588 -19 47 194 276 -19 z m 588 208 b 325 486 440 208 325 318 b 588 764 325 654 440 764 b 850 486 735 764 850 654 b 588 208 850 318 735 208 z "},"Ơ":{"ha":1175,"x_min":0,"x_max":0,"o":"m 976 840 b 1124 1049 1068 872 1124 943 b 1075 1194 1124 1107 1104 1156 l 924 1140 b 951 1060 939 1119 951 1090 b 847 974 951 1003 911 974 b 599 992 785 974 701 992 b 47 486 276 992 47 778 b 588 -19 47 194 276 -19 b 1128 486 899 -19 1128 194 b 976 840 1128 632 1069 756 z m 588 208 b 325 486 440 208 325 318 b 588 764 325 654 440 764 b 850 486 735 764 850 654 b 588 208 850 318 735 208 z "},"Ớ":{"ha":1175,"x_min":0,"x_max":0,"o":"m 901 1263 l 638 1263 l 451 1051 l 640 1051 z m 976 840 b 1124 1049 1068 872 1124 943 b 1075 1194 1124 1107 1104 1156 l 924 1140 b 951 1060 939 1119 951 1090 b 847 974 951 1003 911 974 b 599 992 785 974 701 992 b 47 486 276 992 47 778 b 588 -19 47 194 276 -19 b 1128 486 899 -19 1128 194 b 976 840 1128 632 1069 756 z m 588 208 b 325 486 440 208 325 318 b 588 764 325 654 440 764 b 850 486 735 764 850 654 b 588 208 850 318 735 208 z "},"Ợ":{"ha":1175,"x_min":0,"x_max":0,"o":"m 976 840 b 1124 1049 1068 872 1124 943 b 1075 1194 1124 1107 1104 1156 l 924 1140 b 951 1060 939 1119 951 1090 b 847 974 951 1003 911 974 b 599 992 785 974 701 992 b 47 486 276 992 47 778 b 588 -19 47 194 276 -19 b 1128 486 899 -19 1128 194 b 976 840 1128 632 1069 756 z m 588 208 b 325 486 440 208 325 318 b 588 764 325 654 440 764 b 850 486 735 764 850 654 b 588 208 850 318 735 208 z m 588 -86 b 478 -196 525 -86 478 -131 b 588 -303 478 -261 525 -303 b 697 -196 650 -303 697 -261 b 588 -86 697 -131 650 -86 z "},"Ờ":{"ha":1175,"x_min":0,"x_max":0,"o":"m 724 1051 l 538 1263 l 274 1263 l 535 1051 z m 976 840 b 1124 1049 1068 872 1124 943 b 1075 1194 1124 1107 1104 1156 l 924 1140 b 951 1060 939 1119 951 1090 b 847 974 951 1003 911 974 b 599 992 785 974 701 992 b 47 486 276 992 47 778 b 588 -19 47 194 276 -19 b 1128 486 899 -19 1128 194 b 976 840 1128 632 1069 756 z m 588 208 b 325 486 440 208 325 318 b 588 764 325 654 440 764 b 850 486 735 764 850 654 b 588 208 850 318 735 208 z "},"Ở":{"ha":1175,"x_min":0,"x_max":0,"o":"m 563 1254 b 625 1199 600 1254 625 1233 b 557 1118 625 1169 610 1143 l 638 1038 b 774 1221 726 1078 774 1136 b 592 1381 774 1315 700 1381 b 428 1329 532 1381 472 1364 l 482 1226 b 563 1254 510 1246 535 1254 z m 976 840 b 1124 1049 1068 872 1124 943 b 1075 1194 1124 1107 1104 1156 l 924 1140 b 951 1060 939 1119 951 1090 b 847 974 951 1003 911 974 b 599 992 785 974 701 992 b 47 486 276 992 47 778 b 588 -19 47 194 276 -19 b 1128 486 899 -19 1128 194 b 976 840 1128 632 1069 756 z m 588 208 b 325 486 440 208 325 318 b 588 764 325 654 440 764 b 850 486 735 764 850 654 b 588 208 850 318 735 208 z "},"Ỡ":{"ha":1175,"x_min":0,"x_max":0,"o":"m 496 1128 b 696 1042 546 1128 597 1042 b 872 1260 803 1042 869 1129 l 743 1260 b 679 1190 740 1217 717 1190 b 479 1275 629 1190 578 1275 b 303 1054 372 1275 306 1189 l 432 1054 b 496 1128 435 1100 458 1128 z m 976 840 b 1124 1049 1068 872 1124 943 b 1075 1194 1124 1107 1104 1156 l 924 1140 b 951 1060 939 1119 951 1090 b 847 974 951 1003 911 974 b 599 992 785 974 701 992 b 47 486 276 992 47 778 b 588 -19 47 194 276 -19 b 1128 486 899 -19 1128 194 b 976 840 1128 632 1069 756 z m 588 208 b 325 486 440 208 325 318 b 588 764 325 654 440 764 b 850 486 735 764 850 654 b 588 208 850 318 735 208 z "},"Ő":{"ha":1175,"x_min":0,"x_max":0,"o":"m 344 1051 l 528 1051 l 668 1263 l 432 1263 z m 647 1051 l 831 1051 l 969 1263 l 733 1263 z m 588 -19 b 1128 486 899 -19 1128 194 b 588 992 1128 778 899 992 b 47 486 276 992 47 778 b 588 -19 47 194 276 -19 z m 588 208 b 325 486 440 208 325 318 b 588 764 325 654 440 764 b 850 486 735 764 850 654 b 588 208 850 318 735 208 z "},"Ȏ":{"ha":1175,"x_min":0,"x_max":0,"o":"m 315 1051 l 476 1051 b 588 1143 479 1107 526 1143 b 699 1051 649 1143 696 1107 l 860 1051 b 588 1275 854 1189 743 1275 b 315 1051 432 1275 321 1189 z m 588 -19 b 1128 486 899 -19 1128 194 b 588 992 1128 778 899 992 b 47 486 276 992 47 778 b 588 -19 47 194 276 -19 z m 588 208 b 325 486 440 208 325 318 b 588 764 325 654 440 764 b 850 486 735 764 850 654 b 588 208 850 318 735 208 z "},"Ō":{"ha":1175,"x_min":0,"x_max":0,"o":"m 314 1086 l 861 1086 l 861 1228 l 314 1228 z m 588 -19 b 1128 486 899 -19 1128 194 b 588 992 1128 778 899 992 b 47 486 276 992 47 778 b 588 -19 47 194 276 -19 z m 588 208 b 325 486 440 208 325 318 b 588 764 325 654 440 764 b 850 486 735 764 850 654 b 588 208 850 318 735 208 z "},"Ṓ":{"ha":1175,"x_min":0,"x_max":0,"o":"m 456 1290 l 638 1290 l 861 1464 l 603 1464 z m 314 1068 l 861 1068 l 861 1204 l 314 1204 z m 588 -19 b 1128 486 899 -19 1128 194 b 588 992 1128 778 899 992 b 47 486 276 992 47 778 b 588 -19 47 194 276 -19 z m 588 208 b 325 486 440 208 325 318 b 588 764 325 654 440 764 b 850 486 735 764 850 654 b 588 208 850 318 735 208 z "},"Ṑ":{"ha":1175,"x_min":0,"x_max":0,"o":"m 539 1290 l 719 1290 l 572 1464 l 314 1464 z m 314 1068 l 861 1068 l 861 1204 l 314 1204 z m 588 -19 b 1128 486 899 -19 1128 194 b 588 992 1128 778 899 992 b 47 486 276 992 47 778 b 588 -19 47 194 276 -19 z m 588 208 b 325 486 440 208 325 318 b 588 764 325 654 440 764 b 850 486 735 764 850 654 b 588 208 850 318 735 208 z "},"Ǫ":{"ha":1175,"x_min":0,"x_max":0,"o":"m 768 7 b 1128 486 972 71 1128 244 b 588 992 1128 778 899 992 b 47 486 276 992 47 778 b 499 -14 47 224 233 24 b 421 -165 447 -57 421 -108 b 626 -328 421 -262 496 -328 b 774 -296 682 -328 740 -314 l 740 -182 b 657 -203 718 -193 688 -203 b 581 -142 607 -203 581 -178 b 768 7 581 -89 632 -36 z m 325 486 b 588 764 325 654 440 764 b 850 486 735 764 850 654 b 588 208 850 318 735 208 b 325 486 440 208 325 318 z "},"Ø":{"ha":1175,"x_min":0,"x_max":0,"o":"m 944 874 l 1083 1069 l 921 1069 l 831 943 b 588 992 758 974 676 992 b 47 486 276 992 47 778 b 231 99 47 326 117 189 l 92 -97 l 254 -97 l 344 29 b 588 -19 417 -1 499 -19 b 1128 486 899 -19 1128 194 b 944 874 1128 646 1058 783 z m 325 486 b 588 764 325 654 440 764 b 690 744 624 764 658 757 l 381 308 b 325 486 346 356 325 415 z m 588 208 b 485 228 551 208 517 215 l 794 664 b 850 486 829 617 850 557 b 588 208 850 318 735 208 z "},"Ǿ":{"ha":1175,"x_min":0,"x_max":0,"o":"m 901 1263 l 638 1263 l 451 1051 l 640 1051 z m 944 874 l 1083 1069 l 921 1069 l 831 943 b 588 992 758 974 676 992 b 47 486 276 992 47 778 b 231 99 47 326 117 189 l 92 -97 l 254 -97 l 344 29 b 588 -19 417 -1 499 -19 b 1128 486 899 -19 1128 194 b 944 874 1128 646 1058 783 z m 325 486 b 588 764 325 654 440 764 b 690 744 624 764 658 757 l 381 308 b 325 486 346 356 325 415 z m 588 208 b 485 228 551 208 517 215 l 794 664 b 850 486 829 617 850 557 b 588 208 850 318 735 208 z "},"Õ":{"ha":1175,"x_min":0,"x_max":0,"o":"m 696 1042 b 872 1260 803 1042 869 1129 l 743 1260 b 679 1190 740 1217 717 1190 b 479 1275 629 1190 578 1275 b 303 1054 372 1275 306 1189 l 432 1054 b 496 1128 435 1100 458 1128 b 696 1042 546 1128 597 1042 z m 588 -19 b 1128 486 899 -19 1128 194 b 588 992 1128 778 899 992 b 47 486 276 992 47 778 b 588 -19 47 194 276 -19 z m 588 208 b 325 486 440 208 325 318 b 588 764 325 654 440 764 b 850 486 735 764 850 654 b 588 208 850 318 735 208 z "},"Ṍ":{"ha":1175,"x_min":0,"x_max":0,"o":"m 456 1290 l 638 1290 l 861 1464 l 603 1464 z m 692 1043 b 867 1232 803 1043 865 1115 l 739 1232 b 678 1172 736 1199 714 1172 b 485 1243 633 1172 581 1243 b 308 1054 376 1243 310 1175 l 440 1054 b 500 1114 443 1090 465 1114 b 692 1043 543 1114 593 1043 z m 588 -19 b 1128 486 899 -19 1128 194 b 588 992 1128 778 899 992 b 47 486 276 992 47 778 b 588 -19 47 194 276 -19 z m 588 208 b 325 486 440 208 325 318 b 588 764 325 654 440 764 b 850 486 735 764 850 654 b 588 208 850 318 735 208 z "},"Ṏ":{"ha":1175,"x_min":0,"x_max":0,"o":"m 446 1289 b 551 1392 506 1289 551 1331 b 446 1496 551 1453 506 1496 b 342 1392 388 1496 342 1453 b 446 1289 342 1331 388 1289 z m 729 1289 b 833 1392 788 1289 833 1331 b 729 1496 833 1453 788 1496 b 625 1392 671 1496 625 1453 b 729 1289 625 1331 671 1289 z m 692 1043 b 867 1232 803 1043 865 1115 l 739 1232 b 678 1172 736 1199 714 1172 b 485 1243 633 1172 581 1243 b 308 1054 376 1243 310 1175 l 440 1054 b 500 1114 443 1090 465 1114 b 692 1043 543 1114 593 1043 z m 588 -19 b 1128 486 899 -19 1128 194 b 588 992 1128 778 899 992 b 47 486 276 992 47 778 b 588 -19 47 194 276 -19 z m 588 208 b 325 486 440 208 325 318 b 588 764 325 654 440 764 b 850 486 735 764 850 654 b 588 208 850 318 735 208 z "},"Ȭ":{"ha":1175,"x_min":0,"x_max":0,"o":"m 314 1307 l 861 1307 l 861 1443 l 314 1443 z m 692 1043 b 867 1232 803 1043 865 1115 l 739 1232 b 678 1172 736 1199 714 1172 b 485 1243 633 1172 581 1243 b 308 1054 376 1243 310 1175 l 440 1054 b 500 1114 443 1090 465 1114 b 692 1043 543 1114 593 1043 z m 588 -19 b 1128 486 899 -19 1128 194 b 588 992 1128 778 899 992 b 47 486 276 992 47 778 b 588 -19 47 194 276 -19 z m 588 208 b 325 486 440 208 325 318 b 588 764 325 654 440 764 b 850 486 735 764 850 654 b 588 208 850 318 735 208 z "},"Œ":{"ha":1586,"x_min":0,"x_max":0,"o":"m 1022 213 l 1022 390 l 1454 390 l 1454 596 l 1022 596 l 1022 760 l 1513 760 l 1513 972 l 590 972 b 47 486 268 972 47 785 b 590 0 47 188 268 0 l 1531 0 l 1531 213 z m 601 219 b 325 486 436 219 325 318 b 601 753 325 654 436 753 l 751 753 l 751 219 z "},"P":{"ha":1024,"x_min":0,"x_max":0,"o":"m 542 972 l 97 972 l 97 0 l 372 0 l 372 254 l 542 254 b 974 613 807 254 974 392 b 542 972 974 835 807 972 z m 525 471 l 372 471 l 372 756 l 525 756 b 696 613 639 756 696 703 b 525 471 696 524 639 471 z "},"Þ":{"ha":1024,"x_min":0,"x_max":0,"o":"m 542 872 l 372 872 l 372 974 l 97 974 l 97 0 l 372 0 l 372 153 l 542 153 b 974 513 807 153 974 292 b 542 872 974 733 807 872 z m 525 371 l 372 371 l 372 654 l 525 654 b 696 513 639 654 696 601 b 525 371 696 424 639 371 z "},"Q":{"ha":1175,"x_min":0,"x_max":0,"o":"m 1058 29 b 911 -39 1015 -15 964 -39 b 797 17 869 -39 836 -25 b 1128 486 996 89 1128 265 b 588 992 1128 778 899 992 b 47 486 276 992 47 778 b 481 -11 47 229 225 32 b 906 -235 643 -181 747 -235 b 1178 -112 1017 -235 1113 -192 z m 325 486 b 588 764 325 654 440 764 b 850 486 735 764 850 654 b 588 208 850 318 735 208 b 325 486 440 208 325 318 z "},"R":{"ha":1028,"x_min":0,"x_max":0,"o":"m 699 0 l 993 0 l 783 306 b 974 613 904 364 974 469 b 542 972 974 835 807 972 l 97 972 l 97 0 l 372 0 l 372 258 l 522 258 z m 696 613 b 525 471 696 524 639 471 l 372 471 l 372 756 l 525 756 b 696 613 639 756 696 703 z "},"Ŕ":{"ha":1028,"x_min":0,"x_max":0,"o":"m 838 1263 l 574 1263 l 388 1051 l 576 1051 z m 699 0 l 993 0 l 783 306 b 974 613 904 364 974 469 b 542 972 974 835 807 972 l 97 972 l 97 0 l 372 0 l 372 258 l 522 258 z m 696 613 b 525 471 696 524 639 471 l 372 471 l 372 756 l 525 756 b 696 613 639 756 696 703 z "},"Ř":{"ha":1028,"x_min":0,"x_max":0,"o":"m 638 1051 l 818 1263 l 643 1263 l 524 1157 l 404 1263 l 229 1263 l 410 1051 z m 699 0 l 993 0 l 783 306 b 974 613 904 364 974 469 b 542 972 974 835 807 972 l 97 972 l 97 0 l 372 0 l 372 258 l 522 258 z m 696 613 b 525 471 696 524 639 471 l 372 471 l 372 756 l 525 756 b 696 613 639 756 696 703 z "},"Ŗ":{"ha":1028,"x_min":0,"x_max":0,"o":"m 783 306 b 974 613 904 364 974 469 b 542 972 974 835 807 972 l 97 972 l 97 0 l 372 0 l 372 258 l 522 258 l 699 0 l 993 0 z m 696 613 b 525 471 696 524 639 471 l 372 471 l 372 756 l 525 756 b 696 613 639 756 696 703 z m 524 -86 b 414 -179 456 -86 414 -124 b 469 -262 414 -219 432 -249 l 433 -372 l 553 -372 l 604 -279 b 633 -179 629 -235 633 -204 b 524 -86 633 -124 592 -86 z "},"Ȑ":{"ha":1028,"x_min":0,"x_max":0,"o":"m 464 1051 l 378 1263 l 142 1263 l 281 1051 z m 767 1051 l 679 1263 l 443 1263 l 583 1051 z m 699 0 l 993 0 l 783 306 b 974 613 904 364 974 469 b 542 972 974 835 807 972 l 97 972 l 97 0 l 372 0 l 372 258 l 522 258 z m 696 613 b 525 471 696 524 639 471 l 372 471 l 372 756 l 525 756 b 696 613 639 756 696 703 z "},"Ṛ":{"ha":1028,"x_min":0,"x_max":0,"o":"m 783 306 b 974 613 904 364 974 469 b 542 972 974 835 807 972 l 97 972 l 97 0 l 372 0 l 372 258 l 522 258 l 699 0 l 993 0 z m 696 613 b 525 471 696 524 639 471 l 372 471 l 372 756 l 525 756 b 696 613 639 756 696 703 z m 524 -86 b 414 -196 461 -86 414 -131 b 524 -303 414 -261 461 -303 b 633 -196 586 -303 633 -261 b 524 -86 633 -131 586 -86 z "},"Ȓ":{"ha":1028,"x_min":0,"x_max":0,"o":"m 524 1143 b 635 1051 585 1143 632 1107 l 796 1051 b 524 1275 790 1189 679 1275 b 251 1051 368 1275 257 1189 l 413 1051 b 524 1143 415 1107 463 1143 z m 699 0 l 993 0 l 783 306 b 974 613 904 364 974 469 b 542 972 974 835 807 972 l 97 972 l 97 0 l 372 0 l 372 258 l 522 258 z m 696 613 b 525 471 696 524 639 471 l 372 471 l 372 756 l 525 756 b 696 613 639 756 696 703 z "},"Ṟ":{"ha":1028,"x_min":0,"x_max":0,"o":"m 372 258 l 522 258 l 699 0 l 993 0 l 783 306 b 974 613 904 364 974 469 b 542 972 974 835 807 972 l 97 972 l 97 0 l 372 0 z m 696 613 b 525 471 696 524 639 471 l 372 471 l 372 756 l 525 756 b 696 613 639 756 696 703 z m 250 -260 l 797 -260 l 797 -118 l 250 -118 z "},"S":{"ha":899,"x_min":0,"x_max":0,"o":"m 439 -19 b 869 294 728 -19 869 125 b 318 690 869 653 318 542 b 475 778 318 739 360 778 b 744 703 560 778 651 753 l 829 907 b 476 992 733 963 603 992 b 46 676 188 992 46 850 b 599 274 46 315 599 428 b 440 194 599 226 554 194 b 119 290 328 194 206 233 l 29 88 b 439 -19 121 24 279 -19 z "},"Ś":{"ha":899,"x_min":0,"x_max":0,"o":"m 318 1051 l 507 1051 l 768 1263 l 504 1263 z m 439 -19 b 869 294 728 -19 869 125 b 318 690 869 653 318 542 b 475 778 318 739 360 778 b 744 703 560 778 651 753 l 829 907 b 476 992 733 963 603 992 b 46 676 188 992 46 850 b 599 274 46 315 599 428 b 440 194 599 226 554 194 b 119 290 328 194 206 233 l 29 88 b 439 -19 121 24 279 -19 z "},"Ṥ":{"ha":899,"x_min":0,"x_max":0,"o":"m 454 1286 b 564 1394 517 1286 564 1329 b 454 1503 564 1458 517 1503 b 344 1394 392 1503 344 1458 b 454 1286 344 1329 392 1286 z m 322 1051 l 504 1051 l 728 1225 l 469 1225 z m 439 -19 b 869 294 728 -19 869 125 b 318 690 869 653 318 542 b 475 778 318 739 360 778 b 744 703 560 778 651 753 l 829 907 b 476 992 733 963 603 992 b 46 676 188 992 46 850 b 599 274 46 315 599 428 b 440 194 599 226 554 194 b 119 290 328 194 206 233 l 29 88 b 439 -19 121 24 279 -19 z "},"Ꞌ":{"ha":443,"x_min":0,"x_max":0,"o":"m 86 411 l 322 411 l 357 974 l 86 974 z "},"Š":{"ha":899,"x_min":0,"x_max":0,"o":"m 568 1051 l 749 1263 l 574 1263 l 454 1157 l 335 1263 l 160 1263 l 340 1051 z m 318 690 b 475 778 318 739 360 778 b 744 703 560 778 651 753 l 829 907 b 476 992 733 963 603 992 b 46 676 188 992 46 850 b 599 274 46 315 599 428 b 440 194 599 226 554 194 b 119 290 328 194 206 233 l 29 88 b 439 -19 121 24 279 -19 b 869 294 728 -19 869 125 b 318 690 869 653 318 542 z "},"Ṧ":{"ha":899,"x_min":0,"x_max":0,"o":"m 454 1254 b 564 1363 517 1254 564 1297 b 454 1471 564 1426 517 1471 b 344 1363 392 1471 344 1426 b 454 1254 344 1297 392 1254 z m 567 1051 l 749 1221 l 572 1221 l 454 1139 l 336 1221 l 160 1221 l 342 1051 z m 318 690 b 475 778 318 739 360 778 b 744 703 560 778 651 753 l 829 907 b 476 992 733 963 603 992 b 46 676 188 992 46 850 b 599 274 46 315 599 428 b 440 194 599 226 554 194 b 119 290 328 194 206 233 l 29 88 b 439 -19 121 24 279 -19 b 869 294 728 -19 869 125 b 318 690 869 653 318 542 z "},"Ş":{"ha":899,"x_min":0,"x_max":0,"o":"m 869 294 b 318 690 869 653 318 542 b 475 778 318 739 360 778 b 744 703 560 778 651 753 l 829 907 b 476 992 733 963 603 992 b 46 676 188 992 46 850 b 599 274 46 315 599 428 b 440 194 599 226 554 194 b 119 290 328 194 206 233 l 29 88 b 378 -18 110 32 240 -8 l 349 -140 l 400 -140 b 463 -175 444 -140 463 -154 b 393 -214 463 -197 443 -214 b 307 -194 360 -214 331 -206 l 271 -299 b 403 -328 301 -315 356 -328 b 622 -183 535 -328 622 -272 b 503 -71 622 -132 589 -81 l 515 -15 b 869 294 753 7 869 140 z "},"Ŝ":{"ha":899,"x_min":0,"x_max":0,"o":"m 454 1157 l 574 1051 l 749 1051 l 568 1263 l 340 1263 l 160 1051 l 335 1051 z m 318 690 b 475 778 318 739 360 778 b 744 703 560 778 651 753 l 829 907 b 476 992 733 963 603 992 b 46 676 188 992 46 850 b 599 274 46 315 599 428 b 440 194 599 226 554 194 b 119 290 328 194 206 233 l 29 88 b 439 -19 121 24 279 -19 b 869 294 728 -19 869 125 b 318 690 869 653 318 542 z "},"Ș":{"ha":899,"x_min":0,"x_max":0,"o":"m 318 690 b 475 778 318 739 360 778 b 744 703 560 778 651 753 l 829 907 b 476 992 733 963 603 992 b 46 676 188 992 46 850 b 599 274 46 315 599 428 b 440 194 599 226 554 194 b 119 290 328 194 206 233 l 29 88 b 439 -19 121 24 279 -19 b 869 294 728 -19 869 125 b 318 690 869 653 318 542 z m 454 -86 b 344 -179 386 -86 344 -124 b 400 -262 344 -219 363 -249 l 364 -372 l 483 -372 l 535 -279 b 564 -179 560 -235 564 -204 b 454 -86 564 -124 522 -86 z "},"Ṡ":{"ha":899,"x_min":0,"x_max":0,"o":"m 454 1049 b 592 1186 535 1049 592 1106 b 454 1322 592 1265 535 1322 b 317 1186 374 1322 317 1265 b 454 1049 317 1106 374 1049 z m 439 -19 b 869 294 728 -19 869 125 b 318 690 869 653 318 542 b 475 778 318 739 360 778 b 744 703 560 778 651 753 l 829 907 b 476 992 733 963 603 992 b 46 676 188 992 46 850 b 599 274 46 315 599 428 b 440 194 599 226 554 194 b 119 290 328 194 206 233 l 29 88 b 439 -19 121 24 279 -19 z "},"Ṣ":{"ha":899,"x_min":0,"x_max":0,"o":"m 439 -19 b 869 294 728 -19 869 125 b 318 690 869 653 318 542 b 475 778 318 739 360 778 b 744 703 560 778 651 753 l 829 907 b 476 992 733 963 603 992 b 46 676 188 992 46 850 b 599 274 46 315 599 428 b 440 194 599 226 554 194 b 119 290 328 194 206 233 l 29 88 b 439 -19 121 24 279 -19 z m 454 -303 b 564 -196 517 -303 564 -261 b 454 -86 564 -131 517 -86 b 344 -196 392 -86 344 -131 b 454 -303 344 -261 392 -303 z "},"Ṩ":{"ha":899,"x_min":0,"x_max":0,"o":"m 454 1049 b 592 1186 535 1049 592 1106 b 454 1322 592 1265 535 1322 b 317 1186 374 1322 317 1265 b 454 1049 317 1106 374 1049 z m 439 -19 b 869 294 728 -19 869 125 b 318 690 869 653 318 542 b 475 778 318 739 360 778 b 744 703 560 778 651 753 l 829 907 b 476 992 733 963 603 992 b 46 676 188 992 46 850 b 599 274 46 315 599 428 b 440 194 599 226 554 194 b 119 290 328 194 206 233 l 29 88 b 439 -19 121 24 279 -19 z m 454 -303 b 564 -196 517 -303 564 -261 b 454 -86 564 -131 517 -86 b 344 -196 392 -86 344 -131 b 454 -303 344 -261 392 -303 z "},"ẞ":{"ha":1094,"x_min":0,"x_max":0,"o":"m 814 582 l 950 739 l 950 900 b 590 992 860 960 713 992 b 89 536 269 992 89 817 l 89 0 l 364 0 l 364 529 b 594 778 364 688 443 778 b 714 763 638 778 676 772 l 493 507 l 540 393 b 635 407 567 401 601 407 b 771 301 724 407 771 371 b 633 194 771 232 724 194 b 503 224 589 194 539 206 l 464 14 b 678 -19 521 -8 588 -19 b 1050 290 885 -19 1050 93 b 814 582 1050 442 949 544 z "},"Ə":{"ha":1136,"x_min":0,"x_max":0,"o":"m 547 992 b 117 822 374 992 208 918 l 279 650 b 544 764 344 724 456 764 b 807 547 682 764 786 676 l 47 547 l 47 497 b 568 -19 47 189 263 -19 b 1088 486 868 -19 1088 189 b 547 992 1088 782 864 992 z m 568 189 b 331 382 436 189 353 263 l 806 382 b 568 189 785 263 700 189 z "},"T":{"ha":882,"x_min":0,"x_max":0,"o":"m 304 0 l 579 0 l 579 754 l 876 754 l 876 972 l 6 972 l 6 754 l 304 754 z "},"Ŧ":{"ha":882,"x_min":0,"x_max":0,"o":"m 876 754 l 876 972 l 6 972 l 6 754 l 304 754 l 304 532 l 129 532 l 129 363 l 304 363 l 304 0 l 579 0 l 579 363 l 754 363 l 754 532 l 579 532 l 579 754 z "},"Ť":{"ha":882,"x_min":0,"x_max":0,"o":"m 556 1051 l 736 1263 l 561 1263 l 442 1157 l 322 1263 l 147 1263 l 328 1051 z m 6 972 l 6 754 l 304 754 l 304 0 l 579 0 l 579 754 l 876 754 l 876 972 z "},"Ţ":{"ha":882,"x_min":0,"x_max":0,"o":"m 579 0 l 579 754 l 876 754 l 876 972 l 6 972 l 6 754 l 304 754 l 304 0 l 369 0 l 336 -140 l 388 -140 b 450 -175 432 -140 450 -154 b 381 -214 450 -197 431 -214 b 294 -194 347 -214 318 -206 l 258 -299 b 390 -328 289 -315 343 -328 b 610 -183 522 -328 610 -272 b 490 -71 610 -132 576 -81 l 507 0 z "},"Ț":{"ha":882,"x_min":0,"x_max":0,"o":"m 6 972 l 6 754 l 304 754 l 304 0 l 579 0 l 579 754 l 876 754 l 876 972 z m 442 -86 b 332 -179 374 -86 332 -124 b 388 -262 332 -219 350 -249 l 351 -372 l 471 -372 l 522 -279 b 551 -179 547 -235 551 -204 b 442 -86 551 -124 510 -86 z "},"Ṭ":{"ha":882,"x_min":0,"x_max":0,"o":"m 304 0 l 579 0 l 579 754 l 876 754 l 876 972 l 6 972 l 6 754 l 304 754 z m 442 -303 b 551 -196 504 -303 551 -261 b 442 -86 551 -131 504 -86 b 332 -196 379 -86 332 -131 b 442 -303 332 -261 379 -303 z "},"Ṯ":{"ha":882,"x_min":0,"x_max":0,"o":"m 304 0 l 579 0 l 579 754 l 876 754 l 876 972 l 6 972 l 6 754 l 304 754 z m 168 -260 l 715 -260 l 715 -118 l 168 -118 z "},"U":{"ha":1092,"x_min":0,"x_max":0,"o":"m 546 -19 b 1003 433 833 -19 1003 143 l 1003 972 l 732 972 l 732 442 b 549 208 732 275 663 208 b 364 442 433 208 364 275 l 364 972 l 89 972 l 89 433 b 546 -19 89 143 258 -19 z "},"Ú":{"ha":1092,"x_min":0,"x_max":0,"o":"m 413 1051 l 601 1051 l 863 1263 l 599 1263 z m 546 -19 b 1003 433 833 -19 1003 143 l 1003 972 l 732 972 l 732 442 b 549 208 732 275 663 208 b 364 442 433 208 364 275 l 364 972 l 89 972 l 89 433 b 546 -19 89 143 258 -19 z "},"Ŭ":{"ha":1092,"x_min":0,"x_max":0,"o":"m 549 1039 b 821 1263 704 1039 815 1125 l 660 1263 b 549 1171 657 1207 610 1171 b 438 1263 488 1171 440 1207 l 276 1263 b 549 1039 282 1125 393 1039 z m 546 -19 b 1003 433 833 -19 1003 143 l 1003 972 l 732 972 l 732 442 b 549 208 732 275 663 208 b 364 442 433 208 364 275 l 364 972 l 89 972 l 89 433 b 546 -19 89 143 258 -19 z "},"Ǔ":{"ha":1092,"x_min":0,"x_max":0,"o":"m 663 1051 l 843 1263 l 668 1263 l 549 1157 l 429 1263 l 254 1263 l 435 1051 z m 732 972 l 732 442 b 549 208 732 275 663 208 b 364 442 433 208 364 275 l 364 972 l 89 972 l 89 433 b 546 -19 89 143 258 -19 b 1003 433 833 -19 1003 143 l 1003 972 z "},"Û":{"ha":1092,"x_min":0,"x_max":0,"o":"m 549 1157 l 668 1051 l 843 1051 l 663 1263 l 435 1263 l 254 1051 l 429 1051 z m 732 972 l 732 442 b 549 208 732 275 663 208 b 364 442 433 208 364 275 l 364 972 l 89 972 l 89 433 b 546 -19 89 143 258 -19 b 1003 433 833 -19 1003 143 l 1003 972 z "},"Ȕ":{"ha":1092,"x_min":0,"x_max":0,"o":"m 306 1051 l 489 1051 l 403 1263 l 167 1263 z m 608 1051 l 792 1051 l 704 1263 l 468 1263 z m 546 -19 b 1003 433 833 -19 1003 143 l 1003 972 l 732 972 l 732 442 b 549 208 732 275 663 208 b 364 442 433 208 364 275 l 364 972 l 89 972 l 89 433 b 546 -19 89 143 258 -19 z "},"Ü":{"ha":1092,"x_min":0,"x_max":0,"o":"m 401 1050 b 511 1158 464 1050 511 1093 b 401 1268 511 1224 464 1268 b 292 1158 339 1268 292 1224 b 401 1050 292 1093 339 1050 z m 696 1050 b 806 1158 758 1050 806 1093 b 696 1268 806 1224 758 1268 b 586 1158 633 1268 586 1224 b 696 1050 586 1093 633 1050 z m 546 -19 b 1003 433 833 -19 1003 143 l 1003 972 l 732 972 l 732 442 b 549 208 732 275 663 208 b 364 442 433 208 364 275 l 364 972 l 89 972 l 89 433 b 546 -19 89 143 258 -19 z "},"Ụ":{"ha":1092,"x_min":0,"x_max":0,"o":"m 546 -19 b 1003 433 833 -19 1003 143 l 1003 972 l 732 972 l 732 442 b 549 208 732 275 663 208 b 364 442 433 208 364 275 l 364 972 l 89 972 l 89 433 b 546 -19 89 143 258 -19 z m 549 -303 b 658 -196 611 -303 658 -261 b 549 -86 658 -131 611 -86 b 439 -196 486 -86 439 -131 b 549 -303 439 -261 486 -303 z "},"Ù":{"ha":1092,"x_min":0,"x_max":0,"o":"m 496 1051 l 685 1051 l 499 1263 l 235 1263 z m 546 -19 b 1003 433 833 -19 1003 143 l 1003 972 l 732 972 l 732 442 b 549 208 732 275 663 208 b 364 442 433 208 364 275 l 364 972 l 89 972 l 89 433 b 546 -19 89 143 258 -19 z "},"Ủ":{"ha":1092,"x_min":0,"x_max":0,"o":"m 599 1038 b 735 1221 688 1078 735 1136 b 553 1381 735 1315 661 1381 b 389 1329 493 1381 433 1364 l 443 1226 b 524 1254 471 1246 496 1254 b 586 1199 561 1254 586 1233 b 518 1118 586 1169 571 1143 z m 546 -19 b 1003 433 833 -19 1003 143 l 1003 972 l 732 972 l 732 442 b 549 208 732 275 663 208 b 364 442 433 208 364 275 l 364 972 l 89 972 l 89 433 b 546 -19 89 143 258 -19 z "},"Ư":{"ha":1115,"x_min":0,"x_max":0,"o":"m 1160 1049 b 1111 1194 1160 1107 1142 1157 l 958 1140 b 986 1060 975 1121 986 1090 b 907 972 986 1008 951 972 l 732 972 l 732 442 b 549 208 732 275 663 208 b 364 442 433 208 364 275 l 364 972 l 89 972 l 89 433 b 546 -19 89 143 258 -19 b 1003 433 833 -19 1003 143 l 1003 821 b 1160 1049 1103 851 1160 931 z "},"Ứ":{"ha":1115,"x_min":0,"x_max":0,"o":"m 863 1263 l 599 1263 l 413 1051 l 601 1051 z m 1160 1049 b 1111 1194 1160 1107 1142 1157 l 958 1140 b 986 1060 975 1121 986 1090 b 907 972 986 1008 951 972 l 732 972 l 732 442 b 549 208 732 275 663 208 b 364 442 433 208 364 275 l 364 972 l 89 972 l 89 433 b 546 -19 89 143 258 -19 b 1003 433 833 -19 1003 143 l 1003 821 b 1160 1049 1103 851 1160 931 z "},"Ự":{"ha":1115,"x_min":0,"x_max":0,"o":"m 1160 1049 b 1111 1194 1160 1107 1142 1157 l 958 1140 b 986 1060 975 1121 986 1090 b 907 972 986 1008 951 972 l 732 972 l 732 442 b 549 208 732 275 663 208 b 364 442 433 208 364 275 l 364 972 l 89 972 l 89 433 b 546 -19 89 143 258 -19 b 1003 433 833 -19 1003 143 l 1003 821 b 1160 1049 1103 851 1160 931 z m 549 -86 b 439 -196 486 -86 439 -131 b 549 -303 439 -261 486 -303 b 658 -196 611 -303 658 -261 b 549 -86 658 -131 611 -86 z "},"Ừ":{"ha":1115,"x_min":0,"x_max":0,"o":"m 685 1051 l 499 1263 l 235 1263 l 496 1051 z m 1160 1049 b 1111 1194 1160 1107 1142 1157 l 958 1140 b 986 1060 975 1121 986 1090 b 907 972 986 1008 951 972 l 732 972 l 732 442 b 549 208 732 275 663 208 b 364 442 433 208 364 275 l 364 972 l 89 972 l 89 433 b 546 -19 89 143 258 -19 b 1003 433 833 -19 1003 143 l 1003 821 b 1160 1049 1103 851 1160 931 z "},"Ử":{"ha":1115,"x_min":0,"x_max":0,"o":"m 524 1254 b 586 1199 561 1254 586 1233 b 518 1118 586 1169 571 1143 l 599 1038 b 735 1221 688 1078 735 1136 b 553 1381 735 1315 661 1381 b 389 1329 493 1381 433 1364 l 443 1226 b 524 1254 471 1246 496 1254 z m 1160 1049 b 1111 1194 1160 1107 1142 1157 l 958 1140 b 986 1060 975 1121 986 1090 b 907 972 986 1008 951 972 l 732 972 l 732 442 b 549 208 732 275 663 208 b 364 442 433 208 364 275 l 364 972 l 89 972 l 89 433 b 546 -19 89 143 258 -19 b 1003 433 833 -19 1003 143 l 1003 821 b 1160 1049 1103 851 1160 931 z "},"Ữ":{"ha":1115,"x_min":0,"x_max":0,"o":"m 457 1128 b 657 1042 507 1128 558 1042 b 833 1260 764 1042 831 1129 l 704 1260 b 640 1190 701 1217 678 1190 b 440 1275 590 1190 539 1275 b 264 1054 333 1275 267 1189 l 393 1054 b 457 1128 396 1100 419 1128 z m 1160 1049 b 1111 1194 1160 1107 1142 1157 l 958 1140 b 986 1060 975 1121 986 1090 b 907 972 986 1008 951 972 l 732 972 l 732 442 b 549 208 732 275 663 208 b 364 442 433 208 364 275 l 364 972 l 89 972 l 89 433 b 546 -19 89 143 258 -19 b 1003 433 833 -19 1003 143 l 1003 821 b 1160 1049 1103 851 1160 931 z "},"Ű":{"ha":1092,"x_min":0,"x_max":0,"o":"m 306 1051 l 489 1051 l 629 1263 l 393 1263 z m 608 1051 l 792 1051 l 931 1263 l 694 1263 z m 546 -19 b 1003 433 833 -19 1003 143 l 1003 972 l 732 972 l 732 442 b 549 208 732 275 663 208 b 364 442 433 208 364 275 l 364 972 l 89 972 l 89 433 b 546 -19 89 143 258 -19 z "},"Ȗ":{"ha":1092,"x_min":0,"x_max":0,"o":"m 276 1051 l 438 1051 b 549 1143 440 1107 488 1143 b 660 1051 610 1143 657 1107 l 821 1051 b 549 1275 815 1189 704 1275 b 276 1051 393 1275 282 1189 z m 546 -19 b 1003 433 833 -19 1003 143 l 1003 972 l 732 972 l 732 442 b 549 208 732 275 663 208 b 364 442 433 208 364 275 l 364 972 l 89 972 l 89 433 b 546 -19 89 143 258 -19 z "},"Ū":{"ha":1092,"x_min":0,"x_max":0,"o":"m 275 1086 l 822 1086 l 822 1228 l 275 1228 z m 546 -19 b 1003 433 833 -19 1003 143 l 1003 972 l 732 972 l 732 442 b 549 208 732 275 663 208 b 364 442 433 208 364 275 l 364 972 l 89 972 l 89 433 b 546 -19 89 143 258 -19 z "},"Ṻ":{"ha":1092,"x_min":0,"x_max":0,"o":"m 407 1289 b 513 1392 467 1289 513 1331 b 407 1496 513 1453 467 1496 b 303 1392 349 1496 303 1453 b 407 1289 303 1331 349 1289 z m 690 1289 b 794 1392 749 1289 794 1331 b 690 1496 794 1453 749 1496 b 586 1392 632 1496 586 1453 b 690 1289 586 1331 632 1289 z m 275 1068 l 822 1068 l 822 1204 l 275 1204 z m 546 -19 b 1003 433 833 -19 1003 143 l 1003 972 l 732 972 l 732 442 b 549 208 732 275 663 208 b 364 442 433 208 364 275 l 364 972 l 89 972 l 89 433 b 546 -19 89 143 258 -19 z "},"Ų":{"ha":1092,"x_min":0,"x_max":0,"o":"m 732 972 l 732 442 b 549 208 732 275 663 208 b 364 442 433 208 364 275 l 364 972 l 89 972 l 89 433 b 463 -14 89 172 226 14 b 386 -165 413 -57 386 -110 b 592 -328 386 -262 461 -328 b 739 -296 647 -328 706 -314 l 704 -182 b 622 -203 683 -193 653 -203 b 546 -142 571 -203 546 -178 b 739 10 546 -97 586 -49 b 1003 433 897 71 1003 203 l 1003 972 z "},"Ů":{"ha":1092,"x_min":0,"x_max":0,"o":"m 549 1040 b 732 1217 651 1040 732 1118 b 549 1394 732 1315 651 1394 b 365 1217 444 1394 365 1315 b 549 1040 365 1118 444 1040 z m 549 1138 b 469 1217 504 1138 469 1171 b 549 1297 469 1264 504 1297 b 628 1217 593 1297 628 1264 b 549 1138 628 1171 593 1138 z m 546 -19 b 1003 433 833 -19 1003 143 l 1003 972 l 732 972 l 732 442 b 549 208 732 275 663 208 b 364 442 433 208 364 275 l 364 972 l 89 972 l 89 433 b 546 -19 89 143 258 -19 z "},"Ũ":{"ha":1092,"x_min":0,"x_max":0,"o":"m 657 1042 b 833 1260 764 1042 831 1129 l 704 1260 b 640 1190 701 1217 678 1190 b 440 1275 590 1190 539 1275 b 264 1054 333 1275 267 1189 l 393 1054 b 457 1128 396 1100 419 1128 b 657 1042 507 1128 558 1042 z m 546 -19 b 1003 433 833 -19 1003 143 l 1003 972 l 732 972 l 732 442 b 549 208 732 275 663 208 b 364 442 433 208 364 275 l 364 972 l 89 972 l 89 433 b 546 -19 89 143 258 -19 z "},"Ṹ":{"ha":1092,"x_min":0,"x_max":0,"o":"m 417 1290 l 599 1290 l 822 1464 l 564 1464 z m 653 1043 b 828 1232 764 1043 826 1115 l 700 1232 b 639 1172 697 1199 675 1172 b 446 1243 594 1172 542 1243 b 269 1054 338 1243 271 1175 l 401 1054 b 461 1114 404 1090 426 1114 b 653 1043 504 1114 554 1043 z m 546 -19 b 1003 433 833 -19 1003 143 l 1003 972 l 732 972 l 732 442 b 549 208 732 275 663 208 b 364 442 433 208 364 275 l 364 972 l 89 972 l 89 433 b 546 -19 89 143 258 -19 z "},"V":{"ha":1064,"x_min":0,"x_max":0,"o":"m 811 972 l 542 339 l 278 972 l -19 972 l 396 0 l 667 0 l 1083 972 z "},"W":{"ha":1644,"x_min":0,"x_max":0,"o":"m 1360 972 l 1156 346 l 960 972 l 707 972 l 501 351 l 306 972 l 22 972 l 338 0 l 632 0 l 826 592 l 1013 0 l 1307 0 l 1622 972 z "},"Ẃ":{"ha":1644,"x_min":0,"x_max":0,"o":"m 1136 1263 l 872 1263 l 686 1051 l 875 1051 z m 1360 972 l 1156 346 l 960 972 l 707 972 l 501 351 l 306 972 l 22 972 l 338 0 l 632 0 l 826 592 l 1013 0 l 1307 0 l 1622 972 z "},"Ŵ":{"ha":1644,"x_min":0,"x_max":0,"o":"m 822 1157 l 942 1051 l 1117 1051 l 936 1263 l 708 1263 l 528 1051 l 703 1051 z m 1360 972 l 1156 346 l 960 972 l 707 972 l 501 351 l 306 972 l 22 972 l 338 0 l 632 0 l 826 592 l 1013 0 l 1307 0 l 1622 972 z "},"Ẅ":{"ha":1644,"x_min":0,"x_max":0,"o":"m 675 1050 b 785 1158 738 1050 785 1093 b 675 1268 785 1224 738 1268 b 565 1158 613 1268 565 1224 b 675 1050 565 1093 613 1050 z m 969 1050 b 1079 1158 1032 1050 1079 1093 b 969 1268 1079 1224 1032 1268 b 860 1158 907 1268 860 1224 b 969 1050 860 1093 907 1050 z m 1360 972 l 1156 346 l 960 972 l 707 972 l 501 351 l 306 972 l 22 972 l 338 0 l 632 0 l 826 592 l 1013 0 l 1307 0 l 1622 972 z "},"Ẁ":{"ha":1644,"x_min":0,"x_max":0,"o":"m 958 1051 l 772 1263 l 508 1263 l 769 1051 z m 1360 972 l 1156 346 l 960 972 l 707 972 l 501 351 l 306 972 l 22 972 l 338 0 l 632 0 l 826 592 l 1013 0 l 1307 0 l 1622 972 z "},"X":{"ha":1024,"x_min":0,"x_max":0,"o":"m 1028 0 l 667 503 l 1006 972 l 708 972 l 517 692 l 322 972 l 13 972 l 351 492 l -3 0 l 311 0 l 510 301 l 711 0 z "},"Y":{"ha":963,"x_min":0,"x_max":0,"o":"m 990 972 l 724 972 l 493 586 l 263 972 l -28 972 l 343 353 l 343 0 l 618 0 l 618 349 z "},"Ý":{"ha":963,"x_min":0,"x_max":0,"o":"m 794 1263 l 531 1263 l 344 1051 l 533 1051 z m 990 972 l 724 972 l 493 586 l 263 972 l -28 972 l 343 353 l 343 0 l 618 0 l 618 349 z "},"Ŷ":{"ha":963,"x_min":0,"x_max":0,"o":"m 481 1157 l 600 1051 l 775 1051 l 594 1263 l 367 1263 l 186 1051 l 361 1051 z m 990 972 l 724 972 l 493 586 l 263 972 l -28 972 l 343 353 l 343 0 l 618 0 l 618 349 z "},"Ÿ":{"ha":963,"x_min":0,"x_max":0,"o":"m 333 1050 b 443 1158 396 1050 443 1093 b 333 1268 443 1224 396 1268 b 224 1158 271 1268 224 1224 b 333 1050 224 1093 271 1050 z m 628 1050 b 738 1158 690 1050 738 1093 b 628 1268 738 1224 690 1268 b 518 1158 565 1268 518 1224 b 628 1050 518 1093 565 1050 z m 990 972 l 724 972 l 493 586 l 263 972 l -28 972 l 343 353 l 343 0 l 618 0 l 618 349 z "},"Ẏ":{"ha":963,"x_min":0,"x_max":0,"o":"m 481 1049 b 618 1186 561 1049 618 1106 b 481 1322 618 1265 561 1322 b 343 1186 400 1322 343 1265 b 481 1049 343 1106 400 1049 z m 990 972 l 724 972 l 493 586 l 263 972 l -28 972 l 343 353 l 343 0 l 618 0 l 618 349 z "},"Ỵ":{"ha":963,"x_min":0,"x_max":0,"o":"m 990 972 l 724 972 l 493 586 l 263 972 l -28 972 l 343 353 l 343 0 l 618 0 l 618 349 z m 481 -86 b 371 -196 418 -86 371 -131 b 481 -303 371 -261 418 -303 b 590 -196 543 -303 590 -261 b 481 -86 590 -131 543 -86 z "},"Ỳ":{"ha":963,"x_min":0,"x_max":0,"o":"m 617 1051 l 431 1263 l 167 1263 l 428 1051 z m 990 972 l 724 972 l 493 586 l 263 972 l -28 972 l 343 353 l 343 0 l 618 0 l 618 349 z "},"Ỷ":{"ha":963,"x_min":0,"x_max":0,"o":"m 456 1254 b 518 1199 493 1254 518 1233 b 450 1118 518 1169 503 1143 l 531 1038 b 667 1221 619 1078 667 1136 b 485 1381 667 1315 593 1381 b 321 1329 425 1381 365 1364 l 375 1226 b 456 1254 403 1246 428 1254 z m 990 972 l 724 972 l 493 586 l 263 972 l -28 972 l 343 353 l 343 0 l 618 0 l 618 349 z "},"Ȳ":{"ha":963,"x_min":0,"x_max":0,"o":"m 754 1228 l 207 1228 l 207 1086 l 754 1086 z m 990 972 l 724 972 l 493 586 l 263 972 l -28 972 l 343 353 l 343 0 l 618 0 l 618 349 z "},"Ỹ":{"ha":963,"x_min":0,"x_max":0,"o":"m 389 1128 b 589 1042 439 1128 490 1042 b 765 1260 696 1042 763 1129 l 636 1260 b 572 1190 633 1217 610 1190 b 372 1275 522 1190 471 1275 b 196 1054 265 1275 199 1189 l 325 1054 b 389 1128 328 1100 351 1128 z m 990 972 l 724 972 l 493 586 l 263 972 l -28 972 l 343 353 l 343 0 l 618 0 l 618 349 z "},"Z":{"ha":943,"x_min":0,"x_max":0,"o":"m 408 218 l 899 800 l 899 972 l 61 972 l 61 754 l 539 754 l 49 172 l 49 0 l 919 0 l 919 218 z "},"Ź":{"ha":943,"x_min":0,"x_max":0,"o":"m 799 1263 l 535 1263 l 349 1051 l 538 1051 z m 408 218 l 899 800 l 899 972 l 61 972 l 61 754 l 539 754 l 49 172 l 49 0 l 919 0 l 919 218 z "},"Ž":{"ha":943,"x_min":0,"x_max":0,"o":"m 599 1051 l 779 1263 l 604 1263 l 485 1157 l 365 1263 l 190 1263 l 371 1051 z m 408 218 l 899 800 l 899 972 l 61 972 l 61 754 l 539 754 l 49 172 l 49 0 l 919 0 l 919 218 z "},"Ż":{"ha":943,"x_min":0,"x_max":0,"o":"m 485 1049 b 622 1186 565 1049 622 1106 b 485 1322 622 1265 565 1322 b 347 1186 404 1322 347 1265 b 485 1049 347 1106 404 1049 z m 408 218 l 899 800 l 899 972 l 61 972 l 61 754 l 539 754 l 49 172 l 49 0 l 919 0 l 919 218 z "},"Ẓ":{"ha":943,"x_min":0,"x_max":0,"o":"m 408 218 l 899 800 l 899 972 l 61 972 l 61 754 l 539 754 l 49 172 l 49 0 l 919 0 l 919 218 z m 488 -86 b 378 -196 425 -86 378 -131 b 488 -303 378 -261 425 -303 b 597 -196 550 -303 597 -261 b 488 -86 597 -131 550 -86 z "},"a":{"ha":872,"x_min":0,"x_max":0,"o":"m 406 765 b 74 678 288 765 160 735 l 163 499 b 367 564 214 539 294 564 b 526 444 471 564 522 521 l 376 444 b 42 219 143 444 42 358 b 322 -12 42 89 142 -12 b 544 97 432 -12 507 25 l 544 0 l 790 0 l 790 418 b 406 765 790 657 650 765 z m 396 154 b 297 231 333 154 297 186 b 413 307 297 276 328 307 l 526 307 l 526 242 b 396 154 506 182 454 154 z "},"á":{"ha":872,"x_min":0,"x_max":0,"o":"m 749 1054 l 485 1054 l 299 843 l 488 843 z m 406 765 b 74 678 288 765 160 735 l 163 499 b 367 564 214 539 294 564 b 526 444 471 564 522 521 l 376 444 b 42 219 143 444 42 358 b 322 -12 42 89 142 -12 b 544 97 432 -12 507 25 l 544 0 l 790 0 l 790 418 b 406 765 790 657 650 765 z m 396 154 b 297 231 333 154 297 186 b 413 307 297 276 328 307 l 526 307 l 526 242 b 396 154 506 182 454 154 z "},"ă":{"ha":872,"x_min":0,"x_max":0,"o":"m 435 831 b 707 1054 590 831 701 917 l 546 1054 b 435 963 543 999 496 963 b 324 1054 374 963 326 999 l 163 1054 b 435 831 168 917 279 831 z m 406 765 b 74 678 288 765 160 735 l 163 499 b 367 564 214 539 294 564 b 526 444 471 564 522 521 l 376 444 b 42 219 143 444 42 358 b 322 -12 42 89 142 -12 b 544 97 432 -12 507 25 l 544 0 l 790 0 l 790 418 b 406 765 790 657 650 765 z m 396 154 b 297 231 333 154 297 186 b 413 307 297 276 328 307 l 526 307 l 526 242 b 396 154 506 182 454 154 z "},"ắ":{"ha":872,"x_min":0,"x_max":0,"o":"m 708 1233 l 450 1233 l 303 1060 l 485 1060 z m 435 831 b 707 1013 589 831 699 900 l 554 1013 b 435 950 549 975 501 950 b 315 1013 368 950 321 975 l 163 1013 b 435 831 171 900 281 831 z m 406 765 b 74 678 288 765 160 735 l 163 499 b 367 564 214 539 294 564 b 526 444 471 564 522 521 l 376 444 b 42 219 143 444 42 358 b 322 -12 42 89 142 -12 b 544 97 432 -12 507 25 l 544 0 l 790 0 l 790 418 b 406 765 790 657 650 765 z m 396 154 b 297 231 333 154 297 186 b 413 307 297 276 328 307 l 526 307 l 526 242 b 396 154 506 182 454 154 z "},"ặ":{"ha":872,"x_min":0,"x_max":0,"o":"m 435 831 b 707 1054 590 831 701 917 l 546 1054 b 435 963 543 999 496 963 b 324 1054 374 963 326 999 l 163 1054 b 435 831 168 917 279 831 z m 406 765 b 74 678 288 765 160 735 l 163 499 b 367 564 214 539 294 564 b 526 444 471 564 522 521 l 376 444 b 42 219 143 444 42 358 b 322 -12 42 89 142 -12 b 544 97 432 -12 507 25 l 544 0 l 790 0 l 790 418 b 406 765 790 657 650 765 z m 396 154 b 297 231 333 154 297 186 b 413 307 297 276 328 307 l 526 307 l 526 242 b 396 154 506 182 454 154 z m 411 -86 b 301 -196 349 -86 301 -131 b 411 -303 301 -261 349 -303 b 521 -196 474 -303 521 -261 b 411 -86 521 -131 474 -86 z "},"ằ":{"ha":872,"x_min":0,"x_max":0,"o":"m 567 1060 l 419 1233 l 161 1233 l 386 1060 z m 435 950 b 315 1013 368 950 321 975 l 163 1013 b 435 831 171 900 281 831 b 707 1013 589 831 699 900 l 554 1013 b 435 950 549 975 501 950 z m 406 765 b 74 678 288 765 160 735 l 163 499 b 367 564 214 539 294 564 b 526 444 471 564 522 521 l 376 444 b 42 219 143 444 42 358 b 322 -12 42 89 142 -12 b 544 97 432 -12 507 25 l 544 0 l 790 0 l 790 418 b 406 765 790 657 650 765 z m 396 154 b 297 231 333 154 297 186 b 413 307 297 276 328 307 l 526 307 l 526 242 b 396 154 506 182 454 154 z "},"ẳ":{"ha":872,"x_min":0,"x_max":0,"o":"m 419 1168 b 464 1131 444 1168 464 1153 b 414 1075 464 1114 451 1094 l 476 1018 b 579 1144 532 1040 579 1085 b 442 1260 579 1215 525 1260 b 315 1226 396 1260 350 1249 l 357 1151 b 419 1168 379 1163 397 1168 z m 435 831 b 707 1013 589 831 699 900 l 554 1013 b 435 950 549 975 501 950 b 315 1013 368 950 321 975 l 163 1013 b 435 831 171 900 281 831 z m 406 765 b 74 678 288 765 160 735 l 163 499 b 367 564 214 539 294 564 b 526 444 471 564 522 521 l 376 444 b 42 219 143 444 42 358 b 322 -12 42 89 142 -12 b 544 97 432 -12 507 25 l 544 0 l 790 0 l 790 418 b 406 765 790 657 650 765 z m 396 154 b 297 231 333 154 297 186 b 413 307 297 276 328 307 l 526 307 l 526 242 b 396 154 506 182 454 154 z "},"ẵ":{"ha":872,"x_min":0,"x_max":0,"o":"m 347 1122 b 539 1051 390 1122 440 1051 b 714 1240 650 1051 713 1124 l 586 1240 b 525 1181 583 1207 561 1181 b 332 1251 481 1181 428 1251 b 156 1063 224 1251 157 1183 l 288 1063 b 347 1122 290 1099 313 1122 z m 435 950 b 315 1013 368 950 321 975 l 163 1013 b 435 831 171 900 281 831 b 707 1013 589 831 699 900 l 554 1013 b 435 950 549 975 501 950 z m 406 765 b 74 678 288 765 160 735 l 163 499 b 367 564 214 539 294 564 b 526 444 471 564 522 521 l 376 444 b 42 219 143 444 42 358 b 322 -12 42 89 142 -12 b 544 97 432 -12 507 25 l 544 0 l 790 0 l 790 418 b 406 765 790 657 650 765 z m 396 154 b 297 231 333 154 297 186 b 413 307 297 276 328 307 l 526 307 l 526 242 b 396 154 506 182 454 154 z "},"ǎ":{"ha":872,"x_min":0,"x_max":0,"o":"m 549 843 l 729 1054 l 554 1054 l 435 949 l 315 1054 l 140 1054 l 321 843 z m 406 765 b 74 678 288 765 160 735 l 163 499 b 367 564 214 539 294 564 b 526 444 471 564 522 521 l 376 444 b 42 219 143 444 42 358 b 322 -12 42 89 142 -12 b 544 97 432 -12 507 25 l 544 0 l 790 0 l 790 418 b 406 765 790 657 650 765 z m 396 154 b 297 231 333 154 297 186 b 413 307 297 276 328 307 l 526 307 l 526 242 b 396 154 506 182 454 154 z "},"â":{"ha":872,"x_min":0,"x_max":0,"o":"m 435 949 l 554 843 l 729 843 l 549 1054 l 321 1054 l 140 843 l 315 843 z m 406 765 b 74 678 288 765 160 735 l 163 499 b 367 564 214 539 294 564 b 526 444 471 564 522 521 l 376 444 b 42 219 143 444 42 358 b 322 -12 42 89 142 -12 b 544 97 432 -12 507 25 l 544 0 l 790 0 l 790 418 b 406 765 790 657 650 765 z m 396 154 b 297 231 333 154 297 186 b 413 307 297 276 328 307 l 526 307 l 526 242 b 396 154 506 182 454 154 z "},"ấ":{"ha":872,"x_min":0,"x_max":0,"o":"m 765 1156 l 618 982 l 800 982 l 1024 1156 z m 435 925 l 553 843 l 729 843 l 547 1013 l 322 1013 l 140 843 l 317 843 z m 406 765 b 74 678 288 765 160 735 l 163 499 b 367 564 214 539 294 564 b 526 444 471 564 522 521 l 376 444 b 42 219 143 444 42 358 b 322 -12 42 89 142 -12 b 544 97 432 -12 507 25 l 544 0 l 790 0 l 790 418 b 406 765 790 657 650 765 z m 396 154 b 297 231 333 154 297 186 b 413 307 297 276 328 307 l 526 307 l 526 242 b 396 154 506 182 454 154 z "},"ậ":{"ha":872,"x_min":0,"x_max":0,"o":"m 435 949 l 554 843 l 729 843 l 549 1054 l 321 1054 l 140 843 l 315 843 z m 406 765 b 74 678 288 765 160 735 l 163 499 b 367 564 214 539 294 564 b 526 444 471 564 522 521 l 376 444 b 42 219 143 444 42 358 b 322 -12 42 89 142 -12 b 544 97 432 -12 507 25 l 544 0 l 790 0 l 790 418 b 406 765 790 657 650 765 z m 396 154 b 297 231 333 154 297 186 b 413 307 297 276 328 307 l 526 307 l 526 242 b 396 154 506 182 454 154 z m 411 -86 b 301 -196 349 -86 301 -131 b 411 -303 301 -261 349 -303 b 521 -196 474 -303 521 -261 b 411 -86 521 -131 474 -86 z "},"ầ":{"ha":872,"x_min":0,"x_max":0,"o":"m 882 982 l 735 1156 l 476 1156 l 701 982 z m 435 925 l 553 843 l 729 843 l 547 1013 l 322 1013 l 140 843 l 317 843 z m 406 765 b 74 678 288 765 160 735 l 163 499 b 367 564 214 539 294 564 b 526 444 471 564 522 521 l 376 444 b 42 219 143 444 42 358 b 322 -12 42 89 142 -12 b 544 97 432 -12 507 25 l 544 0 l 790 0 l 790 418 b 406 765 790 657 650 765 z m 396 154 b 297 231 333 154 297 186 b 413 307 297 276 328 307 l 526 307 l 526 242 b 396 154 506 182 454 154 z "},"ẩ":{"ha":872,"x_min":0,"x_max":0,"o":"m 650 1104 b 694 1067 675 1104 694 1089 b 644 1011 694 1050 682 1031 l 707 954 b 810 1081 763 976 810 1021 b 672 1196 810 1151 756 1196 b 546 1163 626 1196 581 1185 l 588 1088 b 650 1104 610 1099 628 1104 z m 435 925 l 553 843 l 729 843 l 547 1013 l 322 1013 l 140 843 l 317 843 z m 406 765 b 74 678 288 765 160 735 l 163 499 b 367 564 214 539 294 564 b 526 444 471 564 522 521 l 376 444 b 42 219 143 444 42 358 b 322 -12 42 89 142 -12 b 544 97 432 -12 507 25 l 544 0 l 790 0 l 790 418 b 406 765 790 657 650 765 z m 396 154 b 297 231 333 154 297 186 b 413 307 297 276 328 307 l 526 307 l 526 242 b 396 154 506 182 454 154 z "},"ẫ":{"ha":872,"x_min":0,"x_max":0,"o":"m 347 1132 b 539 1061 390 1132 440 1061 b 714 1250 650 1061 713 1133 l 586 1250 b 525 1190 583 1217 561 1190 b 332 1261 481 1190 428 1261 b 156 1072 224 1261 157 1193 l 288 1072 b 347 1132 290 1108 313 1132 z m 435 925 l 553 843 l 729 843 l 547 1013 l 322 1013 l 140 843 l 317 843 z m 406 765 b 74 678 288 765 160 735 l 163 499 b 367 564 214 539 294 564 b 526 444 471 564 522 521 l 376 444 b 42 219 143 444 42 358 b 322 -12 42 89 142 -12 b 544 97 432 -12 507 25 l 544 0 l 790 0 l 790 418 b 406 765 790 657 650 765 z m 396 154 b 297 231 333 154 297 186 b 413 307 297 276 328 307 l 526 307 l 526 242 b 396 154 506 182 454 154 z "},"ȁ":{"ha":872,"x_min":0,"x_max":0,"o":"m 375 843 l 289 1054 l 53 1054 l 192 843 z m 678 843 l 590 1054 l 354 1054 l 494 843 z m 406 765 b 74 678 288 765 160 735 l 163 499 b 367 564 214 539 294 564 b 526 444 471 564 522 521 l 376 444 b 42 219 143 444 42 358 b 322 -12 42 89 142 -12 b 544 97 432 -12 507 25 l 544 0 l 790 0 l 790 418 b 406 765 790 657 650 765 z m 396 154 b 297 231 333 154 297 186 b 413 307 297 276 328 307 l 526 307 l 526 242 b 396 154 506 182 454 154 z "},"ä":{"ha":872,"x_min":0,"x_max":0,"o":"m 288 842 b 397 950 350 842 397 885 b 288 1060 397 1015 350 1060 b 178 950 225 1060 178 1015 b 288 842 178 885 225 842 z m 582 842 b 692 950 644 842 692 885 b 582 1060 692 1015 644 1060 b 472 950 519 1060 472 1015 b 582 842 472 885 519 842 z m 406 765 b 74 678 288 765 160 735 l 163 499 b 367 564 214 539 294 564 b 526 444 471 564 522 521 l 376 444 b 42 219 143 444 42 358 b 322 -12 42 89 142 -12 b 544 97 432 -12 507 25 l 544 0 l 790 0 l 790 418 b 406 765 790 657 650 765 z m 396 154 b 297 231 333 154 297 186 b 413 307 297 276 328 307 l 526 307 l 526 242 b 396 154 506 182 454 154 z "},"ạ":{"ha":872,"x_min":0,"x_max":0,"o":"m 406 765 b 74 678 288 765 160 735 l 163 499 b 367 564 214 539 294 564 b 526 444 471 564 522 521 l 376 444 b 42 219 143 444 42 358 b 322 -12 42 89 142 -12 b 544 97 432 -12 507 25 l 544 0 l 790 0 l 790 418 b 406 765 790 657 650 765 z m 396 154 b 297 231 333 154 297 186 b 413 307 297 276 328 307 l 526 307 l 526 242 b 396 154 506 182 454 154 z m 411 -86 b 301 -196 349 -86 301 -131 b 411 -303 301 -261 349 -303 b 521 -196 474 -303 521 -261 b 411 -86 521 -131 474 -86 z "},"à":{"ha":872,"x_min":0,"x_max":0,"o":"m 571 843 l 385 1054 l 121 1054 l 382 843 z m 406 765 b 74 678 288 765 160 735 l 163 499 b 367 564 214 539 294 564 b 526 444 471 564 522 521 l 376 444 b 42 219 143 444 42 358 b 322 -12 42 89 142 -12 b 544 97 432 -12 507 25 l 544 0 l 790 0 l 790 418 b 406 765 790 657 650 765 z m 396 154 b 297 231 333 154 297 186 b 413 307 297 276 328 307 l 526 307 l 526 242 b 396 154 506 182 454 154 z "},"ả":{"ha":872,"x_min":0,"x_max":0,"o":"m 410 1046 b 472 990 447 1046 472 1025 b 404 910 472 961 457 935 l 485 829 b 621 1013 574 869 621 928 b 439 1172 621 1107 547 1172 b 275 1121 379 1172 319 1156 l 329 1018 b 410 1046 357 1038 382 1046 z m 406 765 b 74 678 288 765 160 735 l 163 499 b 367 564 214 539 294 564 b 526 444 471 564 522 521 l 376 444 b 42 219 143 444 42 358 b 322 -12 42 89 142 -12 b 544 97 432 -12 507 25 l 544 0 l 790 0 l 790 418 b 406 765 790 657 650 765 z m 396 154 b 297 231 333 154 297 186 b 413 307 297 276 328 307 l 526 307 l 526 242 b 396 154 506 182 454 154 z "},"ȃ":{"ha":872,"x_min":0,"x_max":0,"o":"m 435 935 b 546 843 496 935 543 899 l 707 843 b 435 1067 701 981 590 1067 b 163 843 279 1067 168 981 l 324 843 b 435 935 326 899 374 935 z m 406 765 b 74 678 288 765 160 735 l 163 499 b 367 564 214 539 294 564 b 526 444 471 564 522 521 l 376 444 b 42 219 143 444 42 358 b 322 -12 42 89 142 -12 b 544 97 432 -12 507 25 l 544 0 l 790 0 l 790 418 b 406 765 790 657 650 765 z m 396 154 b 297 231 333 154 297 186 b 413 307 297 276 328 307 l 526 307 l 526 242 b 396 154 506 182 454 154 z "},"ā":{"ha":872,"x_min":0,"x_max":0,"o":"m 708 1019 l 161 1019 l 161 878 l 708 878 z m 406 765 b 74 678 288 765 160 735 l 163 499 b 367 564 214 539 294 564 b 526 444 471 564 522 521 l 376 444 b 42 219 143 444 42 358 b 322 -12 42 89 142 -12 b 544 97 432 -12 507 25 l 544 0 l 790 0 l 790 418 b 406 765 790 657 650 765 z m 396 154 b 297 231 333 154 297 186 b 413 307 297 276 328 307 l 526 307 l 526 242 b 396 154 506 182 454 154 z "},"ą":{"ha":872,"x_min":0,"x_max":0,"o":"m 790 -182 b 707 -203 769 -193 738 -203 b 631 -142 657 -203 631 -178 b 790 0 631 -94 671 -53 l 790 418 b 406 765 790 657 650 765 b 74 678 288 765 160 735 l 163 499 b 367 564 214 539 294 564 b 526 444 471 564 522 521 l 376 444 b 42 219 143 444 42 358 b 322 -12 42 89 142 -12 b 544 97 432 -12 507 25 l 544 0 l 567 0 b 471 -165 503 -46 471 -103 b 676 -328 471 -262 546 -328 b 825 -296 732 -328 790 -314 z m 396 154 b 297 231 333 154 297 186 b 413 307 297 276 328 307 l 526 307 l 526 242 b 396 154 506 182 454 154 z "},"å":{"ha":872,"x_min":0,"x_max":0,"o":"m 435 821 b 618 997 538 821 618 899 b 435 1175 618 1096 538 1175 b 251 997 331 1175 251 1096 b 435 821 251 899 331 821 z m 435 1078 b 514 997 479 1078 514 1044 b 435 918 514 951 479 918 b 356 997 390 918 356 951 b 435 1078 356 1044 390 1078 z m 406 765 b 74 678 288 765 160 735 l 163 499 b 367 564 214 539 294 564 b 526 444 471 564 522 521 l 376 444 b 42 219 143 444 42 358 b 322 -12 42 89 142 -12 b 544 97 432 -12 507 25 l 544 0 l 790 0 l 790 418 b 406 765 790 657 650 765 z m 396 154 b 297 231 333 154 297 186 b 413 307 297 276 328 307 l 526 307 l 526 242 b 396 154 506 182 454 154 z "},"ǻ":{"ha":872,"x_min":0,"x_max":0,"o":"m 435 821 b 618 997 538 821 618 899 b 594 1085 618 1029 610 1058 l 756 1194 l 626 1292 l 503 1163 b 435 1175 482 1171 458 1175 b 251 997 331 1175 251 1096 b 435 821 251 899 331 821 z m 435 1078 b 514 997 479 1078 514 1044 b 435 918 514 951 479 918 b 356 997 390 918 356 951 b 435 1078 356 1044 390 1078 z m 406 765 b 74 678 288 765 160 735 l 163 499 b 367 564 214 539 294 564 b 526 444 471 564 522 521 l 376 444 b 42 219 143 444 42 358 b 322 -12 42 89 142 -12 b 544 97 432 -12 507 25 l 544 0 l 790 0 l 790 418 b 406 765 790 657 650 765 z m 396 154 b 297 231 333 154 297 186 b 413 307 297 276 328 307 l 526 307 l 526 242 b 396 154 506 182 454 154 z "},"ã":{"ha":872,"x_min":0,"x_max":0,"o":"m 343 919 b 543 833 393 919 444 833 b 719 1051 650 833 717 921 l 590 1051 b 526 982 588 1008 564 982 b 326 1067 476 982 425 1067 b 150 846 219 1067 153 981 l 279 846 b 343 919 282 892 306 919 z m 406 765 b 74 678 288 765 160 735 l 163 499 b 367 564 214 539 294 564 b 526 444 471 564 522 521 l 376 444 b 42 219 143 444 42 358 b 322 -12 42 89 142 -12 b 544 97 432 -12 507 25 l 544 0 l 790 0 l 790 418 b 406 765 790 657 650 765 z m 396 154 b 297 231 333 154 297 186 b 413 307 297 276 328 307 l 526 307 l 526 242 b 396 154 506 182 454 154 z "},"æ":{"ha":1388,"x_min":0,"x_max":0,"o":"m 1350 381 b 950 765 1350 622 1165 765 b 679 671 844 765 750 731 b 404 765 617 735 522 765 b 74 678 285 765 160 735 l 163 499 b 368 564 214 539 292 564 b 526 447 469 564 521 519 l 376 447 b 42 228 143 447 42 358 b 369 -12 42 85 164 -12 b 653 110 482 -12 585 17 b 976 -12 735 24 851 -12 b 1294 110 1111 -12 1219 29 l 1156 254 b 981 189 1101 210 1049 189 b 799 308 885 189 819 233 l 1346 308 b 1350 381 1349 329 1350 353 z m 946 578 b 1097 447 1021 578 1083 531 l 793 447 b 946 578 808 531 872 578 z m 399 154 b 297 233 333 154 297 185 b 413 308 297 278 326 308 l 526 308 l 526 278 b 399 154 526 203 479 154 z "},"ǽ":{"ha":1388,"x_min":0,"x_max":0,"o":"m 972 1054 l 708 1054 l 522 843 l 711 843 z m 1350 381 b 950 765 1350 622 1165 765 b 679 671 844 765 750 731 b 404 765 617 735 522 765 b 74 678 285 765 160 735 l 163 499 b 368 564 214 539 292 564 b 526 447 469 564 521 519 l 376 447 b 42 228 143 447 42 358 b 369 -12 42 85 164 -12 b 653 110 482 -12 585 17 b 976 -12 735 24 851 -12 b 1294 110 1111 -12 1219 29 l 1156 254 b 981 189 1101 210 1049 189 b 799 308 885 189 819 233 l 1346 308 b 1350 381 1349 329 1350 353 z m 946 578 b 1097 447 1021 578 1083 531 l 793 447 b 946 578 808 531 872 578 z m 399 154 b 297 233 333 154 297 185 b 413 308 297 278 326 308 l 526 308 l 526 278 b 399 154 526 203 479 154 z "},"b":{"ha":965,"x_min":0,"x_max":0,"o":"m 558 765 b 349 688 471 765 400 740 l 349 1031 l 85 1031 l 85 0 l 336 0 l 336 75 b 558 -12 386 15 460 -12 b 928 378 763 -12 928 138 b 558 765 928 617 763 765 z m 503 197 b 344 378 414 197 344 263 b 503 556 344 492 414 556 b 661 378 592 556 661 492 b 503 197 661 263 592 197 z "},"c":{"ha":838,"x_min":0,"x_max":0,"o":"m 469 -12 b 822 194 640 -12 771 64 l 618 299 b 468 197 582 228 529 197 b 304 378 376 197 304 261 b 468 556 304 492 376 556 b 618 454 529 556 582 525 l 822 558 b 469 765 771 689 640 765 b 38 378 217 765 38 604 b 469 -12 38 149 217 -12 z "},"ć":{"ha":838,"x_min":0,"x_max":0,"o":"m 306 843 l 494 843 l 756 1054 l 492 1054 z m 469 -12 b 822 194 640 -12 771 64 l 618 299 b 468 197 582 228 529 197 b 304 378 376 197 304 261 b 468 556 304 492 376 556 b 618 454 529 556 582 525 l 822 558 b 469 765 771 689 640 765 b 38 378 217 765 38 604 b 469 -12 38 149 217 -12 z "},"č":{"ha":838,"x_min":0,"x_max":0,"o":"m 556 843 l 736 1054 l 561 1054 l 442 949 l 322 1054 l 147 1054 l 328 843 z m 468 197 b 304 378 376 197 304 261 b 468 556 304 492 376 556 b 618 454 529 556 582 525 l 822 558 b 469 765 771 689 640 765 b 38 378 217 765 38 604 b 469 -12 38 149 217 -12 b 822 194 640 -12 771 64 l 618 299 b 468 197 582 228 529 197 z "},"ç":{"ha":838,"x_min":0,"x_max":0,"o":"m 468 197 b 304 378 376 197 304 261 b 468 556 304 492 376 556 b 618 454 529 556 582 525 l 822 558 b 469 765 771 689 640 765 b 38 378 217 765 38 604 b 361 -1 38 183 167 38 l 328 -140 l 379 -140 b 442 -175 424 -140 442 -154 b 372 -214 442 -197 422 -214 b 286 -194 339 -214 310 -206 l 250 -299 b 382 -328 281 -315 335 -328 b 601 -183 514 -328 601 -272 b 482 -71 601 -132 568 -81 l 496 -12 b 822 194 654 -4 774 71 l 618 299 b 468 197 582 228 529 197 z "},"ḉ":{"ha":838,"x_min":0,"x_max":0,"o":"m 756 1054 l 492 1054 l 306 843 l 494 843 z m 468 197 b 304 378 376 197 304 261 b 468 556 304 492 376 556 b 618 454 529 556 582 525 l 822 558 b 469 765 771 689 640 765 b 38 378 217 765 38 604 b 361 -1 38 183 167 38 l 328 -140 l 379 -140 b 442 -175 424 -140 442 -154 b 372 -214 442 -197 422 -214 b 286 -194 339 -214 310 -206 l 250 -299 b 382 -328 281 -315 335 -328 b 601 -183 514 -328 601 -272 b 482 -71 601 -132 568 -81 l 496 -12 b 822 194 654 -4 774 71 l 618 299 b 468 197 582 228 529 197 z "},"ĉ":{"ha":838,"x_min":0,"x_max":0,"o":"m 442 949 l 561 843 l 736 843 l 556 1054 l 328 1054 l 147 843 l 322 843 z m 468 197 b 304 378 376 197 304 261 b 468 556 304 492 376 556 b 618 454 529 556 582 525 l 822 558 b 469 765 771 689 640 765 b 38 378 217 765 38 604 b 469 -12 38 149 217 -12 b 822 194 640 -12 771 64 l 618 299 b 468 197 582 228 529 197 z "},"ċ":{"ha":838,"x_min":0,"x_max":0,"o":"m 442 840 b 579 978 522 840 579 897 b 442 1114 579 1057 522 1114 b 304 978 361 1114 304 1057 b 442 840 304 897 361 840 z m 469 -12 b 822 194 640 -12 771 64 l 618 299 b 468 197 582 228 529 197 b 304 378 376 197 304 261 b 468 556 304 492 376 556 b 618 454 529 556 582 525 l 822 558 b 469 765 771 689 640 765 b 38 378 217 765 38 604 b 469 -12 38 149 217 -12 z "},"d":{"ha":969,"x_min":0,"x_max":0,"o":"m 621 1031 l 621 688 b 413 765 571 740 500 765 b 42 378 207 765 42 617 b 413 -12 42 138 207 -12 b 633 75 510 -12 583 15 l 633 0 l 885 0 l 885 1031 z m 468 197 b 310 378 378 197 310 263 b 468 556 310 492 378 556 b 625 378 557 556 625 492 b 468 197 625 263 557 197 z "},"ð":{"ha":925,"x_min":0,"x_max":0,"o":"m 781 849 l 851 875 l 806 994 l 678 947 b 331 1040 586 1008 469 1040 b 111 1015 249 1040 179 1031 l 139 818 b 317 846 193 836 257 846 b 392 840 343 846 368 844 l 158 753 l 204 635 l 543 760 b 611 544 586 710 608 639 b 385 624 557 596 482 624 b 38 313 193 624 38 501 b 425 -19 38 111 207 -19 b 888 472 707 -19 888 164 b 781 849 888 631 850 756 z m 446 176 b 306 301 365 176 306 225 b 447 428 306 379 364 428 b 589 301 528 428 589 376 b 446 176 589 229 531 176 z "},"ď":{"ha":969,"x_min":0,"x_max":0,"o":"m 993 1093 l 993 808 l 1149 808 l 1183 1093 z m 621 688 b 413 765 571 740 500 765 b 42 378 207 765 42 617 b 413 -12 42 138 207 -12 b 633 75 510 -12 583 15 l 633 0 l 885 0 l 885 1031 l 621 1031 z m 468 197 b 310 378 378 197 310 263 b 468 556 310 492 378 556 b 625 378 557 556 625 492 b 468 197 625 263 557 197 z "},"đ":{"ha":969,"x_min":0,"x_max":0,"o":"m 972 956 l 885 956 l 885 1031 l 621 1031 l 621 956 l 389 956 l 389 818 l 621 818 l 621 688 b 413 765 571 740 500 765 b 42 378 207 765 42 617 b 413 -12 42 138 207 -12 b 633 75 510 -12 583 15 l 633 0 l 885 0 l 885 818 l 972 818 z m 468 197 b 310 378 378 197 310 263 b 468 556 310 492 378 556 b 625 378 557 556 625 492 b 468 197 625 263 557 197 z "},"ḍ":{"ha":969,"x_min":0,"x_max":0,"o":"m 621 1031 l 621 688 b 413 765 571 740 500 765 b 42 378 207 765 42 617 b 413 -12 42 138 207 -12 b 633 75 510 -12 583 15 l 633 0 l 885 0 l 885 1031 z m 468 197 b 310 378 378 197 310 263 b 468 556 310 492 378 556 b 625 378 557 556 625 492 b 468 197 625 263 557 197 z m 517 -86 b 407 -196 454 -86 407 -131 b 517 -303 407 -261 454 -303 b 626 -196 579 -303 626 -261 b 517 -86 626 -131 579 -86 z "},"ḏ":{"ha":969,"x_min":0,"x_max":0,"o":"m 621 1031 l 621 688 b 413 765 571 740 500 765 b 42 378 207 765 42 617 b 413 -12 42 138 207 -12 b 633 75 510 -12 583 15 l 633 0 l 885 0 l 885 1031 z m 468 197 b 310 378 378 197 310 263 b 468 556 310 492 378 556 b 625 378 557 556 625 492 b 468 197 625 263 557 197 z m 243 -260 l 790 -260 l 790 -118 l 243 -118 z "},"ǆ":{"ha":1729,"x_min":0,"x_max":0,"o":"m 1460 843 l 1640 1054 l 1465 1054 l 1346 949 l 1226 1054 l 1051 1054 l 1232 843 z m 621 688 b 413 765 571 740 500 765 b 42 378 207 765 42 617 b 413 -12 42 138 207 -12 b 633 75 510 -12 583 15 l 633 0 l 885 0 l 885 1031 l 621 1031 z m 1332 197 l 1681 599 l 1681 753 l 1010 753 l 1010 557 l 1349 557 l 1000 156 l 1000 0 l 1694 0 l 1694 197 z m 468 197 b 310 378 378 197 310 263 b 468 556 310 492 378 556 b 625 378 557 556 625 492 b 468 197 625 263 557 197 z "},"e":{"ha":892,"x_min":0,"x_max":0,"o":"m 854 375 b 451 765 854 624 674 765 b 38 378 214 765 38 604 b 479 -12 38 153 211 -12 b 800 110 622 -12 728 29 l 661 254 b 488 189 610 210 561 189 b 303 310 390 189 325 233 l 850 310 b 854 375 851 331 854 356 z m 453 578 b 607 449 535 578 593 528 l 299 449 b 453 578 314 528 371 578 z "},"é":{"ha":892,"x_min":0,"x_max":0,"o":"m 760 1054 l 496 1054 l 310 843 l 499 843 z m 854 375 b 451 765 854 624 674 765 b 38 378 214 765 38 604 b 479 -12 38 153 211 -12 b 800 110 622 -12 728 29 l 661 254 b 488 189 610 210 561 189 b 303 310 390 189 325 233 l 850 310 b 854 375 851 331 854 356 z m 453 578 b 607 449 535 578 593 528 l 299 449 b 453 578 314 528 371 578 z "},"ĕ":{"ha":892,"x_min":0,"x_max":0,"o":"m 446 831 b 718 1054 601 831 713 917 l 557 1054 b 446 963 554 999 507 963 b 335 1054 385 963 338 999 l 174 1054 b 446 831 179 917 290 831 z m 854 375 b 451 765 854 624 674 765 b 38 378 214 765 38 604 b 479 -12 38 153 211 -12 b 800 110 622 -12 728 29 l 661 254 b 488 189 610 210 561 189 b 303 310 390 189 325 233 l 850 310 b 854 375 851 331 854 356 z m 453 578 b 607 449 535 578 593 528 l 299 449 b 453 578 314 528 371 578 z "},"ě":{"ha":892,"x_min":0,"x_max":0,"o":"m 560 843 l 740 1054 l 565 1054 l 446 949 l 326 1054 l 151 1054 l 332 843 z m 854 375 b 451 765 854 624 674 765 b 38 378 214 765 38 604 b 479 -12 38 153 211 -12 b 800 110 622 -12 728 29 l 661 254 b 488 189 610 210 561 189 b 303 310 390 189 325 233 l 850 310 b 854 375 851 331 854 356 z m 453 578 b 607 449 535 578 593 528 l 299 449 b 453 578 314 528 371 578 z "},"ḝ":{"ha":892,"x_min":0,"x_max":0,"o":"m 446 831 b 718 1054 601 831 713 917 l 557 1054 b 446 963 554 999 507 963 b 335 1054 385 963 338 999 l 174 1054 b 446 831 179 917 290 831 z m 854 375 b 451 765 854 624 674 765 b 38 378 214 765 38 604 b 372 -3 38 185 167 35 l 340 -140 l 392 -140 b 454 -175 436 -140 454 -154 b 385 -214 454 -197 435 -214 b 299 -194 351 -214 322 -206 l 263 -299 b 394 -328 293 -315 347 -328 b 614 -183 526 -328 614 -272 b 494 -71 614 -132 581 -81 l 508 -12 b 800 110 636 -7 733 35 l 661 254 b 488 189 610 210 561 189 b 303 310 390 189 325 233 l 850 310 b 854 375 851 331 854 356 z m 453 578 b 607 449 535 578 593 528 l 299 449 b 453 578 314 528 371 578 z "},"ê":{"ha":892,"x_min":0,"x_max":0,"o":"m 446 949 l 565 843 l 740 843 l 560 1054 l 332 1054 l 151 843 l 326 843 z m 854 375 b 451 765 854 624 674 765 b 38 378 214 765 38 604 b 479 -12 38 153 211 -12 b 800 110 622 -12 728 29 l 661 254 b 488 189 610 210 561 189 b 303 310 390 189 325 233 l 850 310 b 854 375 851 331 854 356 z m 453 578 b 607 449 535 578 593 528 l 299 449 b 453 578 314 528 371 578 z "},"ế":{"ha":892,"x_min":0,"x_max":0,"o":"m 1035 1156 l 776 1156 l 629 982 l 811 982 z m 446 925 l 564 843 l 740 843 l 558 1013 l 333 1013 l 151 843 l 328 843 z m 451 765 b 38 378 214 765 38 604 b 479 -12 38 153 211 -12 b 800 110 622 -12 728 29 l 661 254 b 488 189 610 210 561 189 b 303 310 390 189 325 233 l 850 310 b 854 375 851 331 854 356 b 451 765 854 624 674 765 z m 453 578 b 607 449 535 578 593 528 l 299 449 b 453 578 314 528 371 578 z "},"ệ":{"ha":892,"x_min":0,"x_max":0,"o":"m 446 949 l 565 843 l 740 843 l 560 1054 l 332 1054 l 151 843 l 326 843 z m 854 375 b 451 765 854 624 674 765 b 38 378 214 765 38 604 b 479 -12 38 153 211 -12 b 800 110 622 -12 728 29 l 661 254 b 488 189 610 210 561 189 b 303 310 390 189 325 233 l 850 310 b 854 375 851 331 854 356 z m 453 578 b 607 449 535 578 593 528 l 299 449 b 453 578 314 528 371 578 z m 446 -86 b 336 -196 383 -86 336 -131 b 446 -303 336 -261 383 -303 b 556 -196 508 -303 556 -261 b 446 -86 556 -131 508 -86 z "},"ề":{"ha":892,"x_min":0,"x_max":0,"o":"m 893 982 l 746 1156 l 488 1156 l 713 982 z m 446 925 l 564 843 l 740 843 l 558 1013 l 333 1013 l 151 843 l 328 843 z m 451 765 b 38 378 214 765 38 604 b 479 -12 38 153 211 -12 b 800 110 622 -12 728 29 l 661 254 b 488 189 610 210 561 189 b 303 310 390 189 325 233 l 850 310 b 854 375 851 331 854 356 b 451 765 854 624 674 765 z m 453 578 b 607 449 535 578 593 528 l 299 449 b 453 578 314 528 371 578 z "},"ể":{"ha":892,"x_min":0,"x_max":0,"o":"m 661 1104 b 706 1067 686 1104 706 1089 b 656 1011 706 1050 693 1031 l 718 954 b 821 1081 774 976 821 1021 b 683 1196 821 1151 767 1196 b 557 1163 638 1196 592 1185 l 599 1088 b 661 1104 621 1099 639 1104 z m 446 925 l 564 843 l 740 843 l 558 1013 l 333 1013 l 151 843 l 328 843 z m 854 375 b 451 765 854 624 674 765 b 38 378 214 765 38 604 b 479 -12 38 153 211 -12 b 800 110 622 -12 728 29 l 661 254 b 488 189 610 210 561 189 b 303 310 390 189 325 233 l 850 310 b 854 375 851 331 854 356 z m 453 578 b 607 449 535 578 593 528 l 299 449 b 453 578 314 528 371 578 z "},"ễ":{"ha":892,"x_min":0,"x_max":0,"o":"m 358 1132 b 550 1061 401 1132 451 1061 b 725 1250 661 1061 724 1133 l 597 1250 b 536 1190 594 1217 572 1190 b 343 1261 492 1190 439 1261 b 167 1072 235 1261 168 1193 l 299 1072 b 358 1132 301 1108 324 1132 z m 446 925 l 564 843 l 740 843 l 558 1013 l 333 1013 l 151 843 l 328 843 z m 854 375 b 451 765 854 624 674 765 b 38 378 214 765 38 604 b 479 -12 38 153 211 -12 b 800 110 622 -12 728 29 l 661 254 b 488 189 610 210 561 189 b 303 310 390 189 325 233 l 850 310 b 854 375 851 331 854 356 z m 453 578 b 607 449 535 578 593 528 l 299 449 b 453 578 314 528 371 578 z "},"ȅ":{"ha":892,"x_min":0,"x_max":0,"o":"m 386 843 l 300 1054 l 64 1054 l 203 843 z m 689 843 l 601 1054 l 365 1054 l 506 843 z m 854 375 b 451 765 854 624 674 765 b 38 378 214 765 38 604 b 479 -12 38 153 211 -12 b 800 110 622 -12 728 29 l 661 254 b 488 189 610 210 561 189 b 303 310 390 189 325 233 l 850 310 b 854 375 851 331 854 356 z m 453 578 b 607 449 535 578 593 528 l 299 449 b 453 578 314 528 371 578 z "},"ë":{"ha":892,"x_min":0,"x_max":0,"o":"m 299 842 b 408 950 361 842 408 885 b 299 1060 408 1015 361 1060 b 189 950 236 1060 189 1015 b 299 842 189 885 236 842 z m 593 842 b 703 950 656 842 703 885 b 593 1060 703 1015 656 1060 b 483 950 531 1060 483 1015 b 593 842 483 885 531 842 z m 854 375 b 451 765 854 624 674 765 b 38 378 214 765 38 604 b 479 -12 38 153 211 -12 b 800 110 622 -12 728 29 l 661 254 b 488 189 610 210 561 189 b 303 310 390 189 325 233 l 850 310 b 854 375 851 331 854 356 z m 453 578 b 607 449 535 578 593 528 l 299 449 b 453 578 314 528 371 578 z "},"ė":{"ha":892,"x_min":0,"x_max":0,"o":"m 446 840 b 583 978 526 840 583 897 b 446 1114 583 1057 526 1114 b 308 978 365 1114 308 1057 b 446 840 308 897 365 840 z m 854 375 b 451 765 854 624 674 765 b 38 378 214 765 38 604 b 479 -12 38 153 211 -12 b 800 110 622 -12 728 29 l 661 254 b 488 189 610 210 561 189 b 303 310 390 189 325 233 l 850 310 b 854 375 851 331 854 356 z m 453 578 b 607 449 535 578 593 528 l 299 449 b 453 578 314 528 371 578 z "},"ẹ":{"ha":892,"x_min":0,"x_max":0,"o":"m 854 375 b 451 765 854 624 674 765 b 38 378 214 765 38 604 b 479 -12 38 153 211 -12 b 800 110 622 -12 728 29 l 661 254 b 488 189 610 210 561 189 b 303 310 390 189 325 233 l 850 310 b 854 375 851 331 854 356 z m 453 578 b 607 449 535 578 593 528 l 299 449 b 453 578 314 528 371 578 z m 446 -86 b 336 -196 383 -86 336 -131 b 446 -303 336 -261 383 -303 b 556 -196 508 -303 556 -261 b 446 -86 556 -131 508 -86 z "},"è":{"ha":892,"x_min":0,"x_max":0,"o":"m 582 843 l 396 1054 l 132 1054 l 393 843 z m 854 375 b 451 765 854 624 674 765 b 38 378 214 765 38 604 b 479 -12 38 153 211 -12 b 800 110 622 -12 728 29 l 661 254 b 488 189 610 210 561 189 b 303 310 390 189 325 233 l 850 310 b 854 375 851 331 854 356 z m 453 578 b 607 449 535 578 593 528 l 299 449 b 453 578 314 528 371 578 z "},"ẻ":{"ha":892,"x_min":0,"x_max":0,"o":"m 421 1046 b 483 990 458 1046 483 1025 b 415 910 483 961 468 935 l 496 829 b 632 1013 585 869 632 928 b 450 1172 632 1107 558 1172 b 286 1121 390 1172 331 1156 l 340 1018 b 421 1046 368 1038 393 1046 z m 854 375 b 451 765 854 624 674 765 b 38 378 214 765 38 604 b 479 -12 38 153 211 -12 b 800 110 622 -12 728 29 l 661 254 b 488 189 610 210 561 189 b 303 310 390 189 325 233 l 850 310 b 854 375 851 331 854 356 z m 453 578 b 607 449 535 578 593 528 l 299 449 b 453 578 314 528 371 578 z "},"ȇ":{"ha":892,"x_min":0,"x_max":0,"o":"m 446 935 b 557 843 507 935 554 899 l 718 843 b 446 1067 713 981 601 1067 b 174 843 290 1067 179 981 l 335 843 b 446 935 338 899 385 935 z m 854 375 b 451 765 854 624 674 765 b 38 378 214 765 38 604 b 479 -12 38 153 211 -12 b 800 110 622 -12 728 29 l 661 254 b 488 189 610 210 561 189 b 303 310 390 189 325 233 l 850 310 b 854 375 851 331 854 356 z m 453 578 b 607 449 535 578 593 528 l 299 449 b 453 578 314 528 371 578 z "},"ē":{"ha":892,"x_min":0,"x_max":0,"o":"m 719 1019 l 172 1019 l 172 878 l 719 878 z m 854 375 b 451 765 854 624 674 765 b 38 378 214 765 38 604 b 479 -12 38 153 211 -12 b 800 110 622 -12 728 29 l 661 254 b 488 189 610 210 561 189 b 303 310 390 189 325 233 l 850 310 b 854 375 851 331 854 356 z m 453 578 b 607 449 535 578 593 528 l 299 449 b 453 578 314 528 371 578 z "},"ḗ":{"ha":892,"x_min":0,"x_max":0,"o":"m 719 1256 l 461 1256 l 314 1082 l 496 1082 z m 719 996 l 172 996 l 172 860 l 719 860 z m 854 375 b 451 765 854 624 674 765 b 38 378 214 765 38 604 b 479 -12 38 153 211 -12 b 800 110 622 -12 728 29 l 661 254 b 488 189 610 210 561 189 b 303 310 390 189 325 233 l 850 310 b 854 375 851 331 854 356 z m 453 578 b 607 449 535 578 593 528 l 299 449 b 453 578 314 528 371 578 z "},"ḕ":{"ha":892,"x_min":0,"x_max":0,"o":"m 578 1082 l 431 1256 l 172 1256 l 397 1082 z m 719 996 l 172 996 l 172 860 l 719 860 z m 854 375 b 451 765 854 624 674 765 b 38 378 214 765 38 604 b 479 -12 38 153 211 -12 b 800 110 622 -12 728 29 l 661 254 b 488 189 610 210 561 189 b 303 310 390 189 325 233 l 850 310 b 854 375 851 331 854 356 z m 453 578 b 607 449 535 578 593 528 l 299 449 b 453 578 314 528 371 578 z "},"ę":{"ha":892,"x_min":0,"x_max":0,"o":"m 854 375 b 451 765 854 624 674 765 b 38 378 214 765 38 604 b 479 -12 38 153 211 -12 l 499 -12 b 428 -160 454 -53 428 -107 b 633 -328 428 -262 504 -328 b 782 -296 689 -328 749 -314 l 747 -182 b 667 -203 726 -193 694 -203 b 588 -133 618 -203 588 -175 b 743 58 588 -82 614 -28 b 800 110 764 74 783 90 l 661 254 b 488 189 610 210 561 189 b 303 310 390 189 325 233 l 850 310 b 854 375 851 331 854 356 z m 453 578 b 607 449 535 578 593 528 l 299 449 b 453 578 314 528 371 578 z "},"ẽ":{"ha":892,"x_min":0,"x_max":0,"o":"m 354 919 b 554 833 404 919 456 833 b 731 1051 661 833 728 921 l 601 1051 b 538 982 599 1008 575 982 b 338 1067 488 982 436 1067 b 161 846 231 1067 164 981 l 290 846 b 354 919 293 892 317 919 z m 854 375 b 451 765 854 624 674 765 b 38 378 214 765 38 604 b 479 -12 38 153 211 -12 b 800 110 622 -12 728 29 l 661 254 b 488 189 610 210 561 189 b 303 310 390 189 325 233 l 850 310 b 854 375 851 331 854 356 z m 453 578 b 607 449 535 578 593 528 l 299 449 b 453 578 314 528 371 578 z "},"ə":{"ha":892,"x_min":0,"x_max":0,"o":"m 413 765 b 92 643 269 765 164 724 l 231 499 b 404 564 282 543 331 564 b 589 443 501 564 567 519 l 42 443 b 38 378 40 422 38 397 b 440 -12 38 129 218 -12 b 854 375 678 -12 854 149 b 413 765 854 600 681 765 z m 439 175 b 285 304 357 175 299 225 l 593 304 b 439 175 578 225 521 175 z "},"ʒ":{"ha":790,"x_min":0,"x_max":0,"o":"m 511 344 l 714 581 l 714 753 l 18 753 l 18 540 l 406 540 l 228 332 l 228 160 l 343 160 b 492 53 449 160 492 118 b 336 -60 492 -19 431 -60 b 67 26 244 -60 144 -31 l -25 -181 b 346 -282 71 -246 211 -282 b 764 53 635 -282 764 -121 b 511 344 764 200 676 311 z "},"ǯ":{"ha":790,"x_min":0,"x_max":0,"o":"m 472 843 l 653 1054 l 478 1054 l 358 949 l 239 1054 l 64 1054 l 244 843 z m 511 344 l 714 581 l 714 753 l 18 753 l 18 540 l 406 540 l 228 332 l 228 160 l 343 160 b 492 53 449 160 492 118 b 336 -60 492 -19 431 -60 b 67 26 244 -60 144 -31 l -25 -181 b 346 -282 71 -246 211 -282 b 764 53 635 -282 764 -121 b 511 344 764 200 676 311 z "},"f":{"ha":564,"x_min":0,"x_max":0,"o":"m 372 742 b 460 840 372 808 404 840 b 539 818 488 840 517 831 l 604 1004 b 429 1043 561 1031 493 1043 b 115 744 228 1043 115 925 l 115 725 l 6 725 l 6 528 l 115 528 l 115 0 l 379 0 l 379 528 l 551 528 l 551 725 l 372 725 z "},"g":{"ha":979,"x_min":0,"x_max":0,"o":"m 643 753 l 643 661 b 407 765 592 732 511 765 b 38 403 207 765 38 624 b 407 39 38 181 207 39 b 631 128 503 39 579 68 l 631 103 b 429 -79 631 -15 571 -79 b 175 1 340 -79 238 -49 l 79 -183 b 453 -282 171 -249 308 -282 b 894 138 733 -282 894 -147 l 894 753 z m 469 249 b 304 403 375 249 304 311 b 469 556 304 494 375 556 b 633 403 564 556 633 494 b 469 249 633 311 564 249 z "},"ğ":{"ha":979,"x_min":0,"x_max":0,"o":"m 483 831 b 756 1054 639 831 750 917 l 594 1054 b 483 963 592 999 544 963 b 372 1054 422 963 375 999 l 211 1054 b 483 831 217 917 328 831 z m 643 753 l 643 661 b 407 765 592 732 511 765 b 38 403 207 765 38 624 b 407 39 38 181 207 39 b 631 128 503 39 579 68 l 631 103 b 429 -79 631 -15 571 -79 b 175 1 340 -79 238 -49 l 79 -183 b 453 -282 171 -249 308 -282 b 894 138 733 -282 894 -147 l 894 753 z m 469 249 b 304 403 375 249 304 311 b 469 556 304 494 375 556 b 633 403 564 556 633 494 b 469 249 633 311 564 249 z "},"ǧ":{"ha":979,"x_min":0,"x_max":0,"o":"m 597 843 l 778 1054 l 603 1054 l 483 949 l 364 1054 l 189 1054 l 369 843 z m 643 753 l 643 661 b 407 765 592 732 511 765 b 38 403 207 765 38 624 b 407 39 38 181 207 39 b 631 128 503 39 579 68 l 631 103 b 429 -79 631 -15 571 -79 b 175 1 340 -79 238 -49 l 79 -183 b 453 -282 171 -249 308 -282 b 894 138 733 -282 894 -147 l 894 753 z m 469 249 b 304 403 375 249 304 311 b 469 556 304 494 375 556 b 633 403 564 556 633 494 b 469 249 633 311 564 249 z "},"ĝ":{"ha":979,"x_min":0,"x_max":0,"o":"m 483 949 l 603 843 l 778 843 l 597 1054 l 369 1054 l 189 843 l 364 843 z m 643 753 l 643 661 b 407 765 592 732 511 765 b 38 403 207 765 38 624 b 407 39 38 181 207 39 b 631 128 503 39 579 68 l 631 103 b 429 -79 631 -15 571 -79 b 175 1 340 -79 238 -49 l 79 -183 b 453 -282 171 -249 308 -282 b 894 138 733 -282 894 -147 l 894 753 z m 469 249 b 304 403 375 249 304 311 b 469 556 304 494 375 556 b 633 403 564 556 633 494 b 469 249 633 311 564 249 z "},"ģ":{"ha":979,"x_min":0,"x_max":0,"o":"m 483 831 b 613 924 569 831 613 868 b 547 1007 613 964 590 993 l 599 1146 l 458 1146 l 390 1024 b 354 924 363 976 354 949 b 483 831 354 868 397 831 z m 643 753 l 643 661 b 407 765 592 732 511 765 b 38 403 207 765 38 624 b 407 39 38 181 207 39 b 631 128 503 39 579 68 l 631 103 b 429 -79 631 -15 571 -79 b 175 1 340 -79 238 -49 l 79 -183 b 453 -282 171 -249 308 -282 b 894 138 733 -282 894 -147 l 894 753 z m 469 249 b 304 403 375 249 304 311 b 469 556 304 494 375 556 b 633 403 564 556 633 494 b 469 249 633 311 564 249 z "},"ġ":{"ha":979,"x_min":0,"x_max":0,"o":"m 483 840 b 621 978 564 840 621 897 b 483 1114 621 1057 564 1114 b 346 978 403 1114 346 1057 b 483 840 346 897 403 840 z m 643 753 l 643 661 b 407 765 592 732 511 765 b 38 403 207 765 38 624 b 407 39 38 181 207 39 b 631 128 503 39 579 68 l 631 103 b 429 -79 631 -15 571 -79 b 175 1 340 -79 238 -49 l 79 -183 b 453 -282 171 -249 308 -282 b 894 138 733 -282 894 -147 l 894 753 z m 469 249 b 304 403 375 249 304 311 b 469 556 304 494 375 556 b 633 403 564 556 633 494 b 469 249 633 311 564 249 z "},"ḡ":{"ha":979,"x_min":0,"x_max":0,"o":"m 757 1019 l 210 1019 l 210 878 l 757 878 z m 643 753 l 643 661 b 407 765 592 732 511 765 b 38 403 207 765 38 624 b 407 39 38 181 207 39 b 631 128 503 39 579 68 l 631 103 b 429 -79 631 -15 571 -79 b 175 1 340 -79 238 -49 l 79 -183 b 453 -282 171 -249 308 -282 b 894 138 733 -282 894 -147 l 894 753 z m 469 249 b 304 403 375 249 304 311 b 469 556 304 494 375 556 b 633 403 564 556 633 494 b 469 249 633 311 564 249 z "},"ǥ":{"ha":997,"x_min":0,"x_max":0,"o":"m 982 75 l 892 75 b 894 138 893 94 894 115 l 894 753 l 643 753 l 643 661 b 396 764 588 731 501 764 b 38 438 182 764 38 628 b 397 108 38 246 182 108 b 632 197 496 108 576 138 l 631 182 l 631 93 l 631 74 l 372 74 l 372 -35 l 590 -35 b 432 -89 558 -71 506 -89 b 175 -8 336 -89 235 -57 l 79 -183 b 450 -282 168 -246 306 -282 b 869 -33 674 -282 817 -199 l 982 -33 z m 469 293 b 304 438 369 293 304 349 b 469 581 304 525 369 581 b 633 438 568 581 633 525 b 469 293 633 349 568 293 z "},"h":{"ha":967,"x_min":0,"x_max":0,"o":"m 575 765 b 349 683 486 765 407 738 l 349 1031 l 85 1031 l 85 0 l 349 0 l 349 364 b 499 542 349 489 414 542 b 622 388 575 542 622 496 l 622 0 l 886 0 l 886 431 b 575 765 886 664 751 765 z "},"ħ":{"ha":967,"x_min":0,"x_max":0,"o":"m 575 765 b 349 683 486 765 407 738 l 349 818 l 583 818 l 583 956 l 349 956 l 349 1031 l 85 1031 l 85 956 l 0 956 l 0 818 l 85 818 l 85 0 l 349 0 l 349 364 b 499 542 349 489 414 542 b 622 388 575 542 622 496 l 622 0 l 886 0 l 886 431 b 575 765 886 664 751 765 z "},"ḫ":{"ha":967,"x_min":0,"x_max":0,"o":"m 575 765 b 349 683 486 765 407 738 l 349 1031 l 85 1031 l 85 0 l 349 0 l 349 364 b 499 542 349 489 414 542 b 622 388 575 542 622 496 l 622 0 l 886 0 l 886 431 b 575 765 886 664 751 765 z m 489 -185 b 368 -99 421 -185 372 -150 l 217 -99 b 489 -307 224 -224 333 -307 b 761 -99 644 -307 754 -224 l 610 -99 b 489 -185 606 -150 557 -185 z "},"ȟ":{"ha":967,"x_min":0,"x_max":0,"o":"m 331 1121 l 511 1332 l 336 1332 l 217 1226 l 97 1332 l -78 1332 l 103 1121 z m 575 765 b 349 683 486 765 407 738 l 349 1031 l 85 1031 l 85 0 l 349 0 l 349 364 b 499 542 349 489 414 542 b 622 388 575 542 622 496 l 622 0 l 886 0 l 886 431 b 575 765 886 664 751 765 z "},"ĥ":{"ha":967,"x_min":0,"x_max":0,"o":"m 217 1215 l 336 1110 l 511 1110 l 331 1321 l 103 1321 l -78 1110 l 97 1110 z m 575 765 b 349 683 486 765 407 738 l 349 1031 l 85 1031 l 85 0 l 349 0 l 349 364 b 499 542 349 489 414 542 b 622 388 575 542 622 496 l 622 0 l 886 0 l 886 431 b 575 765 886 664 751 765 z "},"ḥ":{"ha":967,"x_min":0,"x_max":0,"o":"m 575 765 b 349 683 486 765 407 738 l 349 1031 l 85 1031 l 85 0 l 349 0 l 349 364 b 499 542 349 489 414 542 b 622 388 575 542 622 496 l 622 0 l 886 0 l 886 431 b 575 765 886 664 751 765 z m 489 -86 b 379 -196 426 -86 379 -131 b 489 -303 379 -261 426 -303 b 599 -196 551 -303 599 -261 b 489 -86 599 -131 551 -86 z "},"i":{"ha":435,"x_min":0,"x_max":0,"o":"m 217 836 b 378 981 314 836 378 897 b 217 1117 378 1060 314 1117 b 56 976 119 1117 56 1056 b 217 836 56 897 119 836 z m 85 0 l 349 0 l 349 753 l 85 753 z "},"ı":{"ha":435,"x_min":0,"x_max":0,"o":"m 85 0 l 349 0 l 349 753 l 85 753 z "},"í":{"ha":435,"x_min":0,"x_max":0,"o":"m 81 843 l 269 843 l 531 1054 l 267 1054 z m 85 0 l 349 0 l 349 753 l 85 753 z "},"ĭ":{"ha":435,"x_min":0,"x_max":0,"o":"m 217 831 b 454 1054 353 831 453 917 l 300 1054 b 217 960 300 999 269 960 b 133 1054 164 960 133 999 l -21 1054 b 217 831 -19 917 81 831 z m 85 0 l 349 0 l 349 753 l 85 753 z "},"î":{"ha":435,"x_min":0,"x_max":0,"o":"m 217 939 l 303 843 l 476 843 l 328 1054 l 106 1054 l -43 843 l 131 843 z m 85 0 l 349 0 l 349 753 l 85 753 z "},"ȉ":{"ha":435,"x_min":0,"x_max":0,"o":"m -26 843 l 157 843 l 71 1054 l -165 1054 z m 276 843 l 460 843 l 372 1054 l 136 1054 z m 85 0 l 349 0 l 349 753 l 85 753 z "},"ï":{"ha":435,"x_min":0,"x_max":0,"o":"m 96 842 b 197 950 153 842 197 885 b 96 1058 197 1014 153 1058 b -7 950 38 1058 -7 1014 b 96 842 -7 886 38 842 z m 339 842 b 440 950 396 842 440 885 b 339 1058 440 1014 396 1058 b 236 950 281 1058 236 1014 b 339 842 236 886 281 842 z m 85 0 l 349 0 l 349 753 l 85 753 z "},"ḯ":{"ha":435,"x_min":0,"x_max":0,"o":"m 85 1082 l 267 1082 l 490 1256 l 232 1256 z m 75 842 b 181 944 135 842 181 883 b 75 1049 181 1006 135 1049 b -29 944 17 1049 -29 1006 b 75 842 -29 883 17 842 z m 358 842 b 463 944 417 842 463 883 b 358 1049 463 1006 417 1049 b 254 944 300 1049 254 1006 b 358 842 254 883 300 842 z m 85 0 l 349 0 l 349 753 l 85 753 z "},"ị":{"ha":435,"x_min":0,"x_max":0,"o":"m 217 836 b 378 981 314 836 378 897 b 217 1117 378 1060 314 1117 b 56 976 119 1117 56 1056 b 217 836 56 897 119 836 z m 85 0 l 349 0 l 349 753 l 85 753 z m 217 -303 b 326 -196 279 -303 326 -261 b 217 -86 326 -131 279 -86 b 107 -196 154 -86 107 -131 b 217 -303 107 -261 154 -303 z "},"ì":{"ha":435,"x_min":0,"x_max":0,"o":"m 164 843 l 353 843 l 167 1054 l -97 1054 z m 85 0 l 349 0 l 349 753 l 85 753 z "},"ỉ":{"ha":435,"x_min":0,"x_max":0,"o":"m 267 829 b 403 1013 356 869 403 928 b 221 1172 403 1107 329 1172 b 57 1121 161 1172 101 1156 l 111 1018 b 192 1046 139 1038 164 1046 b 254 990 229 1046 254 1025 b 186 910 254 961 239 935 z m 85 0 l 349 0 l 349 753 l 85 753 z "},"ȋ":{"ha":435,"x_min":0,"x_max":0,"o":"m -21 843 l 133 843 b 217 938 133 899 164 938 b 300 843 269 938 300 899 l 454 843 b 217 1067 453 981 353 1067 b -21 843 81 1067 -19 981 z m 85 0 l 349 0 l 349 753 l 85 753 z "},"ĳ":{"ha":879,"x_min":0,"x_max":0,"o":"m 217 836 b 378 981 314 836 378 897 b 217 1117 378 1060 314 1117 b 56 976 119 1117 56 1056 b 217 836 56 897 119 836 z m 663 836 b 824 981 760 836 824 897 b 663 1117 824 1060 760 1117 b 501 976 565 1117 501 1056 b 663 836 501 897 565 836 z m 85 0 l 349 0 l 349 753 l 85 753 z m 488 -282 b 794 19 682 -282 794 -164 l 794 753 l 531 753 l 531 21 b 453 -78 531 -47 499 -78 b 371 -56 422 -78 393 -69 l 304 -243 b 488 -282 350 -269 418 -282 z "},"ī":{"ha":435,"x_min":0,"x_max":0,"o":"m -6 878 l 439 878 l 439 1019 l -6 1019 z m 85 0 l 349 0 l 349 753 l 85 753 z "},"į":{"ha":435,"x_min":0,"x_max":0,"o":"m 217 836 b 378 981 314 836 378 897 b 217 1117 378 1060 314 1117 b 56 976 119 1117 56 1056 b 217 836 56 897 119 836 z m 356 -187 b 311 -203 342 -197 326 -203 b 256 -140 281 -203 256 -178 b 349 0 256 -94 278 -51 l 349 753 l 85 753 l 85 0 l 174 0 b 94 -164 122 -46 94 -103 b 278 -328 94 -262 168 -328 b 388 -297 321 -328 361 -315 z "},"ĩ":{"ha":435,"x_min":0,"x_max":0,"o":"m 313 833 b 463 1051 410 833 463 910 l 336 1051 b 294 978 336 1004 322 978 b 121 1067 257 978 213 1067 b -29 846 24 1067 -29 992 l 97 846 b 139 924 97 896 111 924 b 313 833 176 924 221 833 z m 85 0 l 349 0 l 349 753 l 85 753 z "},"j":{"ha":444,"x_min":0,"x_max":0,"o":"m 228 836 b 389 981 325 836 389 897 b 228 1117 389 1060 325 1117 b 67 976 131 1117 67 1056 b 228 836 67 897 131 836 z m 53 -282 b 360 19 247 -282 360 -164 l 360 753 l 96 753 l 96 21 b 18 -78 96 -47 64 -78 b -64 -56 -12 -78 -42 -69 l -131 -243 b 53 -282 -85 -269 -17 -282 z "},"ȷ":{"ha":444,"x_min":0,"x_max":0,"o":"m 53 -282 b 360 19 247 -282 360 -164 l 360 753 l 96 753 l 96 21 b 18 -78 96 -47 64 -78 b -64 -56 -12 -78 -42 -69 l -131 -243 b 53 -282 -85 -269 -17 -282 z "},"ĵ":{"ha":444,"x_min":0,"x_max":0,"o":"m 228 939 l 314 843 l 488 843 l 339 1054 l 117 1054 l -32 843 l 142 843 z m 96 21 b 18 -78 96 -47 64 -78 b -64 -56 -12 -78 -42 -69 l -131 -243 b 53 -282 -85 -269 -17 -282 b 360 19 247 -282 360 -164 l 360 753 l 96 753 z "},"k":{"ha":953,"x_min":0,"x_max":0,"o":"m 638 0 l 957 0 l 618 431 l 931 753 l 618 753 l 349 490 l 349 1031 l 85 1031 l 85 0 l 349 0 l 349 185 l 426 264 z "},"ǩ":{"ha":953,"x_min":0,"x_max":0,"o":"m 331 1121 l 511 1332 l 336 1332 l 217 1226 l 97 1332 l -78 1332 l 103 1121 z m 638 0 l 957 0 l 618 431 l 931 753 l 618 753 l 349 490 l 349 1031 l 85 1031 l 85 0 l 349 0 l 349 185 l 426 264 z "},"ķ":{"ha":953,"x_min":0,"x_max":0,"o":"m 618 431 l 931 753 l 618 753 l 349 490 l 349 1031 l 85 1031 l 85 0 l 349 0 l 349 185 l 426 264 l 638 0 l 957 0 z m 444 -86 b 335 -179 376 -86 335 -124 b 390 -262 335 -219 353 -249 l 354 -372 l 474 -372 l 525 -279 b 554 -179 550 -235 554 -204 b 444 -86 554 -124 513 -86 z "},"ĸ":{"ha":926,"x_min":0,"x_max":0,"o":"m 638 0 l 957 0 l 618 431 l 931 753 l 618 753 l 349 490 l 349 753 l 85 753 l 85 0 l 349 0 l 349 185 l 426 264 z "},"l":{"ha":435,"x_min":0,"x_max":0,"o":"m 85 0 l 349 0 l 349 1031 l 85 1031 z "},"ĺ":{"ha":435,"x_min":0,"x_max":0,"o":"m 81 1121 l 269 1121 l 531 1332 l 267 1332 z m 85 0 l 349 0 l 349 1031 l 85 1031 z "},"ľ":{"ha":435,"x_min":0,"x_max":0,"o":"m 453 808 l 608 808 l 643 1093 l 453 1093 z m 85 0 l 349 0 l 349 1031 l 85 1031 z "},"ļ":{"ha":435,"x_min":0,"x_max":0,"o":"m 85 1031 l 85 0 l 349 0 l 349 1031 z m 217 -86 b 107 -179 149 -86 107 -124 b 163 -262 107 -219 125 -249 l 126 -372 l 246 -372 l 297 -279 b 326 -179 322 -235 326 -204 b 217 -86 326 -124 285 -86 z "},"ŀ":{"ha":642,"x_min":0,"x_max":0,"o":"m 85 0 l 349 0 l 349 1031 l 85 1031 z m 538 383 b 664 508 611 383 664 435 b 538 633 664 582 611 633 b 413 508 464 633 413 582 b 538 383 413 435 464 383 z "},"ḷ":{"ha":435,"x_min":0,"x_max":0,"o":"m 85 0 l 349 0 l 349 1031 l 85 1031 z m 217 -303 b 326 -196 279 -303 326 -261 b 217 -86 326 -131 279 -86 b 107 -196 154 -86 107 -131 b 217 -303 107 -261 154 -303 z "},"ǉ":{"ha":879,"x_min":0,"x_max":0,"o":"m 663 836 b 824 981 760 836 824 897 b 663 1117 824 1060 760 1117 b 501 976 565 1117 501 1056 b 663 836 501 897 565 836 z m 85 0 l 349 0 l 349 1031 l 85 1031 z m 488 -282 b 794 19 682 -282 794 -164 l 794 753 l 531 753 l 531 21 b 453 -78 531 -47 499 -78 b 371 -56 422 -78 393 -69 l 304 -243 b 488 -282 350 -269 418 -282 z "},"ḻ":{"ha":435,"x_min":0,"x_max":0,"o":"m 85 0 l 349 0 l 349 1031 l 85 1031 z m -57 -260 l 490 -260 l 490 -118 l -57 -118 z "},"ł":{"ha":482,"x_min":0,"x_max":0,"o":"m 532 631 l 444 756 l 372 701 l 372 1031 l 108 1031 l 108 506 l -51 386 l 38 263 l 108 315 l 108 0 l 372 0 l 372 511 z "},"m":{"ha":1451,"x_min":0,"x_max":0,"o":"m 1065 765 b 804 647 957 765 864 722 b 561 765 751 728 664 765 b 336 674 472 765 393 735 l 336 753 l 85 753 l 85 0 l 349 0 l 349 374 b 482 542 349 490 404 542 b 596 388 553 542 596 496 l 596 0 l 860 0 l 860 374 b 992 542 860 490 915 542 b 1106 388 1061 542 1106 496 l 1106 0 l 1369 0 l 1369 431 b 1065 765 1369 664 1240 765 z "},"ṃ":{"ha":1451,"x_min":0,"x_max":0,"o":"m 1065 765 b 804 647 957 765 864 722 b 561 765 751 728 664 765 b 336 674 472 765 393 735 l 336 753 l 85 753 l 85 0 l 349 0 l 349 374 b 482 542 349 490 404 542 b 596 388 553 542 596 496 l 596 0 l 860 0 l 860 374 b 992 542 860 490 915 542 b 1106 388 1061 542 1106 496 l 1106 0 l 1369 0 l 1369 431 b 1065 765 1369 664 1240 765 z m 725 -86 b 615 -196 663 -86 615 -131 b 725 -303 615 -261 663 -303 b 835 -196 788 -303 835 -261 b 725 -86 835 -131 788 -86 z "},"n":{"ha":967,"x_min":0,"x_max":0,"o":"m 575 765 b 336 671 481 765 396 733 l 336 753 l 85 753 l 85 0 l 349 0 l 349 364 b 499 542 349 489 414 542 b 622 388 575 542 622 496 l 622 0 l 886 0 l 886 431 b 575 765 886 664 751 765 z "},"ń":{"ha":967,"x_min":0,"x_max":0,"o":"m 803 1054 l 539 1054 l 353 843 l 542 843 z m 575 765 b 336 671 481 765 396 733 l 336 753 l 85 753 l 85 0 l 349 0 l 349 364 b 499 542 349 489 414 542 b 622 388 575 542 622 496 l 622 0 l 886 0 l 886 431 b 575 765 886 664 751 765 z "},"ŉ":{"ha":1179,"x_min":0,"x_max":0,"o":"m 49 607 l 185 607 l 221 972 l 50 972 z m 788 765 b 549 671 693 765 608 733 l 549 753 l 297 753 l 297 0 l 561 0 l 561 364 b 711 542 561 489 626 542 b 835 388 788 542 835 496 l 835 0 l 1099 0 l 1099 431 b 788 765 1099 664 964 765 z "},"ň":{"ha":967,"x_min":0,"x_max":0,"o":"m 603 843 l 783 1054 l 608 1054 l 489 949 l 369 1054 l 194 1054 l 375 843 z m 575 765 b 336 671 481 765 396 733 l 336 753 l 85 753 l 85 0 l 349 0 l 349 364 b 499 542 349 489 414 542 b 622 388 575 542 622 496 l 622 0 l 886 0 l 886 431 b 575 765 886 664 751 765 z "},"ņ":{"ha":967,"x_min":0,"x_max":0,"o":"m 575 765 b 336 671 481 765 396 733 l 336 753 l 85 753 l 85 0 l 349 0 l 349 364 b 499 542 349 489 414 542 b 622 388 575 542 622 496 l 622 0 l 886 0 l 886 431 b 575 765 886 664 751 765 z m 489 -86 b 379 -179 421 -86 379 -124 b 435 -262 379 -219 397 -249 l 399 -372 l 518 -372 l 569 -279 b 599 -179 594 -235 599 -204 b 489 -86 599 -124 557 -86 z "},"ṅ":{"ha":967,"x_min":0,"x_max":0,"o":"m 489 840 b 626 978 569 840 626 897 b 489 1114 626 1057 569 1114 b 351 978 408 1114 351 1057 b 489 840 351 897 408 840 z m 575 765 b 336 671 481 765 396 733 l 336 753 l 85 753 l 85 0 l 349 0 l 349 364 b 499 542 349 489 414 542 b 622 388 575 542 622 496 l 622 0 l 886 0 l 886 431 b 575 765 886 664 751 765 z "},"ṇ":{"ha":967,"x_min":0,"x_max":0,"o":"m 575 765 b 336 671 481 765 396 733 l 336 753 l 85 753 l 85 0 l 349 0 l 349 364 b 499 542 349 489 414 542 b 622 388 575 542 622 496 l 622 0 l 886 0 l 886 431 b 575 765 886 664 751 765 z m 489 -86 b 379 -196 426 -86 379 -131 b 489 -303 379 -261 426 -303 b 599 -196 551 -303 599 -261 b 489 -86 599 -131 551 -86 z "},"ŋ":{"ha":967,"x_min":0,"x_max":0,"o":"m 575 765 b 336 671 481 765 396 733 l 336 753 l 85 753 l 85 0 l 349 0 l 349 364 b 499 542 349 489 414 542 b 622 388 575 542 622 496 l 622 21 b 544 -78 622 -47 590 -78 b 463 -56 514 -78 485 -69 l 396 -243 b 579 -282 442 -269 510 -282 b 886 19 774 -282 886 -164 l 886 431 b 575 765 886 664 751 765 z "},"ǌ":{"ha":1411,"x_min":0,"x_max":0,"o":"m 1194 836 b 1356 981 1292 836 1356 897 b 1194 1117 1356 1060 1292 1117 b 1033 976 1097 1117 1033 1056 b 1194 836 1033 897 1097 836 z m 886 0 l 886 431 b 575 765 886 664 751 765 b 336 671 481 765 396 733 l 336 753 l 85 753 l 85 0 l 349 0 l 349 364 b 499 542 349 489 414 542 b 622 388 575 542 622 496 l 622 0 z m 1063 21 b 985 -78 1063 -47 1031 -78 b 903 -56 954 -78 925 -69 l 836 -243 b 1019 -282 882 -269 950 -282 b 1326 19 1214 -282 1326 -164 l 1326 753 l 1063 753 z "},"ṉ":{"ha":967,"x_min":0,"x_max":0,"o":"m 575 765 b 336 671 481 765 396 733 l 336 753 l 85 753 l 85 0 l 349 0 l 349 364 b 499 542 349 489 414 542 b 622 388 575 542 622 496 l 622 0 l 886 0 l 886 431 b 575 765 886 664 751 765 z m 215 -260 l 763 -260 l 763 -118 l 215 -118 z "},"ñ":{"ha":967,"x_min":0,"x_max":0,"o":"m 397 919 b 597 833 447 919 499 833 b 774 1051 704 833 771 921 l 644 1051 b 581 982 642 1008 618 982 b 381 1067 531 982 479 1067 b 204 846 274 1067 207 981 l 333 846 b 397 919 336 892 360 919 z m 575 765 b 336 671 481 765 396 733 l 336 753 l 85 753 l 85 0 l 349 0 l 349 364 b 499 542 349 489 414 542 b 622 388 575 542 622 496 l 622 0 l 886 0 l 886 431 b 575 765 886 664 751 765 z "},"o":{"ha":925,"x_min":0,"x_max":0,"o":"m 463 -12 b 888 378 711 -12 888 150 b 463 765 888 604 711 765 b 38 378 217 765 38 604 b 463 -12 38 150 217 -12 z m 463 197 b 304 378 374 197 304 263 b 463 556 304 492 374 556 b 621 378 553 556 621 492 b 463 197 621 263 553 197 z "},"ó":{"ha":925,"x_min":0,"x_max":0,"o":"m 324 843 l 513 843 l 774 1054 l 510 1054 z m 463 -12 b 888 378 711 -12 888 150 b 463 765 888 604 711 765 b 38 378 217 765 38 604 b 463 -12 38 150 217 -12 z m 463 197 b 304 378 374 197 304 263 b 463 556 304 492 374 556 b 621 378 553 556 621 492 b 463 197 621 263 553 197 z "},"ŏ":{"ha":925,"x_min":0,"x_max":0,"o":"m 460 831 b 732 1054 615 831 726 917 l 571 1054 b 460 963 568 999 521 963 b 349 1054 399 963 351 999 l 188 1054 b 460 831 193 917 304 831 z m 463 -12 b 888 378 711 -12 888 150 b 463 765 888 604 711 765 b 38 378 217 765 38 604 b 463 -12 38 150 217 -12 z m 463 197 b 304 378 374 197 304 263 b 463 556 304 492 374 556 b 621 378 553 556 621 492 b 463 197 621 263 553 197 z "},"ô":{"ha":925,"x_min":0,"x_max":0,"o":"m 460 949 l 579 843 l 754 843 l 574 1054 l 346 1054 l 165 843 l 340 843 z m 463 765 b 38 378 217 765 38 604 b 463 -12 38 150 217 -12 b 888 378 711 -12 888 150 b 463 765 888 604 711 765 z m 463 197 b 304 378 374 197 304 263 b 463 556 304 492 374 556 b 621 378 553 556 621 492 b 463 197 621 263 553 197 z "},"ố":{"ha":925,"x_min":0,"x_max":0,"o":"m 1049 1156 l 790 1156 l 643 982 l 825 982 z m 460 925 l 578 843 l 754 843 l 572 1013 l 347 1013 l 165 843 l 342 843 z m 463 765 b 38 378 217 765 38 604 b 463 -12 38 150 217 -12 b 888 378 711 -12 888 150 b 463 765 888 604 711 765 z m 463 197 b 304 378 374 197 304 263 b 463 556 304 492 374 556 b 621 378 553 556 621 492 b 463 197 621 263 553 197 z "},"ộ":{"ha":925,"x_min":0,"x_max":0,"o":"m 460 949 l 579 843 l 754 843 l 574 1054 l 346 1054 l 165 843 l 340 843 z m 463 765 b 38 378 217 765 38 604 b 463 -12 38 150 217 -12 b 888 378 711 -12 888 150 b 463 765 888 604 711 765 z m 463 197 b 304 378 374 197 304 263 b 463 556 304 492 374 556 b 621 378 553 556 621 492 b 463 197 621 263 553 197 z m 460 -86 b 350 -196 397 -86 350 -131 b 460 -303 350 -261 397 -303 b 569 -196 522 -303 569 -261 b 460 -86 569 -131 522 -86 z "},"ồ":{"ha":925,"x_min":0,"x_max":0,"o":"m 907 982 l 760 1156 l 501 1156 l 726 982 z m 460 925 l 578 843 l 754 843 l 572 1013 l 347 1013 l 165 843 l 342 843 z m 463 765 b 38 378 217 765 38 604 b 463 -12 38 150 217 -12 b 888 378 711 -12 888 150 b 463 765 888 604 711 765 z m 463 197 b 304 378 374 197 304 263 b 463 556 304 492 374 556 b 621 378 553 556 621 492 b 463 197 621 263 553 197 z "},"ổ":{"ha":925,"x_min":0,"x_max":0,"o":"m 675 1104 b 719 1067 700 1104 719 1089 b 669 1011 719 1050 707 1031 l 732 954 b 835 1081 788 976 835 1021 b 697 1196 835 1151 781 1196 b 571 1163 651 1196 606 1185 l 613 1088 b 675 1104 635 1099 653 1104 z m 460 925 l 578 843 l 754 843 l 572 1013 l 347 1013 l 165 843 l 342 843 z m 463 765 b 38 378 217 765 38 604 b 463 -12 38 150 217 -12 b 888 378 711 -12 888 150 b 463 765 888 604 711 765 z m 463 197 b 304 378 374 197 304 263 b 463 556 304 492 374 556 b 621 378 553 556 621 492 b 463 197 621 263 553 197 z "},"ỗ":{"ha":925,"x_min":0,"x_max":0,"o":"m 372 1132 b 564 1061 415 1132 465 1061 b 739 1250 675 1061 738 1133 l 611 1250 b 550 1190 608 1217 586 1190 b 357 1261 506 1190 453 1261 b 181 1072 249 1261 182 1193 l 313 1072 b 372 1132 315 1108 338 1132 z m 460 925 l 578 843 l 754 843 l 572 1013 l 347 1013 l 165 843 l 342 843 z m 463 765 b 38 378 217 765 38 604 b 463 -12 38 150 217 -12 b 888 378 711 -12 888 150 b 463 765 888 604 711 765 z m 463 197 b 304 378 374 197 304 263 b 463 556 304 492 374 556 b 621 378 553 556 621 492 b 463 197 621 263 553 197 z "},"ȍ":{"ha":925,"x_min":0,"x_max":0,"o":"m 217 843 l 400 843 l 314 1054 l 78 1054 z m 519 843 l 703 843 l 615 1054 l 379 1054 z m 463 -12 b 888 378 711 -12 888 150 b 463 765 888 604 711 765 b 38 378 217 765 38 604 b 463 -12 38 150 217 -12 z m 463 197 b 304 378 374 197 304 263 b 463 556 304 492 374 556 b 621 378 553 556 621 492 b 463 197 621 263 553 197 z "},"ö":{"ha":925,"x_min":0,"x_max":0,"o":"m 313 842 b 422 950 375 842 422 885 b 313 1060 422 1015 375 1060 b 203 950 250 1060 203 1015 b 313 842 203 885 250 842 z m 607 842 b 717 950 669 842 717 885 b 607 1060 717 1015 669 1060 b 497 950 544 1060 497 1015 b 607 842 497 885 544 842 z m 463 -12 b 888 378 711 -12 888 150 b 463 765 888 604 711 765 b 38 378 217 765 38 604 b 463 -12 38 150 217 -12 z m 463 197 b 304 378 374 197 304 263 b 463 556 304 492 374 556 b 621 378 553 556 621 492 b 463 197 621 263 553 197 z "},"ȫ":{"ha":925,"x_min":0,"x_max":0,"o":"m 186 1099 l 733 1099 l 733 1235 l 186 1235 z m 318 842 b 424 944 378 842 424 883 b 318 1049 424 1006 378 1049 b 214 944 260 1049 214 1006 b 318 842 214 883 260 842 z m 601 842 b 706 944 660 842 706 883 b 601 1049 706 1006 660 1049 b 497 944 543 1049 497 1006 b 601 842 497 883 543 842 z m 463 -12 b 888 378 711 -12 888 150 b 463 765 888 604 711 765 b 38 378 217 765 38 604 b 463 -12 38 150 217 -12 z m 463 197 b 304 378 374 197 304 263 b 463 556 304 492 374 556 b 621 378 553 556 621 492 b 463 197 621 263 553 197 z "},"ȱ":{"ha":925,"x_min":0,"x_max":0,"o":"m 186 1110 l 733 1110 l 733 1246 l 186 1246 z m 460 839 b 569 947 522 839 569 882 b 460 1056 569 1011 522 1056 b 350 947 397 1056 350 1011 b 460 839 350 882 397 839 z m 463 -12 b 888 378 711 -12 888 150 b 463 765 888 604 711 765 b 38 378 217 765 38 604 b 463 -12 38 150 217 -12 z m 463 197 b 304 378 374 197 304 263 b 463 556 304 492 374 556 b 621 378 553 556 621 492 b 463 197 621 263 553 197 z "},"ọ":{"ha":925,"x_min":0,"x_max":0,"o":"m 463 -12 b 888 378 711 -12 888 150 b 463 765 888 604 711 765 b 38 378 217 765 38 604 b 463 -12 38 150 217 -12 z m 463 197 b 304 378 374 197 304 263 b 463 556 304 492 374 556 b 621 378 553 556 621 492 b 463 197 621 263 553 197 z m 460 -303 b 569 -196 522 -303 569 -261 b 460 -86 569 -131 522 -86 b 350 -196 397 -86 350 -131 b 460 -303 350 -261 397 -303 z "},"ò":{"ha":925,"x_min":0,"x_max":0,"o":"m 407 843 l 596 843 l 410 1054 l 146 1054 z m 463 -12 b 888 378 711 -12 888 150 b 463 765 888 604 711 765 b 38 378 217 765 38 604 b 463 -12 38 150 217 -12 z m 463 197 b 304 378 374 197 304 263 b 463 556 304 492 374 556 b 621 378 553 556 621 492 b 463 197 621 263 553 197 z "},"ỏ":{"ha":925,"x_min":0,"x_max":0,"o":"m 510 829 b 646 1013 599 869 646 928 b 464 1172 646 1107 572 1172 b 300 1121 404 1172 344 1156 l 354 1018 b 435 1046 382 1038 407 1046 b 497 990 472 1046 497 1025 b 429 910 497 961 482 935 z m 463 -12 b 888 378 711 -12 888 150 b 463 765 888 604 711 765 b 38 378 217 765 38 604 b 463 -12 38 150 217 -12 z m 463 197 b 304 378 374 197 304 263 b 463 556 304 492 374 556 b 621 378 553 556 621 492 b 463 197 621 263 553 197 z "},"ơ":{"ha":925,"x_min":0,"x_max":0,"o":"m 781 644 b 881 829 843 683 881 749 b 831 976 881 888 860 938 l 679 921 b 710 840 696 901 710 872 b 629 753 710 789 683 753 b 465 765 585 753 536 765 b 38 378 215 765 38 604 b 463 -12 38 150 215 -12 b 888 378 710 -12 888 150 b 781 644 888 485 849 576 z m 463 197 b 304 378 374 197 304 263 b 463 556 304 492 374 556 b 621 378 553 556 621 492 b 463 197 621 263 551 197 z "},"ớ":{"ha":925,"x_min":0,"x_max":0,"o":"m 776 1054 l 513 1054 l 326 843 l 515 843 z m 781 644 b 881 829 843 683 881 749 b 831 976 881 888 860 938 l 679 921 b 710 840 696 901 710 872 b 629 753 710 789 683 753 b 465 765 585 753 536 765 b 38 378 215 765 38 604 b 463 -12 38 150 215 -12 b 888 378 710 -12 888 150 b 781 644 888 485 849 576 z m 463 197 b 304 378 374 197 304 263 b 463 556 304 492 374 556 b 621 378 553 556 621 492 b 463 197 621 263 551 197 z "},"ợ":{"ha":925,"x_min":0,"x_max":0,"o":"m 781 644 b 881 829 843 683 881 749 b 831 976 881 888 860 938 l 679 921 b 710 840 696 901 710 872 b 629 753 710 789 683 753 b 465 765 585 753 536 765 b 38 378 215 765 38 604 b 463 -12 38 150 215 -12 b 888 378 710 -12 888 150 b 781 644 888 485 849 576 z m 463 197 b 304 378 374 197 304 263 b 463 556 304 492 374 556 b 621 378 553 556 621 492 b 463 197 621 263 551 197 z m 463 -86 b 353 -196 400 -86 353 -131 b 463 -303 353 -261 400 -303 b 572 -196 525 -303 572 -261 b 463 -86 572 -131 525 -86 z "},"ờ":{"ha":925,"x_min":0,"x_max":0,"o":"m 599 843 l 413 1054 l 149 1054 l 410 843 z m 781 644 b 881 829 843 683 881 749 b 831 976 881 888 860 938 l 679 921 b 710 840 696 901 710 872 b 629 753 710 789 683 753 b 465 765 585 753 536 765 b 38 378 215 765 38 604 b 463 -12 38 150 215 -12 b 888 378 710 -12 888 150 b 781 644 888 485 849 576 z m 463 197 b 304 378 374 197 304 263 b 463 556 304 492 374 556 b 621 378 553 556 621 492 b 463 197 621 263 551 197 z "},"ở":{"ha":925,"x_min":0,"x_max":0,"o":"m 438 1046 b 500 990 475 1046 500 1025 b 432 910 500 961 485 935 l 513 829 b 649 1013 601 869 649 928 b 467 1172 649 1107 575 1172 b 303 1121 407 1172 347 1156 l 357 1018 b 438 1046 385 1038 410 1046 z m 781 644 b 881 829 843 683 881 749 b 831 976 881 888 860 938 l 679 921 b 710 840 696 901 710 872 b 629 753 710 789 683 753 b 465 765 585 753 536 765 b 38 378 215 765 38 604 b 463 -12 38 150 215 -12 b 888 378 710 -12 888 150 b 781 644 888 485 849 576 z m 463 197 b 304 378 374 197 304 263 b 463 556 304 492 374 556 b 621 378 553 556 621 492 b 463 197 621 263 551 197 z "},"ỡ":{"ha":921,"x_min":0,"x_max":0,"o":"m 365 919 b 533 833 407 919 450 833 b 681 1051 622 833 678 921 l 572 1051 b 519 982 569 1008 550 982 b 351 1067 478 982 435 1067 b 204 846 263 1067 207 981 l 313 846 b 365 919 315 892 335 919 z m 781 644 b 881 829 843 683 881 749 b 831 976 881 888 860 938 l 679 921 b 710 840 696 901 710 872 b 629 753 710 789 683 753 b 465 765 585 753 536 765 b 38 378 215 765 38 604 b 463 -12 38 150 215 -12 b 888 378 710 -12 888 150 b 781 644 888 485 849 576 z m 463 197 b 304 378 374 197 304 263 b 463 556 304 492 374 556 b 621 378 553 556 621 492 b 463 197 621 263 551 197 z "},"ő":{"ha":925,"x_min":0,"x_max":0,"o":"m 217 843 l 400 843 l 540 1054 l 304 1054 z m 519 843 l 703 843 l 842 1054 l 606 1054 z m 463 -12 b 888 378 711 -12 888 150 b 463 765 888 604 711 765 b 38 378 217 765 38 604 b 463 -12 38 150 217 -12 z m 463 197 b 304 378 374 197 304 263 b 463 556 304 492 374 556 b 621 378 553 556 621 492 b 463 197 621 263 553 197 z "},"ȏ":{"ha":925,"x_min":0,"x_max":0,"o":"m 188 843 l 349 843 b 460 935 351 899 399 935 b 571 843 521 935 568 899 l 732 843 b 460 1067 726 981 615 1067 b 188 843 304 1067 193 981 z m 463 -12 b 888 378 711 -12 888 150 b 463 765 888 604 711 765 b 38 378 217 765 38 604 b 463 -12 38 150 217 -12 z m 463 197 b 304 378 374 197 304 263 b 463 556 304 492 374 556 b 621 378 553 556 621 492 b 463 197 621 263 553 197 z "},"ō":{"ha":925,"x_min":0,"x_max":0,"o":"m 186 878 l 733 878 l 733 1019 l 186 1019 z m 463 -12 b 888 378 711 -12 888 150 b 463 765 888 604 711 765 b 38 378 217 765 38 604 b 463 -12 38 150 217 -12 z m 463 197 b 304 378 374 197 304 263 b 463 556 304 492 374 556 b 621 378 553 556 621 492 b 463 197 621 263 553 197 z "},"ṓ":{"ha":925,"x_min":0,"x_max":0,"o":"m 328 1082 l 510 1082 l 733 1256 l 475 1256 z m 186 860 l 733 860 l 733 996 l 186 996 z m 463 -12 b 888 378 711 -12 888 150 b 463 765 888 604 711 765 b 38 378 217 765 38 604 b 463 -12 38 150 217 -12 z m 463 197 b 304 378 374 197 304 263 b 463 556 304 492 374 556 b 621 378 553 556 621 492 b 463 197 621 263 553 197 z "},"ṑ":{"ha":925,"x_min":0,"x_max":0,"o":"m 411 1082 l 592 1082 l 444 1256 l 186 1256 z m 186 860 l 733 860 l 733 996 l 186 996 z m 463 -12 b 888 378 711 -12 888 150 b 463 765 888 604 711 765 b 38 378 217 765 38 604 b 463 -12 38 150 217 -12 z m 463 197 b 304 378 374 197 304 263 b 463 556 304 492 374 556 b 621 378 553 556 621 492 b 463 197 621 263 553 197 z "},"ǫ":{"ha":925,"x_min":0,"x_max":0,"o":"m 635 17 b 888 378 789 78 888 208 b 463 765 888 604 711 765 b 38 378 217 765 38 604 b 389 -7 38 174 182 22 b 300 -165 331 -50 300 -104 b 506 -328 300 -262 376 -328 b 654 -296 561 -328 621 -314 l 619 -182 b 538 -203 599 -193 567 -203 b 460 -140 486 -203 460 -175 b 635 17 460 -92 493 -39 z m 304 378 b 463 556 304 492 374 556 b 621 378 553 556 621 492 b 463 197 621 263 553 197 b 304 378 374 197 304 263 z "},"ø":{"ha":925,"x_min":0,"x_max":0,"o":"m 725 690 l 825 843 l 706 843 l 636 736 b 463 765 583 756 525 765 b 38 378 217 765 38 604 b 199 65 38 244 99 133 l 93 -97 l 213 -97 l 288 18 b 463 -12 340 -1 399 -12 b 888 378 711 -12 888 150 b 725 690 888 511 826 622 z m 304 378 b 463 556 304 492 374 556 b 514 549 481 556 497 553 l 332 269 b 304 378 314 297 304 333 z m 463 197 b 410 206 444 197 426 200 l 593 486 b 621 378 611 458 621 422 b 463 197 621 263 553 197 z "},"ǿ":{"ha":925,"x_min":0,"x_max":0,"o":"m 769 1054 l 506 1054 l 319 843 l 508 843 z m 725 690 l 825 843 l 706 843 l 636 736 b 463 765 583 756 525 765 b 38 378 217 765 38 604 b 199 65 38 244 99 133 l 93 -97 l 213 -97 l 288 18 b 463 -12 340 -1 399 -12 b 888 378 711 -12 888 150 b 725 690 888 511 826 622 z m 304 378 b 463 556 304 492 374 556 b 514 549 481 556 497 553 l 332 269 b 304 378 314 297 304 333 z m 463 197 b 410 206 444 197 426 200 l 593 486 b 621 378 611 458 621 422 b 463 197 621 263 553 197 z "},"õ":{"ha":925,"x_min":0,"x_max":0,"o":"m 568 833 b 744 1051 675 833 742 921 l 615 1051 b 551 982 613 1008 589 982 b 351 1067 501 982 450 1067 b 175 846 244 1067 178 981 l 304 846 b 368 919 307 892 331 919 b 568 833 418 919 469 833 z m 463 -12 b 888 378 711 -12 888 150 b 463 765 888 604 711 765 b 38 378 217 765 38 604 b 463 -12 38 150 217 -12 z m 463 197 b 304 378 374 197 304 263 b 463 556 304 492 374 556 b 621 378 553 556 621 492 b 463 197 621 263 553 197 z "},"ṍ":{"ha":925,"x_min":0,"x_max":0,"o":"m 328 1082 l 510 1082 l 733 1256 l 475 1256 z m 564 835 b 739 1024 675 835 738 907 l 611 1024 b 550 964 608 990 586 964 b 357 1035 506 964 453 1035 b 181 846 249 1035 182 967 l 313 846 b 372 906 315 882 338 906 b 564 835 415 906 465 835 z m 463 -12 b 888 378 711 -12 888 150 b 463 765 888 604 711 765 b 38 378 217 765 38 604 b 463 -12 38 150 217 -12 z m 463 197 b 304 378 374 197 304 263 b 463 556 304 492 374 556 b 621 378 553 556 621 492 b 463 197 621 263 553 197 z "},"ṏ":{"ha":925,"x_min":0,"x_max":0,"o":"m 318 1081 b 424 1183 378 1081 424 1122 b 318 1288 424 1244 378 1288 b 214 1183 260 1288 214 1244 b 318 1081 214 1122 260 1081 z m 601 1081 b 706 1183 660 1081 706 1122 b 601 1288 706 1244 660 1288 b 497 1183 543 1288 497 1244 b 601 1081 497 1122 543 1081 z m 564 835 b 739 1024 675 835 738 907 l 611 1024 b 550 964 608 990 586 964 b 357 1035 506 964 453 1035 b 181 846 249 1035 182 967 l 313 846 b 372 906 315 882 338 906 b 564 835 415 906 465 835 z m 463 -12 b 888 378 711 -12 888 150 b 463 765 888 604 711 765 b 38 378 217 765 38 604 b 463 -12 38 150 217 -12 z m 463 197 b 304 378 374 197 304 263 b 463 556 304 492 374 556 b 621 378 553 556 621 492 b 463 197 621 263 553 197 z "},"ȭ":{"ha":925,"x_min":0,"x_max":0,"o":"m 186 1099 l 733 1099 l 733 1235 l 186 1235 z m 564 835 b 739 1024 675 835 738 907 l 611 1024 b 550 964 608 990 586 964 b 357 1035 506 964 453 1035 b 181 846 249 1035 182 967 l 313 846 b 372 906 315 882 338 906 b 564 835 415 906 465 835 z m 463 -12 b 888 378 711 -12 888 150 b 463 765 888 604 711 765 b 38 378 217 765 38 604 b 463 -12 38 150 217 -12 z m 463 197 b 304 378 374 197 304 263 b 463 556 304 492 374 556 b 621 378 553 556 621 492 b 463 197 621 263 553 197 z "},"œ":{"ha":1476,"x_min":0,"x_max":0,"o":"m 1439 378 b 1036 765 1439 624 1256 765 b 750 654 918 765 818 724 b 458 765 681 724 582 765 b 38 378 217 765 38 604 b 458 -12 38 150 217 -12 b 751 101 582 -12 683 31 b 1064 -12 824 31 929 -12 b 1385 110 1196 -12 1311 29 l 1242 254 b 1071 189 1190 210 1139 189 b 883 310 972 189 906 233 l 1435 310 b 1439 378 1438 331 1439 354 z m 1036 578 b 1189 449 1119 578 1175 528 l 881 449 b 1036 578 894 528 953 578 z m 463 197 b 304 378 374 197 304 263 b 463 556 304 492 374 556 b 621 378 553 556 621 492 b 463 197 621 263 553 197 z "},"p":{"ha":965,"x_min":0,"x_max":0,"o":"m 558 765 b 336 678 460 765 386 738 l 336 753 l 85 753 l 85 -269 l 349 -269 l 349 67 b 558 -12 400 14 471 -12 b 928 376 763 -12 928 138 b 558 765 928 615 763 765 z m 503 197 b 344 376 414 197 344 263 b 503 556 344 490 414 556 b 661 376 592 556 661 490 b 503 197 661 263 592 197 z "},"þ":{"ha":965,"x_min":0,"x_max":0,"o":"m 558 765 b 349 692 468 765 399 742 l 349 1031 l 85 1031 l 85 -269 l 349 -269 l 349 67 b 558 -12 400 14 471 -12 b 928 376 763 -12 928 138 b 558 765 928 615 763 765 z m 503 197 b 344 376 414 197 344 263 b 503 556 344 490 414 556 b 661 376 592 556 661 490 b 503 197 661 263 592 197 z "},"q":{"ha":965,"x_min":0,"x_max":0,"o":"m 629 753 l 629 678 b 407 765 579 738 506 765 b 38 376 203 765 38 615 b 407 -12 38 138 203 -12 b 617 67 494 -12 565 14 l 617 -269 l 881 -269 l 881 753 z m 463 197 b 304 376 374 197 304 263 b 463 556 304 490 374 556 b 621 376 551 556 621 490 b 463 197 621 263 551 197 z "},"r":{"ha":615,"x_min":0,"x_max":0,"o":"m 336 663 l 336 753 l 85 753 l 85 0 l 349 0 l 349 346 b 529 532 349 478 422 532 b 589 528 549 532 565 531 l 589 765 b 336 663 478 765 390 731 z "},"ŕ":{"ha":615,"x_min":0,"x_max":0,"o":"m 650 1054 l 386 1054 l 200 843 l 389 843 z m 336 663 l 336 753 l 85 753 l 85 0 l 349 0 l 349 346 b 529 532 349 478 422 532 b 589 528 549 532 565 531 l 589 765 b 336 663 478 765 390 731 z "},"ř":{"ha":615,"x_min":0,"x_max":0,"o":"m 450 843 l 631 1054 l 456 1054 l 336 949 l 217 1054 l 42 1054 l 222 843 z m 336 663 l 336 753 l 85 753 l 85 0 l 349 0 l 349 346 b 529 532 349 478 422 532 b 589 528 549 532 565 531 l 589 765 b 336 663 478 765 390 731 z "},"ŗ":{"ha":615,"x_min":0,"x_max":0,"o":"m 336 663 l 336 753 l 85 753 l 85 0 l 349 0 l 349 346 b 529 532 349 478 422 532 b 589 528 549 532 565 531 l 589 765 b 336 663 478 765 390 731 z m 217 -86 b 107 -179 149 -86 107 -124 b 163 -262 107 -219 125 -249 l 126 -372 l 246 -372 l 297 -279 b 326 -179 322 -235 326 -204 b 217 -86 326 -124 285 -86 z "},"ȑ":{"ha":615,"x_min":0,"x_max":0,"o":"m 276 843 l 190 1054 l -46 1054 l 93 843 z m 579 843 l 492 1054 l 256 1054 l 396 843 z m 336 663 l 336 753 l 85 753 l 85 0 l 349 0 l 349 346 b 529 532 349 478 422 532 b 589 528 549 532 565 531 l 589 765 b 336 663 478 765 390 731 z "},"ṛ":{"ha":615,"x_min":0,"x_max":0,"o":"m 336 663 l 336 753 l 85 753 l 85 0 l 349 0 l 349 346 b 529 532 349 478 422 532 b 589 528 549 532 565 531 l 589 765 b 336 663 478 765 390 731 z m 217 -86 b 107 -196 154 -86 107 -131 b 217 -303 107 -261 154 -303 b 326 -196 279 -303 326 -261 b 217 -86 326 -131 279 -86 z "},"ȓ":{"ha":615,"x_min":0,"x_max":0,"o":"m 336 935 b 447 843 397 935 444 899 l 608 843 b 336 1067 603 981 492 1067 b 64 843 181 1067 69 981 l 225 843 b 336 935 228 899 275 935 z m 336 663 l 336 753 l 85 753 l 85 0 l 349 0 l 349 346 b 529 532 349 478 422 532 b 589 528 549 532 565 531 l 589 765 b 336 663 478 765 390 731 z "},"ṟ":{"ha":615,"x_min":0,"x_max":0,"o":"m 336 663 l 336 753 l 85 753 l 85 0 l 349 0 l 349 346 b 529 532 349 478 422 532 b 589 528 549 532 565 531 l 589 765 b 336 663 478 765 390 731 z m -57 -260 l 490 -260 l 490 -118 l -57 -118 z "},"s":{"ha":760,"x_min":0,"x_max":0,"o":"m 358 -12 b 731 235 603 -12 731 96 b 288 525 731 533 288 421 b 408 578 288 553 319 578 b 625 522 475 578 550 564 l 704 701 b 407 765 629 743 513 765 b 40 515 171 765 40 657 b 485 228 40 214 485 329 b 367 176 485 196 456 176 b 104 246 275 176 174 203 l 25 65 b 358 -12 99 19 231 -12 z "},"ś":{"ha":760,"x_min":0,"x_max":0,"o":"m 236 843 l 425 843 l 686 1054 l 422 1054 z m 358 -12 b 731 235 603 -12 731 96 b 288 525 731 533 288 421 b 408 578 288 553 319 578 b 625 522 475 578 550 564 l 704 701 b 407 765 629 743 513 765 b 40 515 171 765 40 657 b 485 228 40 214 485 329 b 367 176 485 196 456 176 b 104 246 275 176 174 203 l 25 65 b 358 -12 99 19 231 -12 z "},"ṥ":{"ha":760,"x_min":0,"x_max":0,"o":"m 372 1078 b 482 1186 435 1078 482 1121 b 372 1294 482 1250 435 1294 b 263 1186 310 1294 263 1250 b 372 1078 263 1121 310 1078 z m 240 843 l 422 843 l 646 1017 l 388 1017 z m 358 -12 b 731 235 603 -12 731 96 b 288 525 731 533 288 421 b 408 578 288 553 319 578 b 625 522 475 578 550 564 l 704 701 b 407 765 629 743 513 765 b 40 515 171 765 40 657 b 485 228 40 214 485 329 b 367 176 485 196 456 176 b 104 246 275 176 174 203 l 25 65 b 358 -12 99 19 231 -12 z "},"ꞌ":{"ha":433,"x_min":0,"x_max":0,"o":"m 86 411 l 313 411 l 347 958 l 86 958 z "},"š":{"ha":760,"x_min":0,"x_max":0,"o":"m 486 843 l 667 1054 l 492 1054 l 372 949 l 253 1054 l 78 1054 l 258 843 z m 288 525 b 408 578 288 553 319 578 b 625 522 475 578 550 564 l 704 701 b 407 765 629 743 513 765 b 40 515 171 765 40 657 b 485 228 40 214 485 329 b 367 176 485 196 456 176 b 104 246 275 176 174 203 l 25 65 b 358 -12 99 19 231 -12 b 731 235 603 -12 731 96 b 288 525 731 533 288 421 z "},"ṧ":{"ha":760,"x_min":0,"x_max":0,"o":"m 372 1046 b 482 1154 435 1046 482 1089 b 372 1263 482 1218 435 1263 b 263 1154 310 1263 263 1218 b 372 1046 263 1089 310 1046 z m 485 843 l 667 1013 l 490 1013 l 372 931 l 254 1013 l 78 1013 l 260 843 z m 288 525 b 408 578 288 553 319 578 b 625 522 475 578 550 564 l 704 701 b 407 765 629 743 513 765 b 40 515 171 765 40 657 b 485 228 40 214 485 329 b 367 176 485 196 456 176 b 104 246 275 176 174 203 l 25 65 b 358 -12 99 19 231 -12 b 731 235 603 -12 731 96 b 288 525 731 533 288 421 z "},"ş":{"ha":760,"x_min":0,"x_max":0,"o":"m 731 235 b 288 525 731 533 288 421 b 408 578 288 553 319 578 b 625 522 475 578 550 564 l 704 701 b 407 765 629 743 513 765 b 40 515 171 765 40 657 b 485 228 40 214 485 329 b 367 176 485 196 456 176 b 104 246 275 176 174 203 l 25 65 b 297 -10 88 26 190 -1 l 267 -140 l 318 -140 b 381 -175 363 -140 381 -154 b 311 -214 381 -197 361 -214 b 225 -194 278 -214 249 -206 l 189 -299 b 321 -328 219 -315 274 -328 b 540 -183 453 -328 540 -272 b 421 -71 540 -132 507 -81 l 435 -8 b 731 235 629 13 731 111 z "},"ŝ":{"ha":760,"x_min":0,"x_max":0,"o":"m 372 949 l 492 843 l 667 843 l 486 1054 l 258 1054 l 78 843 l 253 843 z m 288 525 b 408 578 288 553 319 578 b 625 522 475 578 550 564 l 704 701 b 407 765 629 743 513 765 b 40 515 171 765 40 657 b 485 228 40 214 485 329 b 367 176 485 196 456 176 b 104 246 275 176 174 203 l 25 65 b 358 -12 99 19 231 -12 b 731 235 603 -12 731 96 b 288 525 731 533 288 421 z "},"ș":{"ha":760,"x_min":0,"x_max":0,"o":"m 288 525 b 408 578 288 553 319 578 b 625 522 475 578 550 564 l 704 701 b 407 765 629 743 513 765 b 40 515 171 765 40 657 b 485 228 40 214 485 329 b 367 176 485 196 456 176 b 104 246 275 176 174 203 l 25 65 b 358 -12 99 19 231 -12 b 731 235 603 -12 731 96 b 288 525 731 533 288 421 z m 372 -86 b 263 -179 304 -86 263 -124 b 318 -262 263 -219 281 -249 l 282 -372 l 401 -372 l 453 -279 b 482 -179 478 -235 482 -204 b 372 -86 482 -124 440 -86 z "},"ṡ":{"ha":760,"x_min":0,"x_max":0,"o":"m 372 840 b 510 978 453 840 510 897 b 372 1114 510 1057 453 1114 b 235 978 292 1114 235 1057 b 372 840 235 897 292 840 z m 358 -12 b 731 235 603 -12 731 96 b 288 525 731 533 288 421 b 408 578 288 553 319 578 b 625 522 475 578 550 564 l 704 701 b 407 765 629 743 513 765 b 40 515 171 765 40 657 b 485 228 40 214 485 329 b 367 176 485 196 456 176 b 104 246 275 176 174 203 l 25 65 b 358 -12 99 19 231 -12 z "},"ṣ":{"ha":760,"x_min":0,"x_max":0,"o":"m 358 -12 b 731 235 603 -12 731 96 b 288 525 731 533 288 421 b 408 578 288 553 319 578 b 625 522 475 578 550 564 l 704 701 b 407 765 629 743 513 765 b 40 515 171 765 40 657 b 485 228 40 214 485 329 b 367 176 485 196 456 176 b 104 246 275 176 174 203 l 25 65 b 358 -12 99 19 231 -12 z m 372 -303 b 482 -196 435 -303 482 -261 b 372 -86 482 -131 435 -86 b 263 -196 310 -86 263 -131 b 372 -303 263 -261 310 -303 z "},"ṩ":{"ha":760,"x_min":0,"x_max":0,"o":"m 372 840 b 510 978 453 840 510 897 b 372 1114 510 1057 453 1114 b 235 978 292 1114 235 1057 b 372 840 235 897 292 840 z m 358 -12 b 731 235 603 -12 731 96 b 288 525 731 533 288 421 b 408 578 288 553 319 578 b 625 522 475 578 550 564 l 704 701 b 407 765 629 743 513 765 b 40 515 171 765 40 657 b 485 228 40 214 485 329 b 367 176 485 196 456 176 b 104 246 275 176 174 203 l 25 65 b 358 -12 99 19 231 -12 z m 372 -303 b 482 -196 435 -303 482 -261 b 372 -86 482 -131 435 -86 b 263 -196 310 -86 263 -131 b 372 -303 263 -261 310 -303 z "},"ß":{"ha":976,"x_min":0,"x_max":0,"o":"m 756 547 b 853 746 814 596 853 663 b 481 1043 853 913 718 1043 b 85 664 263 1043 85 914 l 85 0 l 349 0 l 349 697 b 481 835 349 788 400 835 b 600 724 554 835 600 790 b 461 601 600 651 546 604 l 461 399 l 535 399 b 672 299 622 399 672 364 b 547 197 672 233 622 197 b 443 214 507 197 475 203 l 415 10 b 582 -12 456 -4 525 -12 b 940 292 796 -12 940 100 b 756 547 940 418 871 506 z "},"ſ":{"ha":485,"x_min":0,"x_max":0,"o":"m 446 1043 b 132 744 244 1043 132 925 l 132 725 l 22 725 l 22 528 l 132 528 l 132 0 l 396 0 l 396 742 b 476 840 396 808 422 840 b 556 818 504 840 533 831 l 621 1004 b 446 1043 578 1031 510 1043 z "},"t":{"ha":621,"x_min":0,"x_max":0,"o":"m 539 215 b 458 192 517 200 488 192 b 379 278 411 192 379 222 l 379 528 l 551 528 l 551 725 l 379 725 l 379 921 l 115 921 l 115 725 l 6 725 l 6 528 l 115 528 l 115 275 b 421 -12 115 82 228 -12 b 604 31 490 -12 558 1 z "},"ŧ":{"ha":635,"x_min":0,"x_max":0,"o":"m 546 215 b 465 192 524 200 494 192 b 386 278 418 192 386 222 l 386 303 l 540 303 l 540 442 l 386 442 l 386 528 l 558 528 l 558 725 l 386 725 l 386 921 l 122 921 l 122 725 l 13 725 l 13 528 l 122 528 l 122 442 l 31 442 l 31 303 l 122 303 l 122 275 b 428 -12 122 82 235 -12 b 611 31 497 -12 565 1 z "},"ť":{"ha":621,"x_min":0,"x_max":0,"o":"m 460 1068 l 460 794 l 614 794 l 639 1068 z m 458 192 b 379 278 411 192 379 222 l 379 528 l 551 528 l 551 725 l 379 725 l 379 921 l 115 921 l 115 725 l 6 725 l 6 528 l 115 528 l 115 275 b 421 -12 115 82 228 -12 b 604 31 490 -12 558 1 l 539 215 b 458 192 517 200 488 192 z "},"ţ":{"ha":621,"x_min":0,"x_max":0,"o":"m 421 -71 l 435 -12 b 604 31 499 -11 561 3 l 539 215 b 458 192 517 200 488 192 b 379 278 411 192 379 222 l 379 528 l 551 528 l 551 725 l 379 725 l 379 921 l 115 921 l 115 725 l 6 725 l 6 528 l 115 528 l 115 275 b 300 3 115 126 182 36 l 267 -140 l 318 -140 b 381 -175 363 -140 381 -154 b 311 -214 381 -197 361 -214 b 225 -194 278 -214 249 -206 l 189 -299 b 321 -328 219 -315 274 -328 b 540 -183 453 -328 540 -272 b 421 -71 540 -132 507 -81 z "},"ț":{"ha":621,"x_min":0,"x_max":0,"o":"m 604 31 l 539 215 b 458 192 517 200 488 192 b 379 278 411 192 379 222 l 379 528 l 551 528 l 551 725 l 379 725 l 379 921 l 115 921 l 115 725 l 6 725 l 6 528 l 115 528 l 115 275 b 421 -12 115 82 228 -12 b 604 31 490 -12 558 1 z m 372 -86 b 263 -179 304 -86 263 -124 b 318 -262 263 -219 281 -249 l 282 -372 l 401 -372 l 453 -279 b 482 -179 478 -235 482 -204 b 372 -86 482 -124 440 -86 z "},"ẗ":{"ha":621,"x_min":0,"x_max":0,"o":"m 100 1010 b 210 1118 163 1010 210 1053 b 100 1228 210 1183 163 1228 b -10 1118 38 1228 -10 1183 b 100 1010 -10 1053 38 1010 z m 394 1010 b 504 1118 457 1010 504 1053 b 394 1228 504 1183 457 1228 b 285 1118 332 1228 285 1183 b 394 1010 285 1053 332 1010 z m 539 215 b 458 192 517 200 488 192 b 379 278 411 192 379 222 l 379 528 l 551 528 l 551 725 l 379 725 l 379 921 l 115 921 l 115 725 l 6 725 l 6 528 l 115 528 l 115 275 b 421 -12 115 82 228 -12 b 604 31 490 -12 558 1 z "},"ṭ":{"ha":621,"x_min":0,"x_max":0,"o":"m 604 31 l 539 215 b 458 192 517 200 488 192 b 379 278 411 192 379 222 l 379 528 l 551 528 l 551 725 l 379 725 l 379 921 l 115 921 l 115 725 l 6 725 l 6 528 l 115 528 l 115 275 b 421 -12 115 82 228 -12 b 604 31 490 -12 558 1 z m 372 -86 b 263 -196 310 -86 263 -131 b 372 -303 263 -261 310 -303 b 482 -196 435 -303 482 -261 b 372 -86 482 -131 435 -86 z "},"ṯ":{"ha":621,"x_min":0,"x_max":0,"o":"m 115 275 b 421 -12 115 82 228 -12 b 604 31 490 -12 558 1 l 539 215 b 458 192 517 200 488 192 b 379 278 411 192 379 222 l 379 528 l 551 528 l 551 725 l 379 725 l 379 921 l 115 921 l 115 725 l 6 725 l 6 528 l 115 528 z m 99 -118 l 99 -260 l 646 -260 l 646 -118 z "},"u":{"ha":961,"x_min":0,"x_max":0,"o":"m 613 753 l 613 390 b 471 213 613 264 549 213 b 346 375 392 213 346 258 l 346 753 l 82 753 l 82 332 b 401 -12 82 93 217 -12 b 625 81 488 -12 568 18 l 625 0 l 876 0 l 876 753 z "},"ú":{"ha":961,"x_min":0,"x_max":0,"o":"m 793 1054 l 529 1054 l 343 843 l 532 843 z m 613 753 l 613 390 b 471 213 613 264 549 213 b 346 375 392 213 346 258 l 346 753 l 82 753 l 82 332 b 401 -12 82 93 217 -12 b 625 81 488 -12 568 18 l 625 0 l 876 0 l 876 753 z "},"ŭ":{"ha":961,"x_min":0,"x_max":0,"o":"m 479 831 b 751 1054 635 831 746 917 l 590 1054 b 479 963 588 999 540 963 b 368 1054 418 963 371 999 l 207 1054 b 479 831 213 917 324 831 z m 613 753 l 613 390 b 471 213 613 264 549 213 b 346 375 392 213 346 258 l 346 753 l 82 753 l 82 332 b 401 -12 82 93 217 -12 b 625 81 488 -12 568 18 l 625 0 l 876 0 l 876 753 z "},"ǔ":{"ha":961,"x_min":0,"x_max":0,"o":"m 593 843 l 774 1054 l 599 1054 l 479 949 l 360 1054 l 185 1054 l 365 843 z m 613 753 l 613 390 b 471 213 613 264 549 213 b 346 375 392 213 346 258 l 346 753 l 82 753 l 82 332 b 401 -12 82 93 217 -12 b 625 81 488 -12 568 18 l 625 0 l 876 0 l 876 753 z "},"û":{"ha":961,"x_min":0,"x_max":0,"o":"m 479 949 l 599 843 l 774 843 l 593 1054 l 365 1054 l 185 843 l 360 843 z m 613 753 l 613 390 b 471 213 613 264 549 213 b 346 375 392 213 346 258 l 346 753 l 82 753 l 82 332 b 401 -12 82 93 217 -12 b 625 81 488 -12 568 18 l 625 0 l 876 0 l 876 753 z "},"ȕ":{"ha":961,"x_min":0,"x_max":0,"o":"m 419 843 l 333 1054 l 97 1054 l 236 843 z m 722 843 l 635 1054 l 399 1054 l 539 843 z m 613 753 l 613 390 b 471 213 613 264 549 213 b 346 375 392 213 346 258 l 346 753 l 82 753 l 82 332 b 401 -12 82 93 217 -12 b 625 81 488 -12 568 18 l 625 0 l 876 0 l 876 753 z "},"ü":{"ha":961,"x_min":0,"x_max":0,"o":"m 332 842 b 442 950 394 842 442 885 b 332 1060 442 1015 394 1060 b 222 950 269 1060 222 1015 b 332 842 222 885 269 842 z m 626 842 b 736 950 689 842 736 885 b 626 1060 736 1015 689 1060 b 517 950 564 1060 517 1015 b 626 842 517 885 564 842 z m 613 753 l 613 390 b 471 213 613 264 549 213 b 346 375 392 213 346 258 l 346 753 l 82 753 l 82 332 b 401 -12 82 93 217 -12 b 625 81 488 -12 568 18 l 625 0 l 876 0 l 876 753 z "},"ụ":{"ha":961,"x_min":0,"x_max":0,"o":"m 613 753 l 613 390 b 471 213 613 264 549 213 b 346 375 392 213 346 258 l 346 753 l 82 753 l 82 332 b 401 -12 82 93 217 -12 b 625 81 488 -12 568 18 l 625 0 l 876 0 l 876 753 z m 479 -86 b 369 -196 417 -86 369 -131 b 479 -303 369 -261 417 -303 b 589 -196 542 -303 589 -261 b 479 -86 589 -131 542 -86 z "},"ù":{"ha":961,"x_min":0,"x_max":0,"o":"m 615 843 l 429 1054 l 165 1054 l 426 843 z m 613 753 l 613 390 b 471 213 613 264 549 213 b 346 375 392 213 346 258 l 346 753 l 82 753 l 82 332 b 401 -12 82 93 217 -12 b 625 81 488 -12 568 18 l 625 0 l 876 0 l 876 753 z "},"ủ":{"ha":961,"x_min":0,"x_max":0,"o":"m 454 1046 b 517 990 492 1046 517 1025 b 449 910 517 961 501 935 l 529 829 b 665 1013 618 869 665 928 b 483 1172 665 1107 592 1172 b 319 1121 424 1172 364 1156 l 374 1018 b 454 1046 401 1038 426 1046 z m 613 753 l 613 390 b 471 213 613 264 549 213 b 346 375 392 213 346 258 l 346 753 l 82 753 l 82 332 b 401 -12 82 93 217 -12 b 625 81 488 -12 568 18 l 625 0 l 876 0 l 876 753 z "},"ư":{"ha":985,"x_min":0,"x_max":0,"o":"m 1007 829 b 958 975 1007 888 989 938 l 806 921 b 833 840 822 901 833 871 b 754 753 833 789 799 753 l 613 753 l 613 390 b 471 213 613 264 549 213 b 346 375 392 213 346 258 l 346 753 l 82 753 l 82 332 b 401 -12 82 93 217 -12 b 625 81 488 -12 568 18 l 625 0 l 876 0 l 876 611 b 1007 829 960 647 1007 722 z "},"ứ":{"ha":985,"x_min":0,"x_max":0,"o":"m 793 1054 l 529 1054 l 343 843 l 532 843 z m 1007 829 b 958 975 1007 888 989 938 l 806 921 b 833 840 822 901 833 871 b 754 753 833 789 799 753 l 613 753 l 613 390 b 471 213 613 264 549 213 b 346 375 392 213 346 258 l 346 753 l 82 753 l 82 332 b 401 -12 82 93 217 -12 b 625 81 488 -12 568 18 l 625 0 l 876 0 l 876 611 b 1007 829 960 647 1007 722 z "},"ự":{"ha":985,"x_min":0,"x_max":0,"o":"m 1007 829 b 958 975 1007 888 989 938 l 806 921 b 833 840 822 901 833 871 b 754 753 833 789 799 753 l 613 753 l 613 390 b 471 213 613 264 549 213 b 346 375 392 213 346 258 l 346 753 l 82 753 l 82 332 b 401 -12 82 93 217 -12 b 625 81 488 -12 568 18 l 625 0 l 876 0 l 876 611 b 1007 829 960 647 1007 722 z m 479 -86 b 369 -196 417 -86 369 -131 b 479 -303 369 -261 417 -303 b 589 -196 542 -303 589 -261 b 479 -86 589 -131 542 -86 z "},"ừ":{"ha":985,"x_min":0,"x_max":0,"o":"m 615 843 l 429 1054 l 165 1054 l 426 843 z m 1007 829 b 958 975 1007 888 989 938 l 806 921 b 833 840 822 901 833 871 b 754 753 833 789 799 753 l 613 753 l 613 390 b 471 213 613 264 549 213 b 346 375 392 213 346 258 l 346 753 l 82 753 l 82 332 b 401 -12 82 93 217 -12 b 625 81 488 -12 568 18 l 625 0 l 876 0 l 876 611 b 1007 829 960 647 1007 722 z "},"ử":{"ha":985,"x_min":0,"x_max":0,"o":"m 454 1046 b 517 990 492 1046 517 1025 b 449 910 517 961 501 935 l 529 829 b 665 1013 618 869 665 928 b 483 1172 665 1107 592 1172 b 319 1121 424 1172 364 1156 l 374 1018 b 454 1046 401 1038 426 1046 z m 1007 829 b 958 975 1007 888 989 938 l 806 921 b 833 840 822 901 833 871 b 754 753 833 789 799 753 l 613 753 l 613 390 b 471 213 613 264 549 213 b 346 375 392 213 346 258 l 346 753 l 82 753 l 82 332 b 401 -12 82 93 217 -12 b 625 81 488 -12 568 18 l 625 0 l 876 0 l 876 611 b 1007 829 960 647 1007 722 z "},"ữ":{"ha":985,"x_min":0,"x_max":0,"o":"m 388 919 b 588 833 438 919 489 833 b 764 1051 694 833 761 921 l 635 1051 b 571 982 632 1008 608 982 b 371 1067 521 982 469 1067 b 194 846 264 1067 197 981 l 324 846 b 388 919 326 892 350 919 z m 1007 829 b 958 975 1007 888 989 938 l 806 921 b 833 840 822 901 833 871 b 754 753 833 789 799 753 l 613 753 l 613 390 b 471 213 613 264 549 213 b 346 375 392 213 346 258 l 346 753 l 82 753 l 82 332 b 401 -12 82 93 217 -12 b 625 81 488 -12 568 18 l 625 0 l 876 0 l 876 611 b 1007 829 960 647 1007 722 z "},"ű":{"ha":961,"x_min":0,"x_max":0,"o":"m 560 1054 l 324 1054 l 236 843 l 419 843 z m 722 843 l 861 1054 l 625 1054 l 539 843 z m 613 753 l 613 390 b 471 213 613 264 549 213 b 346 375 392 213 346 258 l 346 753 l 82 753 l 82 332 b 401 -12 82 93 217 -12 b 625 81 488 -12 568 18 l 625 0 l 876 0 l 876 753 z "},"ȗ":{"ha":961,"x_min":0,"x_max":0,"o":"m 479 935 b 590 843 540 935 588 899 l 751 843 b 479 1067 746 981 635 1067 b 207 843 324 1067 213 981 l 368 843 b 479 935 371 899 418 935 z m 613 753 l 613 390 b 471 213 613 264 549 213 b 346 375 392 213 346 258 l 346 753 l 82 753 l 82 332 b 401 -12 82 93 217 -12 b 625 81 488 -12 568 18 l 625 0 l 876 0 l 876 753 z "},"ū":{"ha":961,"x_min":0,"x_max":0,"o":"m 753 1019 l 206 1019 l 206 878 l 753 878 z m 613 753 l 613 390 b 471 213 613 264 549 213 b 346 375 392 213 346 258 l 346 753 l 82 753 l 82 332 b 401 -12 82 93 217 -12 b 625 81 488 -12 568 18 l 625 0 l 876 0 l 876 753 z "},"ṻ":{"ha":961,"x_min":0,"x_max":0,"o":"m 338 1081 b 443 1183 397 1081 443 1122 b 338 1288 443 1244 397 1288 b 233 1183 279 1288 233 1244 b 338 1081 233 1122 279 1081 z m 621 1081 b 725 1183 679 1081 725 1122 b 621 1288 725 1244 679 1288 b 517 1183 563 1288 517 1244 b 621 1081 517 1122 563 1081 z m 753 996 l 206 996 l 206 860 l 753 860 z m 613 753 l 613 390 b 471 213 613 264 549 213 b 346 375 392 213 346 258 l 346 753 l 82 753 l 82 332 b 401 -12 82 93 217 -12 b 625 81 488 -12 568 18 l 625 0 l 876 0 l 876 753 z "},"ų":{"ha":961,"x_min":0,"x_max":0,"o":"m 876 -182 b 793 -203 856 -193 824 -203 b 717 -142 743 -203 717 -178 b 876 0 717 -94 757 -53 l 876 753 l 613 753 l 613 390 b 471 213 613 264 549 213 b 346 375 392 213 346 258 l 346 753 l 82 753 l 82 332 b 401 -12 82 93 217 -12 b 625 81 488 -12 568 18 l 625 0 l 653 0 b 557 -165 589 -46 557 -103 b 763 -328 557 -262 632 -328 b 911 -296 818 -328 876 -314 z "},"ů":{"ha":961,"x_min":0,"x_max":0,"o":"m 479 821 b 663 997 582 821 663 899 b 479 1175 663 1096 582 1175 b 296 997 375 1175 296 1096 b 479 821 296 899 375 821 z m 479 1078 b 558 997 524 1078 558 1044 b 479 918 558 951 524 918 b 400 997 435 918 400 951 b 479 1078 400 1044 435 1078 z m 613 753 l 613 390 b 471 213 613 264 549 213 b 346 375 392 213 346 258 l 346 753 l 82 753 l 82 332 b 401 -12 82 93 217 -12 b 625 81 488 -12 568 18 l 625 0 l 876 0 l 876 753 z "},"ũ":{"ha":961,"x_min":0,"x_max":0,"o":"m 388 919 b 588 833 438 919 489 833 b 764 1051 694 833 761 921 l 635 1051 b 571 982 632 1008 608 982 b 371 1067 521 982 469 1067 b 194 846 264 1067 197 981 l 324 846 b 388 919 326 892 350 919 z m 613 753 l 613 390 b 471 213 613 264 549 213 b 346 375 392 213 346 258 l 346 753 l 82 753 l 82 332 b 401 -12 82 93 217 -12 b 625 81 488 -12 568 18 l 625 0 l 876 0 l 876 753 z "},"ṹ":{"ha":961,"x_min":0,"x_max":0,"o":"m 753 1256 l 494 1256 l 347 1082 l 529 1082 z m 392 906 b 583 835 435 906 485 835 b 758 1024 694 835 757 907 l 631 1024 b 569 964 628 990 606 964 b 376 1035 525 964 472 1035 b 200 846 268 1035 201 967 l 332 846 b 392 906 335 882 357 906 z m 613 753 l 613 390 b 471 213 613 264 549 213 b 346 375 392 213 346 258 l 346 753 l 82 753 l 82 332 b 401 -12 82 93 217 -12 b 625 81 488 -12 568 18 l 625 0 l 876 0 l 876 753 z "},"v":{"ha":861,"x_min":0,"x_max":0,"o":"m 626 753 l 436 293 l 256 753 l -15 753 l 294 0 l 567 0 l 878 753 z "},"w":{"ha":1328,"x_min":0,"x_max":0,"o":"m 1100 753 l 940 293 l 785 753 l 560 753 l 400 297 l 246 753 l -4 753 l 264 0 l 519 0 l 667 410 l 808 0 l 1064 0 l 1332 753 z "},"ẃ":{"ha":1328,"x_min":0,"x_max":0,"o":"m 978 1054 l 714 1054 l 528 843 l 717 843 z m 1100 753 l 940 293 l 785 753 l 560 753 l 400 297 l 246 753 l -4 753 l 264 0 l 519 0 l 667 410 l 808 0 l 1064 0 l 1332 753 z "},"ŵ":{"ha":1328,"x_min":0,"x_max":0,"o":"m 664 949 l 783 843 l 958 843 l 778 1054 l 550 1054 l 369 843 l 544 843 z m 1100 753 l 940 293 l 785 753 l 560 753 l 400 297 l 246 753 l -4 753 l 264 0 l 519 0 l 667 410 l 808 0 l 1064 0 l 1332 753 z "},"ẅ":{"ha":1328,"x_min":0,"x_max":0,"o":"m 517 842 b 626 950 579 842 626 885 b 517 1060 626 1015 579 1060 b 407 950 454 1060 407 1015 b 517 842 407 885 454 842 z m 811 842 b 921 950 874 842 921 885 b 811 1060 921 1015 874 1060 b 701 950 749 1060 701 1015 b 811 842 701 885 749 842 z m 1100 753 l 940 293 l 785 753 l 560 753 l 400 297 l 246 753 l -4 753 l 264 0 l 519 0 l 667 410 l 808 0 l 1064 0 l 1332 753 z "},"ẁ":{"ha":1328,"x_min":0,"x_max":0,"o":"m 800 843 l 614 1054 l 350 1054 l 611 843 z m 1100 753 l 940 293 l 785 753 l 560 753 l 400 297 l 246 753 l -4 753 l 264 0 l 519 0 l 667 410 l 808 0 l 1064 0 l 1332 753 z "},"x":{"ha":860,"x_min":0,"x_max":0,"o":"m 864 0 l 576 386 l 854 753 l 575 753 l 436 563 l 303 753 l 6 753 l 283 376 l -3 0 l 283 0 l 428 197 l 563 0 z "},"y":{"ha":861,"x_min":0,"x_max":0,"o":"m 626 753 l 440 293 l 256 753 l -15 753 l 307 -10 b 204 -74 285 -54 256 -74 b 88 -29 163 -74 118 -57 l -4 -214 b 214 -282 46 -256 135 -282 b 553 -31 363 -282 474 -225 l 878 753 z "},"ý":{"ha":861,"x_min":0,"x_max":0,"o":"m 731 1054 l 467 1054 l 281 843 l 469 843 z m 626 753 l 440 293 l 256 753 l -15 753 l 307 -10 b 204 -74 285 -54 256 -74 b 88 -29 163 -74 118 -57 l -4 -214 b 214 -282 46 -256 135 -282 b 553 -31 363 -282 474 -225 l 878 753 z "},"ŷ":{"ha":861,"x_min":0,"x_max":0,"o":"m 417 949 l 536 843 l 711 843 l 531 1054 l 303 1054 l 122 843 l 297 843 z m 626 753 l 440 293 l 256 753 l -15 753 l 307 -10 b 204 -74 285 -54 256 -74 b 88 -29 163 -74 118 -57 l -4 -214 b 214 -282 46 -256 135 -282 b 553 -31 363 -282 474 -225 l 878 753 z "},"ÿ":{"ha":861,"x_min":0,"x_max":0,"o":"m 269 842 b 379 950 332 842 379 885 b 269 1060 379 1015 332 1060 b 160 950 207 1060 160 1015 b 269 842 160 885 207 842 z m 564 842 b 674 950 626 842 674 885 b 564 1060 674 1015 626 1060 b 454 950 501 1060 454 1015 b 564 842 454 885 501 842 z m 626 753 l 440 293 l 256 753 l -15 753 l 307 -10 b 204 -74 285 -54 256 -74 b 88 -29 163 -74 118 -57 l -4 -214 b 214 -282 46 -256 135 -282 b 553 -31 363 -282 474 -225 l 878 753 z "},"ẏ":{"ha":861,"x_min":0,"x_max":0,"o":"m 417 840 b 554 978 497 840 554 897 b 417 1114 554 1057 497 1114 b 279 978 336 1114 279 1057 b 417 840 279 897 336 840 z m 626 753 l 440 293 l 256 753 l -15 753 l 307 -10 b 204 -74 285 -54 256 -74 b 88 -29 163 -74 118 -57 l -4 -214 b 214 -282 46 -256 135 -282 b 553 -31 363 -282 474 -225 l 878 753 z "},"ỵ":{"ha":861,"x_min":0,"x_max":0,"o":"m 626 753 l 440 293 l 256 753 l -15 753 l 307 -10 b 204 -74 285 -54 256 -74 b 88 -29 163 -74 118 -57 l -4 -214 b 214 -282 46 -256 135 -282 b 553 -31 363 -282 474 -225 l 878 753 z m 688 -86 b 578 -196 625 -86 578 -131 b 688 -303 578 -261 625 -303 b 797 -196 750 -303 797 -261 b 688 -86 797 -131 750 -86 z "},"ỳ":{"ha":861,"x_min":0,"x_max":0,"o":"m 553 843 l 367 1054 l 103 1054 l 364 843 z m 626 753 l 440 293 l 256 753 l -15 753 l 307 -10 b 204 -74 285 -54 256 -74 b 88 -29 163 -74 118 -57 l -4 -214 b 214 -282 46 -256 135 -282 b 553 -31 363 -282 474 -225 l 878 753 z "},"ỷ":{"ha":861,"x_min":0,"x_max":0,"o":"m 392 1046 b 454 990 429 1046 454 1025 b 386 910 454 961 439 935 l 467 829 b 603 1013 556 869 603 928 b 421 1172 603 1107 529 1172 b 257 1121 361 1172 301 1156 l 311 1018 b 392 1046 339 1038 364 1046 z m 626 753 l 440 293 l 256 753 l -15 753 l 307 -10 b 204 -74 285 -54 256 -74 b 88 -29 163 -74 118 -57 l -4 -214 b 214 -282 46 -256 135 -282 b 553 -31 363 -282 474 -225 l 878 753 z "},"ȳ":{"ha":861,"x_min":0,"x_max":0,"o":"m 690 1019 l 143 1019 l 143 878 l 690 878 z m 626 753 l 440 293 l 256 753 l -15 753 l 307 -10 b 204 -74 285 -54 256 -74 b 88 -29 163 -74 118 -57 l -4 -214 b 214 -282 46 -256 135 -282 b 553 -31 363 -282 474 -225 l 878 753 z "},"ỹ":{"ha":861,"x_min":0,"x_max":0,"o":"m 325 919 b 525 833 375 919 426 833 b 701 1051 632 833 699 921 l 572 1051 b 508 982 569 1008 546 982 b 308 1067 458 982 407 1067 b 132 846 201 1067 135 981 l 261 846 b 325 919 264 892 288 919 z m 626 753 l 440 293 l 256 753 l -15 753 l 307 -10 b 204 -74 285 -54 256 -74 b 88 -29 163 -74 118 -57 l -4 -214 b 214 -282 46 -256 135 -282 b 553 -31 363 -282 474 -225 l 878 753 z "},"z":{"ha":772,"x_min":0,"x_max":0,"o":"m 378 197 l 726 599 l 726 753 l 56 753 l 56 557 l 394 557 l 46 156 l 46 0 l 740 0 l 740 197 z "},"ź":{"ha":772,"x_min":0,"x_max":0,"o":"m 706 1054 l 442 1054 l 256 843 l 444 843 z m 378 197 l 726 599 l 726 753 l 56 753 l 56 557 l 394 557 l 46 156 l 46 0 l 740 0 l 740 197 z "},"ž":{"ha":772,"x_min":0,"x_max":0,"o":"m 506 843 l 686 1054 l 511 1054 l 392 949 l 272 1054 l 97 1054 l 278 843 z m 378 197 l 726 599 l 726 753 l 56 753 l 56 557 l 394 557 l 46 156 l 46 0 l 740 0 l 740 197 z "},"ż":{"ha":772,"x_min":0,"x_max":0,"o":"m 392 840 b 529 978 472 840 529 897 b 392 1114 529 1057 472 1114 b 254 978 311 1114 254 1057 b 392 840 254 897 311 840 z m 378 197 l 726 599 l 726 753 l 56 753 l 56 557 l 394 557 l 46 156 l 46 0 l 740 0 l 740 197 z "},"ẓ":{"ha":772,"x_min":0,"x_max":0,"o":"m 378 197 l 726 599 l 726 753 l 56 753 l 56 557 l 394 557 l 46 156 l 46 0 l 740 0 l 740 197 z m 394 -86 b 285 -196 332 -86 285 -131 b 394 -303 285 -261 332 -303 b 504 -196 457 -303 504 -261 b 394 -86 504 -131 457 -86 z "},"ﬁ":{"ha":1110,"x_min":0,"x_max":0,"o":"m 892 836 b 1053 981 989 836 1053 897 b 892 1117 1053 1060 989 1117 b 731 976 794 1117 731 1056 b 892 836 731 897 794 836 z m 460 840 b 539 818 488 840 517 831 l 604 1004 b 429 1043 561 1031 493 1043 b 115 744 228 1043 115 925 l 115 725 l 6 725 l 6 528 l 115 528 l 115 0 l 379 0 l 379 528 l 551 528 l 551 725 l 372 725 l 372 742 b 460 840 372 808 404 840 z m 760 0 l 1024 0 l 1024 753 l 760 753 z "},"ﬂ":{"ha":999,"x_min":0,"x_max":0,"o":"m 460 840 b 539 818 488 840 517 831 l 604 1004 b 429 1043 561 1031 493 1043 b 115 744 228 1043 115 925 l 115 725 l 6 725 l 6 528 l 115 528 l 115 0 l 379 0 l 379 528 l 551 528 l 551 725 l 372 725 l 372 742 b 460 840 372 808 404 840 z m 649 1031 l 649 0 l 913 0 l 913 1031 z "},"ª":{"ha":579,"x_min":0,"x_max":0,"o":"m 265 1043 b 51 989 192 1043 107 1024 l 110 878 b 238 917 143 901 194 917 b 338 851 303 917 333 894 l 244 851 b 32 718 97 851 32 803 b 210 579 32 640 92 579 b 351 644 281 579 328 601 l 351 586 l 518 586 l 518 833 b 265 1043 518 978 426 1043 z m 261 683 b 201 725 224 683 201 700 b 272 765 201 751 224 765 l 338 765 l 338 729 b 261 683 325 699 296 683 z "},"º":{"ha":600,"x_min":0,"x_max":0,"o":"m 300 579 b 572 811 460 579 572 675 b 300 1043 572 946 460 1043 b 28 811 143 1043 28 946 b 300 579 28 675 143 579 z m 300 713 b 206 811 246 713 206 749 b 300 910 206 875 246 910 b 394 811 354 910 394 875 b 300 713 394 749 354 713 z "},"А":{"ha":1144,"x_min":0,"x_max":0,"o":"m 851 0 l 1138 0 l 707 972 l 436 972 l 7 0 l 288 0 l 364 189 l 775 189 z m 444 392 l 569 703 l 694 392 z "},"Б":{"ha":1029,"x_min":0,"x_max":0,"o":"m 104 0 l 590 0 b 992 313 843 0 992 115 b 626 603 992 500 863 603 l 375 603 l 375 760 l 917 760 l 917 972 l 104 972 z m 375 197 l 375 407 l 572 407 b 714 304 667 407 714 374 b 572 197 714 235 664 197 z "},"В":{"ha":1033,"x_min":0,"x_max":0,"o":"m 813 508 b 944 719 896 550 944 624 b 576 972 944 881 808 972 l 104 972 l 104 0 l 603 0 b 989 278 853 0 989 107 b 813 508 989 394 925 472 z m 375 775 l 550 775 b 667 679 628 775 667 742 b 550 583 667 615 628 583 l 375 583 z m 592 197 l 375 197 l 375 397 l 592 397 b 711 299 671 397 711 365 b 592 197 711 232 671 197 z "},"Г":{"ha":836,"x_min":0,"x_max":0,"o":"m 817 972 l 104 972 l 104 0 l 375 0 l 375 754 l 815 754 z "},"Ѓ":{"ha":836,"x_min":0,"x_max":0,"o":"m 760 1263 l 496 1263 l 310 1051 l 499 1051 z m 817 972 l 104 972 l 104 0 l 375 0 l 375 754 l 815 754 z "},"Ґ":{"ha":838,"x_min":0,"x_max":0,"o":"m 104 0 l 375 0 l 375 754 l 817 754 l 817 1171 l 564 1171 l 564 972 l 104 972 z "},"Д":{"ha":1176,"x_min":0,"x_max":0,"o":"m 1017 218 l 1017 972 l 233 972 l 222 672 b 57 218 213 413 181 221 l 22 218 l 22 -196 l 275 -196 l 275 0 l 897 0 l 897 -196 l 1149 -196 l 1149 218 z m 463 649 l 467 754 l 746 754 l 746 218 l 378 218 b 463 649 435 300 456 458 z "},"Е":{"ha":938,"x_min":0,"x_max":0,"o":"m 376 213 l 376 390 l 808 390 l 808 596 l 376 596 l 376 760 l 867 760 l 867 972 l 104 972 l 104 0 l 885 0 l 885 213 z "},"Ѐ":{"ha":938,"x_min":0,"x_max":0,"o":"m 622 1051 l 436 1263 l 172 1263 l 433 1051 z m 376 213 l 376 390 l 808 390 l 808 596 l 376 596 l 376 760 l 867 760 l 867 972 l 104 972 l 104 0 l 885 0 l 885 213 z "},"Ё":{"ha":938,"x_min":0,"x_max":0,"o":"m 339 1050 b 449 1158 401 1050 449 1093 b 339 1268 449 1224 401 1268 b 229 1158 276 1268 229 1224 b 339 1050 229 1093 276 1050 z m 633 1050 b 743 1158 696 1050 743 1093 b 633 1268 743 1224 696 1268 b 524 1158 571 1268 524 1224 b 633 1050 524 1093 571 1050 z m 376 213 l 376 390 l 808 390 l 808 596 l 376 596 l 376 760 l 867 760 l 867 972 l 104 972 l 104 0 l 885 0 l 885 213 z "},"Ж":{"ha":1540,"x_min":0,"x_max":0,"o":"m 1210 0 l 1526 0 l 1250 510 l 1510 972 l 1222 972 l 1024 594 l 906 594 l 906 972 l 636 972 l 636 594 l 513 594 l 318 972 l 29 972 l 289 510 l 13 0 l 331 0 l 521 372 l 636 372 l 636 0 l 906 0 l 906 372 l 1021 372 z "},"З":{"ha":922,"x_min":0,"x_max":0,"o":"m 706 506 b 839 711 788 546 839 619 b 394 994 839 892 631 994 b 53 919 281 994 160 971 l 133 711 b 392 778 217 756 313 778 b 561 679 488 778 561 744 b 444 597 561 629 519 597 l 218 597 l 218 396 l 467 396 b 600 311 544 396 600 371 b 392 197 600 236 508 197 b 108 265 303 197 199 219 l 26 74 b 422 -21 153 10 293 -21 b 878 274 669 -21 878 88 b 706 506 878 381 813 465 z "},"И":{"ha":1139,"x_min":0,"x_max":0,"o":"m 104 0 l 364 0 l 764 569 l 764 0 l 1035 0 l 1035 972 l 776 972 l 375 401 l 375 972 l 104 972 z "},"Й":{"ha":1139,"x_min":0,"x_max":0,"o":"m 568 1031 b 856 1257 769 1031 856 1111 l 671 1257 b 568 1161 669 1193 638 1161 b 468 1257 499 1161 469 1193 l 283 1257 b 568 1031 283 1111 367 1031 z m 104 0 l 364 0 l 764 569 l 764 0 l 1035 0 l 1035 972 l 776 972 l 375 401 l 375 972 l 104 972 z "},"Ѝ":{"ha":1139,"x_min":0,"x_max":0,"o":"m 517 1051 l 706 1051 l 519 1263 l 256 1263 z m 104 0 l 364 0 l 764 569 l 764 0 l 1035 0 l 1035 972 l 776 972 l 375 401 l 375 972 l 104 972 z "},"Ҋ":{"ha":1201,"x_min":0,"x_max":0,"o":"m 568 1031 b 856 1257 769 1031 856 1111 l 671 1257 b 568 1161 669 1193 638 1161 b 468 1257 499 1161 469 1193 l 283 1257 b 568 1031 283 1111 367 1031 z m 1035 218 l 1035 972 l 776 972 l 375 401 l 375 972 l 104 972 l 104 0 l 364 0 l 764 569 l 764 0 l 879 0 l 844 -196 l 1060 -196 l 1178 218 z "},"К":{"ha":1042,"x_min":0,"x_max":0,"o":"m 718 0 l 1028 0 l 721 503 l 1025 972 l 736 972 l 504 594 l 372 594 l 372 972 l 99 972 l 99 0 l 372 0 l 372 372 l 497 372 z "},"Ќ":{"ha":1042,"x_min":0,"x_max":0,"o":"m 847 1263 l 583 1263 l 397 1051 l 586 1051 z m 718 0 l 1028 0 l 721 503 l 1025 972 l 736 972 l 504 594 l 372 594 l 372 972 l 99 972 l 99 0 l 372 0 l 372 372 l 497 372 z "},"Л":{"ha":1115,"x_min":0,"x_max":0,"o":"m 228 972 l 214 585 b 72 221 206 365 185 221 b 35 225 60 221 47 222 l 19 0 b 144 -17 65 -11 107 -17 b 456 596 392 -17 443 217 l 461 754 l 740 754 l 740 0 l 1011 0 l 1011 972 z "},"М":{"ha":1338,"x_min":0,"x_max":0,"o":"m 1235 0 l 1232 972 l 1006 972 l 672 411 l 331 972 l 104 972 l 104 0 l 357 0 l 357 504 l 607 96 l 729 96 l 979 515 l 981 0 z "},"Н":{"ha":1133,"x_min":0,"x_max":0,"o":"m 754 972 l 754 607 l 379 607 l 379 972 l 104 972 l 104 0 l 379 0 l 379 379 l 754 379 l 754 0 l 1029 0 l 1029 972 z "},"О":{"ha":1165,"x_min":0,"x_max":0,"o":"m 582 -19 b 1122 486 893 -19 1122 194 b 582 992 1122 778 893 992 b 42 486 271 992 42 778 b 582 -19 42 194 271 -19 z m 582 208 b 319 486 435 208 319 318 b 582 764 319 654 435 764 b 844 486 729 764 844 654 b 582 208 844 318 729 208 z "},"П":{"ha":1121,"x_min":0,"x_max":0,"o":"m 104 972 l 104 0 l 375 0 l 375 754 l 744 754 l 744 0 l 1017 0 l 1017 972 z "},"Р":{"ha":1014,"x_min":0,"x_max":0,"o":"m 549 972 l 104 972 l 104 0 l 379 0 l 379 254 l 549 254 b 981 613 814 254 981 392 b 549 972 981 835 814 972 z m 532 471 l 379 471 l 379 756 l 532 756 b 703 613 646 756 703 703 b 532 471 703 524 646 471 z "},"С":{"ha":1015,"x_min":0,"x_max":0,"o":"m 578 -19 b 996 164 757 -19 901 46 l 821 322 b 592 208 760 249 685 208 b 321 486 432 208 321 319 b 592 764 321 653 432 764 b 821 650 685 764 760 724 l 996 808 b 578 992 901 926 757 992 b 43 486 269 992 43 782 b 578 -19 43 190 269 -19 z "},"Т":{"ha":910,"x_min":0,"x_max":0,"o":"m 888 972 l 21 972 l 21 754 l 319 754 l 319 0 l 590 0 l 590 754 l 888 754 z "},"У":{"ha":1032,"x_min":0,"x_max":0,"o":"m 760 972 l 525 503 l 299 972 l 8 972 l 386 272 b 257 197 350 219 311 197 b 160 214 228 197 197 203 l 94 11 b 267 -25 154 -12 211 -25 b 625 221 413 -25 539 58 l 1028 972 z "},"Ў":{"ha":1032,"x_min":0,"x_max":0,"o":"m 513 1031 b 800 1257 714 1031 800 1111 l 615 1257 b 513 1161 614 1193 582 1161 b 413 1257 443 1161 414 1193 l 228 1257 b 513 1031 228 1111 311 1031 z m 760 972 l 525 503 l 299 972 l 8 972 l 386 272 b 257 197 350 219 311 197 b 160 214 228 197 197 203 l 94 11 b 267 -25 154 -12 211 -25 b 625 221 413 -25 539 58 l 1028 972 z "},"Ф":{"ha":1340,"x_min":0,"x_max":0,"o":"m 1301 489 b 796 918 1301 743 1125 896 l 796 1018 l 544 1018 l 544 918 b 39 489 215 893 39 743 b 544 61 39 236 215 85 l 544 -46 l 796 -46 l 796 61 b 1301 489 1126 81 1301 236 z m 796 275 l 796 703 b 1035 490 957 685 1035 618 b 796 275 1035 363 961 293 z m 306 489 b 544 703 306 618 378 683 l 544 276 b 306 489 388 296 306 361 z "},"Х":{"ha":1049,"x_min":0,"x_max":0,"o":"m 31 974 l 354 496 l 8 0 l 325 0 l 519 288 l 715 0 l 1039 0 l 692 508 l 1011 974 l 692 974 l 519 710 l 346 974 z "},"Ч":{"ha":1051,"x_min":0,"x_max":0,"o":"m 676 972 l 676 550 b 504 517 628 528 568 517 b 321 704 383 517 321 578 l 321 972 l 50 972 l 50 674 b 469 293 50 426 197 293 b 676 331 533 293 601 306 l 676 0 l 947 0 l 947 972 z "},"Ц":{"ha":1179,"x_min":0,"x_max":0,"o":"m 1019 218 l 1019 972 l 749 972 l 749 218 l 375 218 l 375 972 l 104 972 l 104 0 l 901 0 l 901 -199 l 1153 -199 l 1153 218 z "},"Ш":{"ha":1526,"x_min":0,"x_max":0,"o":"m 1151 972 l 1151 218 l 900 218 l 900 972 l 629 972 l 629 218 l 375 218 l 375 972 l 104 972 l 104 0 l 1422 0 l 1422 972 z "},"Щ":{"ha":1576,"x_min":0,"x_max":0,"o":"m 1422 218 l 1422 972 l 1151 972 l 1151 218 l 900 218 l 900 972 l 629 972 l 629 218 l 375 218 l 375 972 l 104 972 l 104 0 l 1296 0 l 1296 -196 l 1549 -196 l 1549 218 z "},"Џ":{"ha":1124,"x_min":0,"x_max":0,"o":"m 1019 972 l 749 972 l 749 218 l 375 218 l 375 972 l 104 972 l 104 0 l 435 0 l 435 -199 l 688 -199 l 688 0 l 1019 0 z "},"Ь":{"ha":1008,"x_min":0,"x_max":0,"o":"m 600 663 l 375 663 l 375 972 l 104 972 l 104 0 l 564 0 b 974 346 817 0 974 118 b 600 663 974 558 836 663 z m 546 197 l 375 197 l 375 467 l 546 467 b 697 340 639 467 697 432 b 546 197 697 249 638 197 z "},"Ъ":{"ha":1188,"x_min":0,"x_max":0,"o":"m 781 663 l 554 663 l 554 972 l 21 972 l 21 754 l 283 754 l 283 0 l 743 0 b 1153 346 996 0 1153 118 b 781 663 1153 558 1015 663 z m 725 197 l 554 197 l 554 467 l 725 467 b 876 340 818 467 876 432 b 725 197 876 249 817 197 z "},"Ы":{"ha":1457,"x_min":0,"x_max":0,"o":"m 600 663 l 375 663 l 375 972 l 104 972 l 104 0 l 564 0 b 974 346 817 0 974 118 b 600 663 974 558 836 663 z m 1081 0 l 1351 0 l 1351 972 l 1081 972 z m 546 197 l 375 197 l 375 467 l 546 467 b 697 340 639 467 697 432 b 546 197 697 249 638 197 z "},"Љ":{"ha":1644,"x_min":0,"x_max":0,"o":"m 1236 663 l 1011 663 l 1011 972 l 228 972 l 214 585 b 72 221 206 365 185 221 b 35 225 60 221 47 222 l 19 0 b 144 -17 65 -11 107 -17 b 456 596 392 -17 443 217 l 461 754 l 740 754 l 740 0 l 1200 0 b 1610 346 1453 0 1610 118 b 1236 663 1610 558 1472 663 z m 1182 197 l 1011 197 l 1011 467 l 1182 467 b 1333 340 1275 467 1333 432 b 1182 197 1333 249 1274 197 z "},"Њ":{"ha":1619,"x_min":0,"x_max":0,"o":"m 1232 628 l 1010 628 l 1010 972 l 739 972 l 739 619 l 375 619 l 375 972 l 104 972 l 104 0 l 375 0 l 375 401 l 739 401 l 739 0 l 1207 0 b 1588 324 1443 0 1588 118 b 1232 628 1588 518 1457 628 z m 1174 197 l 1010 197 l 1010 431 l 1174 431 b 1310 315 1260 431 1310 392 b 1174 197 1310 239 1258 197 z "},"Ѕ":{"ha":919,"x_min":0,"x_max":0,"o":"m 451 -19 b 882 294 740 -19 882 125 b 331 690 882 653 331 542 b 488 778 331 739 372 778 b 757 703 572 778 664 753 l 842 907 b 489 992 746 963 615 992 b 58 676 200 992 58 850 b 611 274 58 315 611 428 b 453 194 611 226 567 194 b 132 290 340 194 218 233 l 42 88 b 451 -19 133 24 292 -19 z "},"Є":{"ha":999,"x_min":0,"x_max":0,"o":"m 571 208 b 339 381 456 208 371 274 l 688 381 l 688 583 l 336 583 b 571 764 367 694 453 764 b 804 650 665 764 742 724 l 978 808 b 557 992 883 926 738 992 b 44 486 258 992 44 782 b 557 -19 44 190 258 -19 b 978 164 738 -19 883 46 l 804 322 b 571 208 742 249 665 208 z "},"Э":{"ha":997,"x_min":0,"x_max":0,"o":"m 440 992 b 19 808 260 992 114 926 l 193 650 b 426 764 256 724 332 764 b 658 592 542 764 626 699 l 310 592 l 310 389 l 661 389 b 426 208 631 278 544 208 b 193 322 332 208 256 249 l 19 164 b 440 -19 114 46 260 -19 b 953 486 739 -19 953 190 b 440 992 953 782 739 992 z "},"І":{"ha":479,"x_min":0,"x_max":0,"o":"m 104 0 l 375 0 l 375 972 l 104 972 z "},"Ї":{"ha":471,"x_min":0,"x_max":0,"o":"m 88 1050 b 199 1158 150 1050 199 1093 b 88 1268 199 1224 150 1268 b -22 1158 26 1268 -22 1224 b 88 1050 -22 1093 26 1050 z m 382 1050 b 493 1158 444 1050 493 1093 b 382 1268 493 1224 444 1268 b 272 1158 321 1268 272 1224 b 382 1050 272 1093 321 1050 z m 97 0 l 372 0 l 372 972 l 97 972 z "},"Ј":{"ha":811,"x_min":0,"x_max":0,"o":"m 347 -19 b 722 358 592 -19 722 106 l 722 972 l 114 972 l 114 760 l 450 760 l 450 342 b 328 200 450 249 407 200 b 160 301 265 200 211 235 l 10 124 b 347 -19 85 31 206 -19 z "},"Ћ":{"ha":1201,"x_min":0,"x_max":0,"o":"m 800 596 b 590 564 735 596 665 585 l 590 754 l 921 754 l 921 972 l 21 972 l 21 754 l 319 754 l 319 0 l 590 0 l 590 333 b 735 369 643 357 690 369 b 888 197 826 369 888 315 l 888 0 l 1158 0 l 1158 232 b 800 596 1158 481 1018 596 z "},"Ю":{"ha":1560,"x_min":0,"x_max":0,"o":"m 992 992 b 479 608 732 992 532 836 l 375 608 l 375 972 l 104 972 l 104 0 l 375 0 l 375 378 l 476 378 b 992 -19 524 143 726 -19 b 1515 486 1293 -19 1515 194 b 992 992 1515 778 1293 992 z m 992 208 b 744 486 853 208 744 317 b 992 764 744 656 853 764 b 1238 486 1129 764 1238 656 b 992 208 1238 317 1129 208 z "},"Я":{"ha":1022,"x_min":0,"x_max":0,"o":"m 481 972 b 46 603 214 972 46 832 b 246 285 46 451 118 342 l 49 0 l 338 0 l 497 244 l 647 244 l 647 0 l 918 0 l 918 972 z m 486 756 l 647 756 l 647 457 l 483 457 b 324 607 379 457 324 510 b 486 756 324 706 379 756 z "},"Ђ":{"ha":1192,"x_min":0,"x_max":0,"o":"m 590 583 l 590 754 l 933 754 l 933 972 l 22 972 l 22 754 l 319 754 l 319 0 l 590 0 l 590 363 b 742 396 646 385 697 396 b 888 292 828 396 888 357 b 775 201 888 224 828 201 b 724 208 756 201 738 204 l 696 0 b 815 -11 736 -7 776 -11 b 1158 296 1003 -11 1158 79 b 804 613 1158 496 1031 613 b 590 583 740 613 669 603 z "},"Ѣ":{"ha":1165,"x_min":0,"x_max":0,"o":"m 767 651 l 529 651 l 529 750 l 831 750 l 831 911 l 529 911 l 529 1031 l 258 1031 l 258 911 l 21 911 l 21 750 l 258 750 l 258 0 l 729 0 b 1131 336 983 0 1131 125 b 767 651 1131 540 1001 651 z m 713 197 l 529 197 l 529 454 l 713 454 b 854 329 807 454 854 413 b 713 197 854 243 804 197 z "},"Ѫ":{"ha":1349,"x_min":0,"x_max":0,"o":"m 1269 192 b 944 538 1192 435 1086 525 l 1199 810 l 1199 972 l 150 972 l 150 808 l 400 538 b 82 192 261 522 161 432 l 13 0 l 294 0 l 332 133 b 514 357 372 303 433 357 l 550 357 l 550 0 l 797 0 l 797 357 l 838 357 b 1015 133 915 357 976 299 l 1053 0 l 1336 0 z m 904 785 l 675 539 l 672 539 l 446 785 z "},"Ѳ":{"ha":1165,"x_min":0,"x_max":0,"o":"m 583 992 b 43 486 271 992 43 778 b 583 -19 43 194 271 -19 b 1122 486 894 -19 1122 194 b 583 992 1122 778 894 992 z m 583 764 b 835 569 704 764 803 689 l 331 569 b 583 764 363 689 461 764 z m 583 208 b 332 400 463 208 364 282 l 833 400 b 583 208 801 282 704 208 z "},"Ѵ":{"ha":1126,"x_min":0,"x_max":0,"o":"m 401 0 l 672 0 l 894 613 b 1017 736 925 700 957 736 b 1081 726 1036 736 1057 732 l 1107 975 b 961 994 1053 988 1004 994 b 682 776 819 994 732 924 l 540 368 l 306 972 l 8 972 z "},"Ғ":{"ha":907,"x_min":0,"x_max":0,"o":"m 878 754 l 879 972 l 167 972 l 167 524 l 25 524 l 25 363 l 167 363 l 167 0 l 438 0 l 438 363 l 800 363 l 800 524 l 438 524 l 438 754 z "},"Ҕ":{"ha":983,"x_min":0,"x_max":0,"o":"m 375 522 l 375 754 l 844 754 l 844 972 l 104 972 l 104 0 l 375 0 l 375 311 b 508 343 422 332 468 343 b 675 168 607 343 675 282 b 525 -6 675 61 614 -6 b 483 -1 511 -6 497 -4 l 440 -208 b 542 -218 475 -215 510 -218 b 946 188 775 -218 946 -56 b 564 551 946 415 789 551 b 375 522 506 551 442 542 z "},"Җ":{"ha":1581,"x_min":0,"x_max":0,"o":"m 1408 218 l 1250 510 l 1510 972 l 1222 972 l 1024 594 l 906 594 l 906 972 l 636 972 l 636 594 l 513 594 l 318 972 l 29 972 l 289 510 l 13 0 l 331 0 l 521 372 l 636 372 l 636 0 l 906 0 l 906 372 l 1021 372 l 1210 0 l 1303 0 l 1303 -196 l 1556 -196 l 1556 218 z "},"Ҙ":{"ha":922,"x_min":0,"x_max":0,"o":"m 878 274 b 706 506 878 381 813 465 b 839 711 788 546 839 619 b 394 994 839 892 631 994 b 53 919 281 994 160 971 l 133 711 b 392 778 217 756 313 778 b 561 679 488 778 561 744 b 444 597 561 629 519 597 l 218 597 l 218 396 l 467 396 b 600 311 544 396 600 371 b 392 197 600 236 508 197 b 108 265 303 197 199 219 l 26 74 b 300 -11 114 29 207 1 l 300 -196 l 553 -196 l 553 -10 b 878 274 739 22 878 122 z "},"Қ":{"ha":1088,"x_min":0,"x_max":0,"o":"m 894 218 l 721 503 l 1025 972 l 736 972 l 504 594 l 372 594 l 372 972 l 99 972 l 99 0 l 372 0 l 372 372 l 497 372 l 718 0 l 811 0 l 811 -196 l 1064 -196 l 1064 218 z "},"Ҝ":{"ha":1106,"x_min":0,"x_max":0,"o":"m 772 0 l 1093 0 l 811 501 l 1072 972 l 783 972 l 589 594 l 556 594 l 556 746 l 432 746 l 432 594 l 372 594 l 372 972 l 99 972 l 99 0 l 372 0 l 372 372 l 432 372 l 432 224 l 556 224 l 556 372 l 585 372 z "},"Ҟ":{"ha":1074,"x_min":0,"x_max":0,"o":"m 750 0 l 1060 0 l 753 503 l 1057 972 l 768 972 l 536 594 l 404 594 l 404 750 l 572 750 l 572 881 l 404 881 l 404 972 l 131 972 l 131 881 l 25 881 l 25 750 l 131 750 l 131 0 l 404 0 l 404 372 l 529 372 z "},"Ҡ":{"ha":1224,"x_min":0,"x_max":0,"o":"m 899 0 l 1210 0 l 901 503 l 1206 972 l 918 972 l 686 594 l 554 594 l 554 972 l 21 972 l 21 754 l 281 754 l 281 0 l 554 0 l 554 372 l 679 372 z "},"Ң":{"ha":1189,"x_min":0,"x_max":0,"o":"m 1029 218 l 1029 972 l 754 972 l 754 607 l 379 607 l 379 972 l 104 972 l 104 0 l 379 0 l 379 379 l 754 379 l 754 0 l 906 0 l 906 -196 l 1158 -196 l 1158 218 z "},"Ҥ":{"ha":1489,"x_min":0,"x_max":0,"o":"m 1468 972 l 754 972 l 754 607 l 379 607 l 379 972 l 104 972 l 104 0 l 379 0 l 379 379 l 754 379 l 754 0 l 1029 0 l 1029 754 l 1467 754 z "},"Ҧ":{"ha":1622,"x_min":0,"x_max":0,"o":"m 1017 522 l 1017 972 l 104 972 l 104 0 l 375 0 l 375 754 l 744 754 l 744 0 l 1017 0 l 1017 310 b 1154 340 1068 331 1114 340 b 1317 168 1254 340 1317 279 b 1167 -6 1317 61 1257 -6 b 1125 -1 1153 -6 1139 -4 l 1082 -208 b 1183 -218 1117 -215 1151 -218 b 1588 188 1417 -218 1588 -56 b 1206 551 1588 415 1432 551 b 1017 522 1147 551 1083 542 z "},"Ԥ":{"ha":1176,"x_min":0,"x_max":0,"o":"m 1017 218 l 1017 972 l 104 972 l 104 0 l 375 0 l 375 754 l 744 754 l 744 0 l 894 0 l 894 -196 l 1147 -196 l 1147 218 z "},"Ҩ":{"ha":1358,"x_min":0,"x_max":0,"o":"m 1300 -11 l 1282 169 b 1132 146 1231 154 1181 146 b 1085 149 1117 146 1100 147 b 1289 589 1208 254 1289 407 b 901 997 1289 842 1138 997 b 493 556 653 997 493 825 b 636 164 493 400 547 265 b 325 519 464 178 325 301 b 478 893 325 656 381 794 l 254 997 b 49 531 119 885 49 714 b 622 -22 49 171 315 -22 b 847 14 699 -22 775 -10 b 1104 -37 925 -19 1013 -37 b 1300 -11 1168 -37 1233 -29 z m 896 796 b 1047 574 993 796 1047 717 b 885 225 1047 410 983 292 b 735 563 793 297 735 414 b 896 796 735 710 793 796 z "},"Ҫ":{"ha":1015,"x_min":0,"x_max":0,"o":"m 592 208 b 321 486 432 208 321 319 b 592 764 321 653 432 764 b 821 650 685 764 760 724 l 996 808 b 578 992 901 926 757 992 b 43 486 269 992 43 782 b 419 0 43 244 194 60 l 419 -196 l 672 -196 l 672 -12 b 996 164 808 6 918 67 l 821 322 b 592 208 760 249 685 208 z "},"Ҭ":{"ha":910,"x_min":0,"x_max":0,"o":"m 888 754 l 888 972 l 21 972 l 21 754 l 319 754 l 319 0 l 469 0 l 469 -196 l 722 -196 l 722 218 l 590 218 l 590 754 z "},"Ү":{"ha":1025,"x_min":0,"x_max":0,"o":"m 1022 972 l 756 972 l 524 586 l 294 972 l 3 972 l 375 350 l 375 0 l 650 0 l 650 349 z "},"Ұ":{"ha":1025,"x_min":0,"x_max":0,"o":"m 1022 972 l 756 972 l 524 586 l 294 972 l 3 972 l 326 432 l 190 432 l 190 294 l 375 294 l 375 0 l 650 0 l 650 294 l 821 294 l 821 432 l 700 432 z "},"Ҳ":{"ha":1083,"x_min":0,"x_max":0,"o":"m 890 218 l 692 508 l 1011 974 l 692 974 l 519 710 l 346 974 l 31 974 l 354 496 l 8 0 l 325 0 l 519 288 l 715 0 l 808 0 l 808 -196 l 1061 -196 l 1061 218 z "},"Ҵ":{"ha":1396,"x_min":0,"x_max":0,"o":"m 1236 218 l 1236 972 l 965 972 l 965 218 l 592 218 l 592 754 l 818 754 l 818 972 l 22 972 l 22 754 l 321 754 l 321 0 l 1118 0 l 1118 -199 l 1369 -199 l 1369 218 z "},"Ҷ":{"ha":1107,"x_min":0,"x_max":0,"o":"m 947 218 l 947 972 l 676 972 l 676 550 b 504 517 628 528 568 517 b 321 704 383 517 321 578 l 321 972 l 50 972 l 50 674 b 469 293 50 426 197 293 b 676 331 533 293 601 306 l 676 0 l 826 0 l 826 -196 l 1079 -196 l 1079 218 z "},"Ҹ":{"ha":1051,"x_min":0,"x_max":0,"o":"m 676 972 l 676 550 b 560 519 642 535 603 524 l 560 669 l 436 669 l 436 525 b 321 704 360 544 321 604 l 321 972 l 50 972 l 50 674 b 436 293 50 436 185 304 l 436 144 l 560 144 l 560 301 b 676 331 597 307 636 317 l 676 0 l 947 0 l 947 972 z "},"Һ":{"ha":1051,"x_min":0,"x_max":0,"o":"m 582 679 b 375 642 518 679 450 667 l 375 972 l 104 972 l 104 0 l 375 0 l 375 422 b 547 456 424 444 483 456 b 731 268 668 456 731 394 l 731 0 l 1001 0 l 1001 299 b 582 679 1001 546 854 679 z "},"Ԧ":{"ha":1157,"x_min":0,"x_max":0,"o":"m 1001 218 l 1001 299 b 582 679 1001 546 854 679 b 375 642 518 679 450 667 l 375 972 l 104 972 l 104 0 l 375 0 l 375 422 b 547 456 424 444 483 456 b 731 268 668 456 731 394 l 731 0 l 881 0 l 881 -196 l 1133 -196 l 1133 218 z "},"Ҽ":{"ha":1435,"x_min":0,"x_max":0,"o":"m 1397 493 b 882 992 1397 818 1146 992 b 360 571 639 992 400 844 b 250 671 285 571 250 614 b 283 778 250 704 261 742 l 63 815 b 26 649 38 756 26 700 b 324 385 26 492 138 385 l 361 385 b 889 -19 408 121 643 -19 b 1324 153 1046 -19 1207 38 l 1125 315 b 893 207 1057 242 972 207 b 646 385 783 207 683 271 l 1386 385 b 1397 493 1393 419 1397 457 z m 881 768 b 1113 571 986 768 1085 699 l 640 571 b 881 768 671 697 774 768 z "},"Ҿ":{"ha":1435,"x_min":0,"x_max":0,"o":"m 1397 493 b 882 992 1397 818 1146 992 b 360 571 639 992 400 844 b 250 671 285 571 250 614 b 283 778 250 704 261 742 l 63 815 b 26 649 38 756 26 700 b 324 385 26 492 138 385 l 361 385 b 768 -8 401 164 571 31 l 768 -196 l 1021 -196 l 1021 -6 b 1324 153 1133 17 1240 69 l 1125 315 b 893 207 1057 242 972 207 b 646 385 783 207 683 271 l 1386 385 b 1397 493 1393 419 1397 457 z m 881 768 b 1113 571 986 768 1085 699 l 640 571 b 881 768 671 697 774 768 z "},"Ӏ":{"ha":483,"x_min":0,"x_max":0,"o":"m 104 0 l 379 0 l 379 972 l 104 972 z "},"Ӂ":{"ha":1540,"x_min":0,"x_max":0,"o":"m 771 1031 b 1058 1257 972 1031 1058 1111 l 874 1257 b 771 1161 872 1193 840 1161 b 671 1257 701 1161 672 1193 l 486 1257 b 771 1031 486 1111 569 1031 z m 1210 0 l 1526 0 l 1250 510 l 1510 972 l 1222 972 l 1024 594 l 906 594 l 906 972 l 636 972 l 636 594 l 513 594 l 318 972 l 29 972 l 289 510 l 13 0 l 331 0 l 521 372 l 636 372 l 636 0 l 906 0 l 906 372 l 1021 372 z "},"Ӄ":{"ha":1057,"x_min":0,"x_max":0,"o":"m 731 507 l 1029 972 l 742 972 l 510 594 l 379 594 l 379 972 l 104 972 l 104 0 l 379 0 l 379 372 l 514 372 b 732 7 628 246 732 94 b 667 -74 732 -46 707 -74 b 597 -56 646 -74 622 -67 l 535 -246 b 728 -287 594 -274 658 -287 b 1033 -1 918 -287 1033 -181 b 731 507 1033 142 918 297 z "},"Ӈ":{"ha":1129,"x_min":0,"x_max":0,"o":"m 529 -242 b 719 -285 590 -269 656 -285 b 1025 6 881 -285 1025 -192 l 1025 972 l 754 972 l 754 589 l 375 589 l 375 972 l 104 972 l 104 0 l 375 0 l 375 371 l 754 371 l 754 10 b 669 -76 754 -47 718 -76 b 594 -56 646 -76 621 -69 z "},"Ӊ":{"ha":1196,"x_min":0,"x_max":0,"o":"m 1029 218 l 1029 972 l 754 972 l 754 607 l 379 607 l 379 972 l 104 972 l 104 0 l 379 0 l 379 379 l 754 379 l 754 0 l 871 0 l 836 -196 l 1051 -196 l 1169 218 z "},"Ӌ":{"ha":1044,"x_min":0,"x_max":0,"o":"m 669 972 l 669 606 b 500 574 621 585 563 574 b 317 738 379 574 317 629 l 317 972 l 46 972 l 46 707 b 465 351 46 475 193 351 b 669 388 529 351 596 363 l 669 218 l 492 218 l 492 -196 l 744 -196 l 744 0 l 940 0 l 940 972 z "},"Ӎ":{"ha":1426,"x_min":0,"x_max":0,"o":"m 1235 218 l 1232 972 l 1006 972 l 672 411 l 331 972 l 104 972 l 104 0 l 357 0 l 357 504 l 607 96 l 729 96 l 979 515 l 981 0 l 1104 0 l 1069 -196 l 1285 -196 l 1403 218 z "},"Ӑ":{"ha":1144,"x_min":0,"x_max":0,"o":"m 571 1031 b 858 1257 772 1031 858 1111 l 674 1257 b 571 1161 672 1193 640 1161 b 471 1257 501 1161 472 1193 l 286 1257 b 571 1031 286 1111 369 1031 z m 851 0 l 1138 0 l 707 972 l 436 972 l 7 0 l 288 0 l 364 189 l 775 189 z m 444 392 l 569 703 l 694 392 z "},"Ӓ":{"ha":1144,"x_min":0,"x_max":0,"o":"m 425 1050 b 535 1158 488 1050 535 1093 b 425 1268 535 1224 488 1268 b 315 1158 363 1268 315 1224 b 425 1050 315 1093 363 1050 z m 719 1050 b 829 1158 782 1050 829 1093 b 719 1268 829 1224 782 1268 b 610 1158 657 1268 610 1224 b 719 1050 610 1093 657 1050 z m 851 0 l 1138 0 l 707 972 l 436 972 l 7 0 l 288 0 l 364 189 l 775 189 z m 444 392 l 569 703 l 694 392 z "},"Ӕ":{"ha":1549,"x_min":0,"x_max":0,"o":"m 986 213 l 986 390 l 1418 390 l 1418 596 l 986 596 l 986 760 l 1476 760 l 1476 972 l 535 972 l 4 0 l 285 0 l 383 189 l 714 189 l 714 0 l 1494 0 l 1494 213 z m 490 392 l 682 760 l 714 760 l 714 392 z "},"Ӗ":{"ha":938,"x_min":0,"x_max":0,"o":"m 485 1031 b 772 1257 686 1031 772 1111 l 588 1257 b 485 1161 586 1193 554 1161 b 385 1257 415 1161 386 1193 l 200 1257 b 485 1031 200 1111 283 1031 z m 376 213 l 376 390 l 808 390 l 808 596 l 376 596 l 376 760 l 867 760 l 867 972 l 104 972 l 104 0 l 885 0 l 885 213 z "}}}
